{
	"asset":{
		"generator":"Khronos glTF Blender I/O v4.1.63",
		"version":"2.0"
	},
	"scene":0,
	"scenes":[
		{
			"name":"Scene",
			"nodes":[
				0,
				1,
				2,
				3,
				4
			]
		}
	],
	"nodes":[
		{
			"mesh":0,
			"name":"Cube",
			"scale":[
				0.0119096077978611,
				0.5480695962905884,
				0.5480695962905884
			],
			"translation":[
				0.934113621711731,
				0.6129294633865356,
				-0.45696184039115906
			]
		},
		{
			"mesh":1,
			"name":"Cube.001",
			"scale":[
				0.0119096077978611,
				0.5480695962905884,
				0.5480695962905884
			],
			"translation":[
				0.9643806219100952,
				0.6129294633865356,
				-0.45696184039115906
			]
		},
		{
			"mesh":2,
			"name":"Cube.002",
			"rotation":[
				1,
				0,
				0,
				0
			],
			"scale":[
				-0.08773622661828995,
				-0.5480695962905884,
				-0.5480695962905884
			],
			"translation":[
				0.9129079580307007,
				0.6314899325370789,
				-0.4514789879322052
			]
		},
		{
			"mesh":3,
			"name":"Cube.003",
			"scale":[
				0.0119096077978611,
				0.5480695962905884,
				0.5480695962905884
			],
			"translation":[
				0.872172474861145,
				0.6129294633865356,
				-0.45696184039115906
			]
		},
		{
			"mesh":4,
			"name":"Cube.004",
			"scale":[
				0.0119096077978611,
				0.5480695962905884,
				0.5480695962905884
			],
			"translation":[
				0.9024394750595093,
				0.6129294633865356,
				-0.45696184039115906
			]
		}
	],
	"materials":[
		{
			"doubleSided":true,
			"name":"Material.003",
			"pbrMetallicRoughness":{
				"baseColorFactor":[
					0.800000011920929,
					0.800000011920929,
					0.800000011920929,
					1
				],
				"metallicFactor":0,
				"roughnessFactor":0.5
			}
		},
		{
			"doubleSided":true,
			"name":"Material.002",
			"pbrMetallicRoughness":{
				"baseColorFactor":[
					0.800000011920929,
					0.800000011920929,
					0.800000011920929,
					1
				],
				"metallicFactor":0,
				"roughnessFactor":0.5
			}
		},
		{
			"doubleSided":true,
			"name":"Material.001",
			"pbrMetallicRoughness":{
				"baseColorFactor":[
					0.8004156351089478,
					0.11327710002660751,
					0,
					1
				],
				"metallicFactor":0,
				"roughnessFactor":0.5
			}
		},
		{
			"doubleSided":true,
			"name":"Material.005",
			"pbrMetallicRoughness":{
				"baseColorFactor":[
					0.800000011920929,
					0.800000011920929,
					0.800000011920929,
					1
				],
				"metallicFactor":0,
				"roughnessFactor":0.5
			}
		},
		{
			"doubleSided":true,
			"name":"Material.004",
			"pbrMetallicRoughness":{
				"baseColorFactor":[
					0.800000011920929,
					0.800000011920929,
					0.800000011920929,
					1
				],
				"metallicFactor":0,
				"roughnessFactor":0.5
			}
		}
	],
	"meshes":[
		{
			"name":"Cube.001",
			"primitives":[
				{
					"attributes":{
						"POSITION":0,
						"NORMAL":1,
						"TEXCOORD_0":2
					},
					"indices":3,
					"material":0
				}
			]
		},
		{
			"name":"Cube.002",
			"primitives":[
				{
					"attributes":{
						"POSITION":4,
						"NORMAL":5,
						"TEXCOORD_0":6
					},
					"indices":3,
					"material":1
				}
			]
		},
		{
			"name":"Cube.004",
			"primitives":[
				{
					"attributes":{
						"POSITION":7,
						"NORMAL":8,
						"TEXCOORD_0":9
					},
					"indices":10,
					"material":2
				}
			]
		},
		{
			"name":"Cube.005",
			"primitives":[
				{
					"attributes":{
						"POSITION":11,
						"NORMAL":12,
						"TEXCOORD_0":13
					},
					"indices":3,
					"material":3
				}
			]
		},
		{
			"name":"Cube.006",
			"primitives":[
				{
					"attributes":{
						"POSITION":14,
						"NORMAL":15,
						"TEXCOORD_0":16
					},
					"indices":3,
					"material":4
				}
			]
		}
	],
	"accessors":[
		{
			"bufferView":0,
			"componentType":5126,
			"count":24,
			"max":[
				1,
				1,
				1
			],
			"min":[
				-1,
				-1,
				-1
			],
			"type":"VEC3"
		},
		{
			"bufferView":1,
			"componentType":5126,
			"count":24,
			"type":"VEC3"
		},
		{
			"bufferView":2,
			"componentType":5126,
			"count":24,
			"type":"VEC2"
		},
		{
			"bufferView":3,
			"componentType":5123,
			"count":36,
			"type":"SCALAR"
		},
		{
			"bufferView":4,
			"componentType":5126,
			"count":24,
			"max":[
				1,
				1,
				1
			],
			"min":[
				-1,
				-1,
				-1
			],
			"type":"VEC3"
		},
		{
			"bufferView":5,
			"componentType":5126,
			"count":24,
			"type":"VEC3"
		},
		{
			"bufferView":6,
			"componentType":5126,
			"count":24,
			"type":"VEC2"
		},
		{
			"bufferView":7,
			"componentType":5126,
			"count":2274,
			"max":[
				1.7122668027877808,
				1.0888761281967163,
				1.091213583946228
			],
			"min":[
				-1.6271464824676514,
				-1.0995268821716309,
				-1.0988516807556152
			],
			"type":"VEC3"
		},
		{
			"bufferView":8,
			"componentType":5126,
			"count":2274,
			"type":"VEC3"
		},
		{
			"bufferView":9,
			"componentType":5126,
			"count":2274,
			"type":"VEC2"
		},
		{
			"bufferView":10,
			"componentType":5123,
			"count":3258,
			"type":"SCALAR"
		},
		{
			"bufferView":11,
			"componentType":5126,
			"count":24,
			"max":[
				1,
				1,
				1
			],
			"min":[
				-1,
				-1,
				-1
			],
			"type":"VEC3"
		},
		{
			"bufferView":12,
			"componentType":5126,
			"count":24,
			"type":"VEC3"
		},
		{
			"bufferView":13,
			"componentType":5126,
			"count":24,
			"type":"VEC2"
		},
		{
			"bufferView":14,
			"componentType":5126,
			"count":24,
			"max":[
				1,
				1,
				1
			],
			"min":[
				-1,
				-1,
				-1
			],
			"type":"VEC3"
		},
		{
			"bufferView":15,
			"componentType":5126,
			"count":24,
			"type":"VEC3"
		},
		{
			"bufferView":16,
			"componentType":5126,
			"count":24,
			"type":"VEC2"
		}
	],
	"bufferViews":[
		{
			"buffer":0,
			"byteLength":288,
			"byteOffset":0,
			"target":34962
		},
		{
			"buffer":0,
			"byteLength":288,
			"byteOffset":288,
			"target":34962
		},
		{
			"buffer":0,
			"byteLength":192,
			"byteOffset":576,
			"target":34962
		},
		{
			"buffer":0,
			"byteLength":72,
			"byteOffset":768,
			"target":34963
		},
		{
			"buffer":0,
			"byteLength":288,
			"byteOffset":840,
			"target":34962
		},
		{
			"buffer":0,
			"byteLength":288,
			"byteOffset":1128,
			"target":34962
		},
		{
			"buffer":0,
			"byteLength":192,
			"byteOffset":1416,
			"target":34962
		},
		{
			"buffer":0,
			"byteLength":27288,
			"byteOffset":1608,
			"target":34962
		},
		{
			"buffer":0,
			"byteLength":27288,
			"byteOffset":28896,
			"target":34962
		},
		{
			"buffer":0,
			"byteLength":18192,
			"byteOffset":56184,
			"target":34962
		},
		{
			"buffer":0,
			"byteLength":6516,
			"byteOffset":74376,
			"target":34963
		},
		{
			"buffer":0,
			"byteLength":288,
			"byteOffset":80892,
			"target":34962
		},
		{
			"buffer":0,
			"byteLength":288,
			"byteOffset":81180,
			"target":34962
		},
		{
			"buffer":0,
			"byteLength":192,
			"byteOffset":81468,
			"target":34962
		},
		{
			"buffer":0,
			"byteLength":288,
			"byteOffset":81660,
			"target":34962
		},
		{
			"buffer":0,
			"byteLength":288,
			"byteOffset":81948,
			"target":34962
		},
		{
			"buffer":0,
			"byteLength":192,
			"byteOffset":82236,
			"target":34962
		}
	],
	"buffers":[
		{
			"byteLength":82428,
			"uri":"book.bin"
		}
	]
}
