{
	"asset":{
		"generator":"Khronos glTF Blender I/O v4.1.63",
		"version":"2.0"
	},
	"scene":0,
	"scenes":[
		{
			"name":"Scene",
			"nodes":[
				0,
				1,
				2,
				3,
				4,
				5,
				6,
				7,
				8
			]
		}
	],
	"nodes":[
		{
			"mesh":0,
			"name":"Cube",
			"rotation":[
				-0.49885523319244385,
				-0.49524185061454773,
				0.5037703514099121,
				0.5020899772644043
			],
			"scale":[
				-1.0000040531158447,
				-0.037128202617168427,
				-1.7953113317489624
			],
			"translation":[
				-0.05122840777039528,
				1.587220311164856,
				-0.5560141801834106
			]
		},
		{
			"mesh":1,
			"name":"Cube.001",
			"rotation":[
				-0.005609933286905289,
				-0.7057474851608276,
				0.003766918322071433,
				0.7084312438964844
			],
			"scale":[
				-1.0000160932540894,
				-0.03712276369333267,
				-1.7953864336013794
			],
			"translation":[
				-0.039027824997901917,
				0.6294989585876465,
				0.41978394985198975
			]
		},
		{
			"mesh":2,
			"name":"Cube.002",
			"rotation":[
				-0.49885523319244385,
				-0.4952418804168701,
				0.5037704110145569,
				0.5020899772644043
			],
			"scale":[
				-0.6966436505317688,
				-0.02586502395570278,
				-1.2506871223449707
			],
			"translation":[
				-0.04621695727109909,
				1.565407395362854,
				-0.529522180557251
			]
		},
		{
			"mesh":3,
			"name":"Cube.003",
			"rotation":[
				-0.0031442372128367424,
				-0.7064051032066345,
				0.0005885599530301988,
				0.7078005075454712
			],
			"scale":[
				-0.6966436505317688,
				-0.025865022093057632,
				-1.2506870031356812
			],
			"translation":[
				-0.0509427934885025,
				0.6785773038864136,
				0.3581424653530121
			]
		},
		{
			"mesh":4,
			"name":"Sphere",
			"rotation":[
				-0.9999101161956787,
				0,
				0,
				0.013409525156021118
			],
			"scale":[
				0.06776173412799835,
				0.06776173412799835,
				0.06776173412799835
			],
			"translation":[
				1.4934873580932617,
				0.6482141017913818,
				0.16823233664035797
			]
		},
		{
			"mesh":5,
			"name":"Sphere.001",
			"rotation":[
				-0.9999101161956787,
				0,
				0,
				0.013409525156021118
			],
			"scale":[
				0.06776173412799835,
				0.06776173412799835,
				0.06776173412799835
			],
			"translation":[
				1.4897668361663818,
				0.6482141017913818,
				0.3861956298351288
			]
		},
		{
			"mesh":6,
			"name":"Sphere.002",
			"rotation":[
				-0.9999101161956787,
				0,
				0,
				0.013409525156021118
			],
			"scale":[
				0.06776173412799835,
				0.06776173412799835,
				0.06776173412799835
			],
			"translation":[
				1.3595470190048218,
				0.6482141017913818,
				0.2683776319026947
			]
		},
		{
			"mesh":7,
			"name":"Sphere.003",
			"rotation":[
				-0.9999101161956787,
				0,
				0,
				0.013409525156021118
			],
			"scale":[
				0.06776173412799835,
				0.06776173412799835,
				0.06776173412799835
			],
			"translation":[
				1.61595618724823,
				0.6482141017913818,
				0.275818794965744
			]
		},
		{
			"mesh":8,
			"name":"Cube.004",
			"rotation":[
				0.5,
				-0.5,
				-0.5,
				0.5000000596046448
			],
			"scale":[
				0.01208576187491417,
				0.18289828300476074,
				0.020768795162439346
			],
			"translation":[
				-1.5559237003326416,
				0.7039263844490051,
				0.2888994812965393
			]
		}
	],
	"materials":[
		{
			"doubleSided":true,
			"name":"Material.001",
			"pbrMetallicRoughness":{
				"baseColorFactor":[
					0.11699341237545013,
					0.8003311157226562,
					0,
					1
				],
				"metallicFactor":0,
				"roughnessFactor":0.5
			}
		},
		{
			"doubleSided":true,
			"name":"Material.002",
			"pbrMetallicRoughness":{
				"baseColorFactor":[
					0.15896043181419373,
					0.450778603553772,
					0.04091443866491318,
					1
				],
				"metallicFactor":0,
				"roughnessFactor":0.5
			}
		},
		{
			"doubleSided":true,
			"name":"Material.004",
			"pbrMetallicRoughness":{
				"baseColorFactor":[
					0.020288459956645966,
					0.025187339633703232,
					0.029556909576058388,
					1
				],
				"metallicFactor":0,
				"roughnessFactor":0.5
			}
		},
		{
			"doubleSided":true,
			"name":"Material.003",
			"pbrMetallicRoughness":{
				"baseColorFactor":[
					0.014348696917295456,
					0.014348696917295456,
					0.014348696917295456,
					1
				],
				"metallicFactor":0,
				"roughnessFactor":0.5
			}
		},
		{
			"doubleSided":true,
			"name":"Material.007",
			"pbrMetallicRoughness":{
				"baseColorFactor":[
					0.417880654335022,
					0.552004873752594,
					0.20155394077301025,
					1
				],
				"metallicFactor":0,
				"roughnessFactor":0.5
			}
		},
		{
			"doubleSided":true,
			"name":"Material.009",
			"pbrMetallicRoughness":{
				"baseColorFactor":[
					0.417880654335022,
					0.552004873752594,
					0.20155394077301025,
					1
				],
				"metallicFactor":0,
				"roughnessFactor":0.5
			}
		},
		{
			"doubleSided":true,
			"name":"Material.006",
			"pbrMetallicRoughness":{
				"baseColorFactor":[
					0.417880654335022,
					0.552004873752594,
					0.20155394077301025,
					1
				],
				"metallicFactor":0,
				"roughnessFactor":0.5
			}
		},
		{
			"doubleSided":true,
			"name":"Material.008",
			"pbrMetallicRoughness":{
				"baseColorFactor":[
					0.417880654335022,
					0.5457167029380798,
					0.20155394077301025,
					1
				],
				"metallicFactor":0,
				"roughnessFactor":0.5
			}
		},
		{
			"doubleSided":true,
			"name":"Material.005",
			"pbrMetallicRoughness":{
				"baseColorFactor":[
					0.5577765107154846,
					1,
					0.06481635570526123,
					1
				],
				"metallicFactor":0,
				"roughnessFactor":0.5
			}
		}
	],
	"meshes":[
		{
			"name":"Cube.001",
			"primitives":[
				{
					"attributes":{
						"POSITION":0,
						"NORMAL":1,
						"TEXCOORD_0":2
					},
					"indices":3,
					"material":0
				}
			]
		},
		{
			"name":"Cube.002",
			"primitives":[
				{
					"attributes":{
						"POSITION":4,
						"NORMAL":5,
						"TEXCOORD_0":6
					},
					"indices":3,
					"material":1
				}
			]
		},
		{
			"name":"Cube.003",
			"primitives":[
				{
					"attributes":{
						"POSITION":7,
						"NORMAL":8,
						"TEXCOORD_0":9
					},
					"indices":10,
					"material":2
				}
			]
		},
		{
			"name":"Cube.004",
			"primitives":[
				{
					"attributes":{
						"POSITION":11,
						"NORMAL":12,
						"TEXCOORD_0":13
					},
					"indices":10,
					"material":3
				}
			]
		},
		{
			"name":"Sphere",
			"primitives":[
				{
					"attributes":{
						"POSITION":14,
						"NORMAL":15,
						"TEXCOORD_0":16
					},
					"indices":17,
					"material":4
				}
			]
		},
		{
			"name":"Sphere.001",
			"primitives":[
				{
					"attributes":{
						"POSITION":18,
						"NORMAL":19,
						"TEXCOORD_0":20
					},
					"indices":17,
					"material":5
				}
			]
		},
		{
			"name":"Sphere.002",
			"primitives":[
				{
					"attributes":{
						"POSITION":21,
						"NORMAL":22,
						"TEXCOORD_0":23
					},
					"indices":17,
					"material":6
				}
			]
		},
		{
			"name":"Sphere.003",
			"primitives":[
				{
					"attributes":{
						"POSITION":24,
						"NORMAL":25,
						"TEXCOORD_0":26
					},
					"indices":17,
					"material":7
				}
			]
		},
		{
			"name":"Cube.005",
			"primitives":[
				{
					"attributes":{
						"POSITION":27,
						"NORMAL":28,
						"TEXCOORD_0":29
					},
					"indices":30,
					"material":8
				}
			]
		}
	],
	"accessors":[
		{
			"bufferView":0,
			"componentType":5126,
			"count":36,
			"max":[
				1,
				1,
				1
			],
			"min":[
				-1,
				-1,
				-1
			],
			"type":"VEC3"
		},
		{
			"bufferView":1,
			"componentType":5126,
			"count":36,
			"type":"VEC3"
		},
		{
			"bufferView":2,
			"componentType":5126,
			"count":36,
			"type":"VEC2"
		},
		{
			"bufferView":3,
			"componentType":5123,
			"count":60,
			"type":"SCALAR"
		},
		{
			"bufferView":4,
			"componentType":5126,
			"count":36,
			"max":[
				1,
				1,
				1
			],
			"min":[
				-1,
				-1,
				-1
			],
			"type":"VEC3"
		},
		{
			"bufferView":5,
			"componentType":5126,
			"count":36,
			"type":"VEC3"
		},
		{
			"bufferView":6,
			"componentType":5126,
			"count":36,
			"type":"VEC2"
		},
		{
			"bufferView":7,
			"componentType":5126,
			"count":24,
			"max":[
				1,
				1,
				1
			],
			"min":[
				-1,
				-1,
				-1
			],
			"type":"VEC3"
		},
		{
			"bufferView":8,
			"componentType":5126,
			"count":24,
			"type":"VEC3"
		},
		{
			"bufferView":9,
			"componentType":5126,
			"count":24,
			"type":"VEC2"
		},
		{
			"bufferView":10,
			"componentType":5123,
			"count":36,
			"type":"SCALAR"
		},
		{
			"bufferView":11,
			"componentType":5126,
			"count":24,
			"max":[
				1,
				1,
				1
			],
			"min":[
				-1,
				-1,
				-1
			],
			"type":"VEC3"
		},
		{
			"bufferView":12,
			"componentType":5126,
			"count":24,
			"type":"VEC3"
		},
		{
			"bufferView":13,
			"componentType":5126,
			"count":24,
			"type":"VEC2"
		},
		{
			"bufferView":14,
			"componentType":5126,
			"count":296,
			"max":[
				0.9999997019767761,
				0,
				0.9999993443489075
			],
			"min":[
				-0.9999990463256836,
				-1,
				-1
			],
			"type":"VEC3"
		},
		{
			"bufferView":15,
			"componentType":5126,
			"count":296,
			"type":"VEC3"
		},
		{
			"bufferView":16,
			"componentType":5126,
			"count":296,
			"type":"VEC2"
		},
		{
			"bufferView":17,
			"componentType":5123,
			"count":1440,
			"type":"SCALAR"
		},
		{
			"bufferView":18,
			"componentType":5126,
			"count":296,
			"max":[
				0.9999997019767761,
				0,
				0.9999993443489075
			],
			"min":[
				-0.9999990463256836,
				-1,
				-1
			],
			"type":"VEC3"
		},
		{
			"bufferView":19,
			"componentType":5126,
			"count":296,
			"type":"VEC3"
		},
		{
			"bufferView":20,
			"componentType":5126,
			"count":296,
			"type":"VEC2"
		},
		{
			"bufferView":21,
			"componentType":5126,
			"count":296,
			"max":[
				0.9999997019767761,
				0,
				0.9999993443489075
			],
			"min":[
				-0.9999990463256836,
				-1,
				-1
			],
			"type":"VEC3"
		},
		{
			"bufferView":22,
			"componentType":5126,
			"count":296,
			"type":"VEC3"
		},
		{
			"bufferView":23,
			"componentType":5126,
			"count":296,
			"type":"VEC2"
		},
		{
			"bufferView":24,
			"componentType":5126,
			"count":296,
			"max":[
				0.9999997019767761,
				0,
				0.9999993443489075
			],
			"min":[
				-0.9999990463256836,
				-1,
				-1
			],
			"type":"VEC3"
		},
		{
			"bufferView":25,
			"componentType":5126,
			"count":296,
			"type":"VEC3"
		},
		{
			"bufferView":26,
			"componentType":5126,
			"count":296,
			"type":"VEC2"
		},
		{
			"bufferView":27,
			"componentType":5126,
			"count":64,
			"max":[
				3.9005885124206543,
				1,
				8.806398391723633
			],
			"min":[
				-1,
				-1,
				-8.806398391723633
			],
			"type":"VEC3"
		},
		{
			"bufferView":28,
			"componentType":5126,
			"count":64,
			"type":"VEC3"
		},
		{
			"bufferView":29,
			"componentType":5126,
			"count":64,
			"type":"VEC2"
		},
		{
			"bufferView":30,
			"componentType":5123,
			"count":120,
			"type":"SCALAR"
		}
	],
	"bufferViews":[
		{
			"buffer":0,
			"byteLength":432,
			"byteOffset":0,
			"target":34962
		},
		{
			"buffer":0,
			"byteLength":432,
			"byteOffset":432,
			"target":34962
		},
		{
			"buffer":0,
			"byteLength":288,
			"byteOffset":864,
			"target":34962
		},
		{
			"buffer":0,
			"byteLength":120,
			"byteOffset":1152,
			"target":34963
		},
		{
			"buffer":0,
			"byteLength":432,
			"byteOffset":1272,
			"target":34962
		},
		{
			"buffer":0,
			"byteLength":432,
			"byteOffset":1704,
			"target":34962
		},
		{
			"buffer":0,
			"byteLength":288,
			"byteOffset":2136,
			"target":34962
		},
		{
			"buffer":0,
			"byteLength":288,
			"byteOffset":2424,
			"target":34962
		},
		{
			"buffer":0,
			"byteLength":288,
			"byteOffset":2712,
			"target":34962
		},
		{
			"buffer":0,
			"byteLength":192,
			"byteOffset":3000,
			"target":34962
		},
		{
			"buffer":0,
			"byteLength":72,
			"byteOffset":3192,
			"target":34963
		},
		{
			"buffer":0,
			"byteLength":288,
			"byteOffset":3264,
			"target":34962
		},
		{
			"buffer":0,
			"byteLength":288,
			"byteOffset":3552,
			"target":34962
		},
		{
			"buffer":0,
			"byteLength":192,
			"byteOffset":3840,
			"target":34962
		},
		{
			"buffer":0,
			"byteLength":3552,
			"byteOffset":4032,
			"target":34962
		},
		{
			"buffer":0,
			"byteLength":3552,
			"byteOffset":7584,
			"target":34962
		},
		{
			"buffer":0,
			"byteLength":2368,
			"byteOffset":11136,
			"target":34962
		},
		{
			"buffer":0,
			"byteLength":2880,
			"byteOffset":13504,
			"target":34963
		},
		{
			"buffer":0,
			"byteLength":3552,
			"byteOffset":16384,
			"target":34962
		},
		{
			"buffer":0,
			"byteLength":3552,
			"byteOffset":19936,
			"target":34962
		},
		{
			"buffer":0,
			"byteLength":2368,
			"byteOffset":23488,
			"target":34962
		},
		{
			"buffer":0,
			"byteLength":3552,
			"byteOffset":25856,
			"target":34962
		},
		{
			"buffer":0,
			"byteLength":3552,
			"byteOffset":29408,
			"target":34962
		},
		{
			"buffer":0,
			"byteLength":2368,
			"byteOffset":32960,
			"target":34962
		},
		{
			"buffer":0,
			"byteLength":3552,
			"byteOffset":35328,
			"target":34962
		},
		{
			"buffer":0,
			"byteLength":3552,
			"byteOffset":38880,
			"target":34962
		},
		{
			"buffer":0,
			"byteLength":2368,
			"byteOffset":42432,
			"target":34962
		},
		{
			"buffer":0,
			"byteLength":768,
			"byteOffset":44800,
			"target":34962
		},
		{
			"buffer":0,
			"byteLength":768,
			"byteOffset":45568,
			"target":34962
		},
		{
			"buffer":0,
			"byteLength":512,
			"byteOffset":46336,
			"target":34962
		},
		{
			"buffer":0,
			"byteLength":240,
			"byteOffset":46848,
			"target":34963
		}
	],
	"buffers":[
		{
			"byteLength":47088,
			"uri":"DS-lite.bin"
		}
	]
}
