{
	"asset":{
		"generator":"Khronos glTF Blender I/O v4.1.63",
		"version":"2.0"
	},
	"scene":0,
	"scenes":[
		{
			"name":"Scene",
			"nodes":[
				0,
				1,
				2,
				3,
				4,
				5,
				6,
				7
			]
		}
	],
	"nodes":[
		{
			"mesh":0,
			"name":"Cube",
			"scale":[
				3.375497341156006,
				3.375497341156006,
				2.304539680480957
			],
			"translation":[
				1.8565722703933716,
				7.238908767700195,
				-1.8932294845581055
			]
		},
		{
			"mesh":1,
			"name":"Cube.001",
			"scale":[
				2.939706802368164,
				2.5478737354278564,
				0.39759525656700134
			],
			"translation":[
				1.8541195392608643,
				7.5630598068237305,
				0.2795434594154358
			]
		},
		{
			"mesh":2,
			"name":"Cube.002",
			"rotation":[
				0,
				1,
				0,
				0
			],
			"scale":[
				-2.939706802368164,
				-0.22342151403427124,
				-0.39759525656700134
			],
			"translation":[
				1.8701461553573608,
				4.429739952087402,
				0.26897910237312317
			]
		},
		{
			"mesh":3,
			"name":"Sphere",
			"scale":[
				0.19576190412044525,
				0.19576190412044525,
				0.19576190412044525
			],
			"translation":[
				-0.3374752998352051,
				4.43325662612915,
				0.5089889764785767
			]
		},
		{
			"mesh":4,
			"name":"Sphere.001",
			"scale":[
				0.19576190412044525,
				0.19576190412044525,
				0.19576190412044525
			],
			"translation":[
				0.5850732326507568,
				4.43325662612915,
				0.5089889764785767
			]
		},
		{
			"mesh":5,
			"name":"Sphere.002",
			"scale":[
				0.19576190412044525,
				0.19576190412044525,
				0.19576190412044525
			],
			"translation":[
				1.5021543502807617,
				4.43325662612915,
				0.5089889764785767
			]
		},
		{
			"mesh":6,
			"name":"Sphere.003",
			"scale":[
				0.19576190412044525,
				0.19576190412044525,
				0.19576190412044525
			],
			"translation":[
				2.459108829498291,
				4.43325662612915,
				0.5089889764785767
			]
		},
		{
			"mesh":7,
			"name":"Sphere.004",
			"scale":[
				0.9861961603164673,
				0.19576190412044525,
				0.19576190412044525
			],
			"translation":[
				3.6878623962402344,
				4.43325662612915,
				0.5089889764785767
			]
		}
	],
	"materials":[
		{
			"doubleSided":true,
			"name":"Material",
			"pbrMetallicRoughness":{
				"baseColorFactor":[
					0.3212066888809204,
					0.3212066888809204,
					0.3212066888809204,
					1
				],
				"metallicFactor":0,
				"roughnessFactor":0.5
			}
		},
		{
			"doubleSided":true,
			"name":"Material.001",
			"pbrMetallicRoughness":{
				"baseColorFactor":[
					0.02316904626786709,
					0.02316904626786709,
					0.02316904626786709,
					1
				],
				"metallicFactor":0,
				"roughnessFactor":0.5
			}
		},
		{
			"doubleSided":true,
			"name":"Material.002",
			"pbrMetallicRoughness":{
				"baseColorFactor":[
					0.02614927664399147,
					0.02614927664399147,
					0.02614927664399147,
					1
				],
				"metallicFactor":0,
				"roughnessFactor":0.5
			}
		},
		{
			"doubleSided":true,
			"name":"Material.003",
			"pbrMetallicRoughness":{
				"baseColorFactor":[
					0.1750263273715973,
					0.20611640810966492,
					0.8017628192901611,
					1
				],
				"metallicFactor":0,
				"roughnessFactor":0.5
			}
		}
	],
	"meshes":[
		{
			"name":"Cube",
			"primitives":[
				{
					"attributes":{
						"POSITION":0,
						"NORMAL":1,
						"TEXCOORD_0":2
					},
					"indices":3,
					"material":0
				}
			]
		},
		{
			"name":"Cube.002",
			"primitives":[
				{
					"attributes":{
						"POSITION":4,
						"NORMAL":5,
						"TEXCOORD_0":6
					},
					"indices":7,
					"material":1
				}
			]
		},
		{
			"name":"Cube.003",
			"primitives":[
				{
					"attributes":{
						"POSITION":8,
						"NORMAL":9,
						"TEXCOORD_0":10
					},
					"indices":7,
					"material":2
				}
			]
		},
		{
			"name":"Sphere",
			"primitives":[
				{
					"attributes":{
						"POSITION":11,
						"NORMAL":12,
						"TEXCOORD_0":13
					},
					"indices":14
				}
			]
		},
		{
			"name":"Sphere.001",
			"primitives":[
				{
					"attributes":{
						"POSITION":15,
						"NORMAL":16,
						"TEXCOORD_0":17
					},
					"indices":14
				}
			]
		},
		{
			"name":"Sphere.002",
			"primitives":[
				{
					"attributes":{
						"POSITION":18,
						"NORMAL":19,
						"TEXCOORD_0":20
					},
					"indices":14
				}
			]
		},
		{
			"name":"Sphere.003",
			"primitives":[
				{
					"attributes":{
						"POSITION":21,
						"NORMAL":22,
						"TEXCOORD_0":23
					},
					"indices":14
				}
			]
		},
		{
			"name":"Sphere.004",
			"primitives":[
				{
					"attributes":{
						"POSITION":24,
						"NORMAL":25,
						"TEXCOORD_0":26
					},
					"indices":14,
					"material":3
				}
			]
		}
	],
	"accessors":[
		{
			"bufferView":0,
			"componentType":5126,
			"count":48,
			"max":[
				1,
				1,
				1
			],
			"min":[
				-1,
				-1,
				-1
			],
			"type":"VEC3"
		},
		{
			"bufferView":1,
			"componentType":5126,
			"count":48,
			"type":"VEC3"
		},
		{
			"bufferView":2,
			"componentType":5126,
			"count":48,
			"type":"VEC2"
		},
		{
			"bufferView":3,
			"componentType":5123,
			"count":84,
			"type":"SCALAR"
		},
		{
			"bufferView":4,
			"componentType":5126,
			"count":2400,
			"max":[
				1,
				1,
				1
			],
			"min":[
				-1,
				-1,
				-1
			],
			"type":"VEC3"
		},
		{
			"bufferView":5,
			"componentType":5126,
			"count":2400,
			"type":"VEC3"
		},
		{
			"bufferView":6,
			"componentType":5126,
			"count":2400,
			"type":"VEC2"
		},
		{
			"bufferView":7,
			"componentType":5123,
			"count":3588,
			"type":"SCALAR"
		},
		{
			"bufferView":8,
			"componentType":5126,
			"count":2400,
			"max":[
				1,
				1,
				1
			],
			"min":[
				-1,
				-1,
				-1
			],
			"type":"VEC3"
		},
		{
			"bufferView":9,
			"componentType":5126,
			"count":2400,
			"type":"VEC3"
		},
		{
			"bufferView":10,
			"componentType":5126,
			"count":2400,
			"type":"VEC2"
		},
		{
			"bufferView":11,
			"componentType":5126,
			"count":559,
			"max":[
				0.9999997019767761,
				1,
				0.9999993443489075
			],
			"min":[
				-0.9999990463256836,
				-1,
				-1
			],
			"type":"VEC3"
		},
		{
			"bufferView":12,
			"componentType":5126,
			"count":559,
			"type":"VEC3"
		},
		{
			"bufferView":13,
			"componentType":5126,
			"count":559,
			"type":"VEC2"
		},
		{
			"bufferView":14,
			"componentType":5123,
			"count":2880,
			"type":"SCALAR"
		},
		{
			"bufferView":15,
			"componentType":5126,
			"count":559,
			"max":[
				0.9999997019767761,
				1,
				0.9999993443489075
			],
			"min":[
				-0.9999990463256836,
				-1,
				-1
			],
			"type":"VEC3"
		},
		{
			"bufferView":16,
			"componentType":5126,
			"count":559,
			"type":"VEC3"
		},
		{
			"bufferView":17,
			"componentType":5126,
			"count":559,
			"type":"VEC2"
		},
		{
			"bufferView":18,
			"componentType":5126,
			"count":559,
			"max":[
				0.9999997019767761,
				1,
				0.9999993443489075
			],
			"min":[
				-0.9999990463256836,
				-1,
				-1
			],
			"type":"VEC3"
		},
		{
			"bufferView":19,
			"componentType":5126,
			"count":559,
			"type":"VEC3"
		},
		{
			"bufferView":20,
			"componentType":5126,
			"count":559,
			"type":"VEC2"
		},
		{
			"bufferView":21,
			"componentType":5126,
			"count":559,
			"max":[
				0.9999997019767761,
				1,
				0.9999993443489075
			],
			"min":[
				-0.9999990463256836,
				-1,
				-1
			],
			"type":"VEC3"
		},
		{
			"bufferView":22,
			"componentType":5126,
			"count":559,
			"type":"VEC3"
		},
		{
			"bufferView":23,
			"componentType":5126,
			"count":559,
			"type":"VEC2"
		},
		{
			"bufferView":24,
			"componentType":5126,
			"count":559,
			"max":[
				0.9999997019767761,
				1,
				0.9999993443489075
			],
			"min":[
				-0.9999990463256836,
				-1,
				-1
			],
			"type":"VEC3"
		},
		{
			"bufferView":25,
			"componentType":5126,
			"count":559,
			"type":"VEC3"
		},
		{
			"bufferView":26,
			"componentType":5126,
			"count":559,
			"type":"VEC2"
		}
	],
	"bufferViews":[
		{
			"buffer":0,
			"byteLength":576,
			"byteOffset":0,
			"target":34962
		},
		{
			"buffer":0,
			"byteLength":576,
			"byteOffset":576,
			"target":34962
		},
		{
			"buffer":0,
			"byteLength":384,
			"byteOffset":1152,
			"target":34962
		},
		{
			"buffer":0,
			"byteLength":168,
			"byteOffset":1536,
			"target":34963
		},
		{
			"buffer":0,
			"byteLength":28800,
			"byteOffset":1704,
			"target":34962
		},
		{
			"buffer":0,
			"byteLength":28800,
			"byteOffset":30504,
			"target":34962
		},
		{
			"buffer":0,
			"byteLength":19200,
			"byteOffset":59304,
			"target":34962
		},
		{
			"buffer":0,
			"byteLength":7176,
			"byteOffset":78504,
			"target":34963
		},
		{
			"buffer":0,
			"byteLength":28800,
			"byteOffset":85680,
			"target":34962
		},
		{
			"buffer":0,
			"byteLength":28800,
			"byteOffset":114480,
			"target":34962
		},
		{
			"buffer":0,
			"byteLength":19200,
			"byteOffset":143280,
			"target":34962
		},
		{
			"buffer":0,
			"byteLength":6708,
			"byteOffset":162480,
			"target":34962
		},
		{
			"buffer":0,
			"byteLength":6708,
			"byteOffset":169188,
			"target":34962
		},
		{
			"buffer":0,
			"byteLength":4472,
			"byteOffset":175896,
			"target":34962
		},
		{
			"buffer":0,
			"byteLength":5760,
			"byteOffset":180368,
			"target":34963
		},
		{
			"buffer":0,
			"byteLength":6708,
			"byteOffset":186128,
			"target":34962
		},
		{
			"buffer":0,
			"byteLength":6708,
			"byteOffset":192836,
			"target":34962
		},
		{
			"buffer":0,
			"byteLength":4472,
			"byteOffset":199544,
			"target":34962
		},
		{
			"buffer":0,
			"byteLength":6708,
			"byteOffset":204016,
			"target":34962
		},
		{
			"buffer":0,
			"byteLength":6708,
			"byteOffset":210724,
			"target":34962
		},
		{
			"buffer":0,
			"byteLength":4472,
			"byteOffset":217432,
			"target":34962
		},
		{
			"buffer":0,
			"byteLength":6708,
			"byteOffset":221904,
			"target":34962
		},
		{
			"buffer":0,
			"byteLength":6708,
			"byteOffset":228612,
			"target":34962
		},
		{
			"buffer":0,
			"byteLength":4472,
			"byteOffset":235320,
			"target":34962
		},
		{
			"buffer":0,
			"byteLength":6708,
			"byteOffset":239792,
			"target":34962
		},
		{
			"buffer":0,
			"byteLength":6708,
			"byteOffset":246500,
			"target":34962
		},
		{
			"buffer":0,
			"byteLength":4472,
			"byteOffset":253208,
			"target":34962
		}
	],
	"buffers":[
		{
			"byteLength":257680,
			"uri":"old-tv.bin"
		}
	]
}
