<?xml version="1.0" encoding="utf-8"?>
<!-- Generator: Adobe Illustrator 26.3.0, SVG Export Plug-In . SVG Version: 6.00 Build 0)  -->
<svg version="1.1" id="Layer_1" xmlns="http://www.w3.org/2000/svg" xmlns:xlink="http://www.w3.org/1999/xlink" x="0px" y="0px"
	 viewBox="0 0 1366 768" style="enable-background:new 0 0 1366 768;" xml:space="preserve">
<style type="text/css">
	.st0{fill:#EFEFEF;}
	.st1{fill:#CC58B3;}
	.st2{fill:#56CCC6;}
	.st3{fill:#0F0F0F;}
</style>
<rect class="st0" width="1366" height="768"/>
<rect x="220.4" y="525.6" class="st1" width="925.3" height="13.8"/>
<rect x="83" y="-36" class="st2" width="50" height="849"/>
<rect x="133" y="-36" class="st1" width="50" height="849"/>
<rect x="183" y="-36" class="st3" width="50" height="849"/>
<g>
	<path class="st2" d="M36.1,715.4c0-0.9,0.3-1.6,0.9-2.2c0.6-0.6,1.3-0.9,2.1-0.9c0.2,0,0.4,0,0.6,0.1l8.5,1.5
		c1,0.2,1.9,0.7,2.6,1.5c0.7,0.8,1.1,1.8,1.1,2.8c0,0.9-0.3,1.6-0.9,2.2c-0.6,0.6-1.3,0.9-2.1,0.9c-0.2,0-0.4,0-0.6-0.1l-2.8-0.5
		v8.6l2.8,0.5c1,0.2,1.9,0.7,2.6,1.5c0.7,0.8,1.1,1.8,1.1,2.8c0,0.9-0.3,1.6-0.9,2.2c-0.6,0.6-1.3,0.9-2.1,0.9c-0.2,0-0.4,0-0.6-0.1
		l-8.5-1.5c-1-0.2-1.9-0.7-2.6-1.5c-0.7-0.8-1.1-1.8-1.1-2.8c0-0.9,0.3-1.6,0.9-2.2c0.6-0.6,1.3-0.9,2.1-0.9c0.2,0,0.4,0,0.6,0.1
		l2.8,0.5v-8.6l-2.8-0.5c-1-0.2-1.9-0.7-2.6-1.5C36.5,717.3,36.1,716.4,36.1,715.4z"/>
	<path class="st2" d="M39.3,692.6c0-2.1,0.3-3.8,0.9-5c0.6-1.4,1.5-2,2.6-2c0.2,0,0.3,0,0.5,0l4.2,0.8c1.3,0.2,2.3,1.1,3,2.8
		c0.7,1.5,1,3.4,1,5.6v7.7c0,2.1-0.3,3.7-0.9,5c-0.6,1.4-1.5,2-2.6,2c-0.2,0-0.3,0-0.5-0.1l-4.2-0.7c-1.3-0.2-2.3-1.2-3-2.8
		c-0.7-1.5-1-3.4-1-5.6V692.6z M46.4,693.5l-2-0.4c-0.1,0-0.2,0-0.3,0c-0.6,0-1.1,0.2-1.4,0.8c-0.4,0.5-0.6,1.1-0.6,1.9v2.6
		c0,0.8,0.2,1.6,0.7,2.2s1,1.1,1.7,1.2l2,0.3c0.1,0,0.2,0,0.3,0c0.6,0,1.1-0.2,1.4-0.8c0.4-0.5,0.6-1.1,0.6-1.9v-2.6
		c0-0.8-0.2-1.6-0.7-2.2S47.1,693.6,46.4,693.5z"/>
	<path class="st2" d="M39,657.7c0-0.8,0.3-1.5,0.8-2c0.5-0.5,1.2-0.8,2-0.8c0.2,0,0.4,0,0.6,0.1l5.5,1c1.3,0.2,2.3,1.2,3,2.8
		c0.7,1.5,1,3.4,1,5.6v0.7c0,1.7-0.2,3.1-0.6,4.3c0.4,1.3,0.6,2.8,0.6,4.5v0.7c0,2.1-0.3,3.7-0.9,5c-0.6,1.4-1.5,2-2.6,2
		c-0.2,0-0.4,0-0.5,0l-5.5-1c-0.9-0.2-1.7-0.6-2.3-1.4c-0.6-0.8-1-1.6-1-2.5c0-0.8,0.3-1.5,0.8-2c0.5-0.5,1.2-0.8,2-0.8
		c0.2,0,0.4,0,0.6,0.1l5,0.9c0.4,0.1,0.7,0,1-0.2c0.3-0.2,0.4-0.5,0.4-0.9c0-0.4-0.1-0.7-0.4-1.1c-0.3-0.3-0.6-0.5-1-0.6l-5-0.9
		c-0.8-0.1-1.5-0.5-2.1-1.1c-0.6-0.6-1-1.3-1.1-2.1c0-0.1,0-0.4-0.1-0.7c0-0.8,0.3-1.5,0.8-2c0.5-0.5,1.2-0.8,2-0.8
		c0.2,0,0.4,0,0.6,0.1l5,0.9c0.4,0.1,0.7,0,1-0.2c0.3-0.2,0.4-0.5,0.4-0.9c0-0.4-0.1-0.7-0.4-1.1c-0.3-0.3-0.6-0.5-1-0.6l-5-0.9
		c-0.9-0.2-1.7-0.6-2.3-1.4C39.3,659.5,39,658.6,39,657.7z"/>
	<path class="st2" d="M36.2,615.4c0-0.9,0.3-1.6,0.9-2.2c0.6-0.6,1.3-0.9,2.1-0.9c0.2,0,0.4,0,0.6,0.1l10.1,1.8
		c1.1,0.2,1.7,1.3,1.7,3.3v12.4c0,2.1-0.3,3.7-0.9,5c-0.6,1.4-1.5,2-2.6,2c-0.2,0-0.3,0-0.5-0.1l-4.2-0.7c-1.3-0.2-2.3-1.2-3-2.8
		c-0.7-1.5-1-3.4-1-5.6v-8.2c-0.9-0.3-1.6-0.8-2.2-1.6C36.5,617.1,36.2,616.3,36.2,615.4z M48.8,622.6c0-0.4-0.1-0.7-0.4-1.1
		c-0.3-0.3-0.6-0.5-1-0.6l-3.8-0.7c-0.4-0.1-0.7,0-1,0.3s-0.4,0.5-0.4,0.9v4.2c0,2,0.6,3.1,1.7,3.3l3.3,0.6c1.1,0.2,1.7-0.7,1.7-2.7
		V622.6z"/>
	<path class="st2" d="M39.3,592.6c0-2.1,0.3-3.8,0.9-5c0.6-1.4,1.5-2,2.6-2c0.2,0,0.3,0,0.5,0l4.2,0.8c1.3,0.2,2.3,1.1,3,2.8
		c0.7,1.5,1,3.4,1,5.6v7.7c0,2.1-0.3,3.7-0.9,5c-0.6,1.4-1.5,2-2.6,2c-0.2,0-0.3,0-0.5-0.1l-4.2-0.7c-1.3-0.2-2.3-1.2-3-2.8
		c-0.7-1.5-1-3.4-1-5.6V592.6z M46.4,593.5l-2-0.4c-0.1,0-0.2,0-0.3,0c-0.6,0-1.1,0.2-1.4,0.8c-0.4,0.5-0.6,1.1-0.6,1.9v2.6
		c0,0.8,0.2,1.6,0.7,2.2s1,1.1,1.7,1.2l2,0.3c0.1,0,0.2,0,0.3,0c0.6,0,1.1-0.2,1.4-0.8c0.4-0.5,0.6-1.1,0.6-1.9v-2.6
		c0-0.8-0.2-1.6-0.7-2.2S47.1,593.6,46.4,593.5z"/>
	<path class="st2" d="M42.2,543.5L42.2,543.5l11.4,2c1.3,0.2,2.3,1.2,3,2.8c0.7,1.5,1,3.4,1,5.6v11.8c0,0.4-0.1,0.7-0.4,0.9
		c-0.3,0.2-0.6,0.3-1,0.2c-0.4-0.1-0.7-0.3-1-0.6c-0.3-0.3-0.4-0.7-0.4-1.1v-9.2c0-0.8-0.2-1.6-0.7-2.3c-0.5-0.7-1-1.1-1.6-1.2
		l-0.9-0.2v8.2c0,2.1-0.3,3.8-0.9,5c-0.6,1.4-1.5,2-2.6,2c-0.2,0-0.3,0-0.5,0l-4.9-0.9c-1-0.2-1.9-0.7-2.6-1.5
		c-0.7-0.8-1.1-1.8-1.1-2.8c0-0.9,0.3-1.6,0.9-2.2c0.6-0.6,1.3-0.9,2.2-0.9c0.2,0,0.4,0,0.6,0.1l4.4,0.8c1.1,0.2,1.7-0.7,1.7-2.7
		v-4.2c0-0.4-0.1-0.7-0.4-1.1c-0.3-0.3-0.6-0.5-1-0.6l-4.7-0.8c-1-0.2-1.9-0.7-2.6-1.5c-0.7-0.8-1.1-1.8-1.1-2.8
		c0-0.9,0.3-1.7,0.9-2.3C40.6,543.7,41.3,543.4,42.2,543.5z"/>
	<path class="st2" d="M39.3,522.5c0-2.1,0.3-3.8,0.9-5c0.6-1.4,1.5-2,2.6-2c0.2,0,0.3,0,0.5,0l4.2,0.8c1.3,0.2,2.3,1.1,3,2.8
		c0.7,1.5,1,3.4,1,5.6v7.7c0,2.1-0.3,3.7-0.9,5c-0.6,1.4-1.5,2-2.6,2c-0.2,0-0.3,0-0.5-0.1l-4.2-0.7c-1.3-0.2-2.3-1.2-3-2.8
		c-0.7-1.5-1-3.4-1-5.6V522.5z M46.4,523.3l-2-0.4c-0.1,0-0.2,0-0.3,0c-0.6,0-1.1,0.2-1.4,0.8c-0.4,0.5-0.6,1.1-0.6,1.9v2.6
		c0,0.8,0.2,1.6,0.7,2.2c0.4,0.7,1,1.1,1.7,1.2l2,0.3c0.1,0,0.2,0,0.3,0c0.6,0,1.1-0.2,1.4-0.8c0.4-0.5,0.6-1.1,0.6-1.9v-2.6
		c0-0.8-0.2-1.6-0.7-2.2C47.6,523.8,47.1,523.4,46.4,523.3z"/>
	<path class="st2" d="M39,506.2c0-0.9,0.3-1.6,0.9-2.2s1.3-0.9,2.2-0.9c0.2,0,0.4,0,0.6,0.1l3.8,0.7c0.1,0,0.2,0,0.3,0
		c0.6,0,1.1-0.2,1.4-0.8c0.4-0.5,0.6-1.1,0.6-1.9v-4.2c0-0.4-0.1-0.7-0.4-1.1c-0.3-0.3-0.6-0.5-1-0.6l-4.7-0.8
		c-1-0.2-1.9-0.7-2.6-1.5c-0.7-0.8-1.1-1.8-1.1-2.8c0-0.9,0.3-1.6,0.9-2.2c0.6-0.6,1.3-0.9,2.1-0.9c0.2,0,0.4,0,0.6,0.1l7.3,1.3
		c1.1,0.2,1.7,1.3,1.7,3.3v12.4c0,2.1-0.3,3.7-0.9,5c-0.6,1.4-1.5,2-2.6,2c-0.2,0-0.3,0-0.5,0l-4.9-0.9c-1-0.2-1.9-0.7-2.6-1.5
		C39.4,508.1,39,507.2,39,506.2z"/>
	<path class="st2" d="M48.8,452.4c0-0.4,0.1-0.7,0.4-0.9s0.6-0.3,1-0.2c0.4,0.1,0.7,0.3,1,0.6c0.3,0.3,0.4,0.7,0.4,1.1v7.1
		c0,2.1-0.3,3.7-0.9,5c-0.6,1.4-1.5,2-2.6,2c-0.2,0-0.4,0-0.5-0.1l-5.7-1v2.1c0,0.4-0.1,0.7-0.4,0.9c-0.3,0.2-0.6,0.3-1,0.2
		c-0.4-0.1-0.7-0.3-1-0.6c-0.3-0.3-0.4-0.7-0.4-1.1v-2.2c-0.8-0.3-1.5-0.9-2.1-1.6c-0.5-0.8-0.8-1.6-0.8-2.4s0.3-1.6,0.8-2.1
		c0.5-0.6,1.2-0.9,2.1-0.9v-7.6c0-0.4,0.1-0.7,0.4-0.9s0.6-0.3,1-0.2c0.4,0.1,0.7,0.2,1,0.6s0.4,0.7,0.4,1.1v7.5l4.6,0.8
		c0.1,0,0.2,0,0.3,0c0.6,0,1-0.2,1.4-0.8c0.4-0.5,0.6-1.1,0.6-1.9V452.4z"/>
	<path class="st2" d="M39,441.4c0-0.9,0.3-1.6,0.9-2.2c0.6-0.6,1.3-0.9,2.2-0.9c0.2,0,0.4,0,0.6,0.1l3.8,0.7c0.1,0,0.2,0,0.3,0
		c0.6,0,1.1-0.2,1.4-0.8c0.4-0.5,0.6-1.1,0.6-1.9v-4.2c0-0.4-0.1-0.7-0.4-1.1c-0.3-0.3-0.6-0.5-1-0.6l-4.7-0.8
		c-1-0.2-1.9-0.7-2.6-1.5c-0.7-0.8-1.1-1.8-1.1-2.8c0-0.9,0.3-1.6,0.9-2.2c0.6-0.6,1.3-0.9,2.1-0.9c0.2,0,0.4,0,0.6,0.1l7.3,1.3
		c1.1,0.2,1.7,1.3,1.7,3.3v12.4c0,2.1-0.3,3.7-0.9,5c-0.6,1.4-1.5,2-2.6,2c-0.2,0-0.3,0-0.5,0l-4.9-0.9c-1-0.2-1.9-0.7-2.6-1.5
		C39.4,443.3,39,442.4,39,441.4z"/>
	<path class="st2" d="M39.3,401.2c0-0.4,0.1-0.7,0.4-0.9s0.6-0.3,1-0.2s0.7,0.3,1,0.6c0.3,0.3,0.4,0.7,0.4,1.1v5.7
		c0,0.8,0.2,1.6,0.7,2.3c0.4,0.7,1,1.1,1.6,1.2l3.8,0.7c1,0.2,1.9,0.7,2.6,1.5c0.7,0.8,1.1,1.8,1.1,2.8c0,0.9-0.3,1.6-0.9,2.2
		s-1.3,0.9-2.1,0.9c-0.2,0-0.4,0-0.6-0.1l-4.9-0.9c-1.3-0.2-2.3-1.2-3-2.8c-0.7-1.5-1-3.4-1-5.6V401.2z"/>
	<path class="st2" d="M39.3,379.6c0-2.1,0.3-3.7,0.9-5c0.6-1.4,1.5-2,2.6-2c0.2,0,0.3,0,0.5,0.1l4.6,0.8c1,0.2,1.9,0.7,2.6,1.5
		c0.7,0.8,1.1,1.8,1.1,2.8c0,0.9-0.3,1.6-0.9,2.2c-0.6,0.6-1.3,0.9-2.1,0.9c-0.2,0-0.4,0-0.6-0.1l-3.5-0.6c-0.1,0-0.2,0-0.3,0
		c-0.6,0-1.1,0.2-1.4,0.7c-0.4,0.5-0.6,1.1-0.6,1.9v4.2c0,0.4,0.1,0.7,0.4,1.1c0.3,0.3,0.6,0.5,1,0.6l4.4,0.8c1,0.2,1.9,0.7,2.6,1.5
		c0.7,0.8,1.1,1.8,1.1,2.8c0,0.9-0.3,1.6-0.9,2.2c-0.6,0.6-1.3,0.9-2.1,0.9c-0.2,0-0.4,0-0.6-0.1l-7-1.2c-1.1-0.2-1.7-1.3-1.7-3.3
		V379.6z"/>
	<path class="st2" d="M48.8,337.6c0-0.4,0.1-0.7,0.4-0.9c0.3-0.2,0.6-0.3,1-0.2c0.4,0.1,0.7,0.3,1,0.6c0.3,0.3,0.4,0.7,0.4,1.1v7.1
		c0,2.1-0.3,3.7-0.9,5c-0.6,1.4-1.5,2-2.6,2c-0.2,0-0.4,0-0.5-0.1l-5.7-1v2.1c0,0.4-0.1,0.7-0.4,0.9c-0.3,0.2-0.6,0.3-1,0.2
		c-0.4-0.1-0.7-0.3-1-0.6c-0.3-0.3-0.4-0.7-0.4-1.1v-2.2c-0.8-0.3-1.5-0.9-2.1-1.6c-0.5-0.8-0.8-1.6-0.8-2.4c0-0.9,0.3-1.6,0.8-2.1
		c0.5-0.6,1.2-0.9,2.1-0.9v-7.6c0-0.4,0.1-0.7,0.4-0.9c0.3-0.2,0.6-0.3,1-0.2c0.4,0.1,0.7,0.2,1,0.6c0.3,0.3,0.4,0.7,0.4,1.1v7.5
		l4.6,0.8c0.1,0,0.2,0,0.3,0c0.6,0,1-0.3,1.4-0.8c0.4-0.5,0.6-1.1,0.6-1.9V337.6z"/>
	<path class="st2" d="M39.3,315c0-2.1,0.3-3.7,0.9-5c0.6-1.4,1.5-2,2.6-2c0.2,0,0.3,0,0.5,0.1l4.9,0.9c1,0.2,1.9,0.7,2.6,1.5
		c0.7,0.8,1.1,1.8,1.1,2.8c0,0.9-0.3,1.6-0.9,2.2s-1.3,0.9-2.1,0.9c-0.2,0-0.4,0-0.6-0.1l-3.8-0.7c-0.1,0-0.2,0-0.3,0
		c-0.6,0-1.1,0.2-1.4,0.8c-0.4,0.5-0.6,1.1-0.6,1.9v5.6l6.1,1.1c1,0.2,1.9,0.7,2.6,1.5c0.7,0.8,1.1,1.8,1.1,2.8
		c0,0.9-0.3,1.6-0.9,2.2s-1.3,0.9-2.1,0.9c-0.2,0-0.4,0-0.6-0.1l-8.5-1.5c-1-0.2-1.9-0.7-2.6-1.5c-0.7-0.8-1.1-1.8-1.1-2.8
		c0-0.9,0.3-1.7,0.9-2.2s1.4-0.8,2.3-0.8V315z"/>
	<path class="st2" d="M41.2,299.7c0,0.9-0.2,1.7-0.6,2.3c-0.4,0.6-0.9,0.9-1.6,0.9c-0.8,0-1.5-0.5-2.1-1.5c-0.5-0.8-0.7-1.7-0.7-2.6
		c0-0.9,0.2-1.7,0.6-2.3c0.4-0.6,0.9-0.9,1.6-0.9c0.8,0,1.5,0.5,2.1,1.5C41,297.9,41.2,298.8,41.2,299.7z M42.7,300
		c0-0.9,0.3-1.6,0.8-2.2c0.6-0.6,1.3-0.9,2.1-0.9c0.2,0,0.4,0,0.6,0.1l1.9,0.3c1,0.2,1.9,0.7,2.6,1.5c0.7,0.8,1.1,1.7,1.1,2.8
		c0,0.9-0.3,1.6-0.9,2.2s-1.3,0.9-2.1,0.9c-0.2,0-0.4,0-0.6-0.1l-1.9-0.3c-1-0.2-1.9-0.7-2.6-1.5S42.7,301,42.7,300z"/>
	<path class="st2" d="M44,276.9c0-4.7,1-7.1,3.1-7.1c0.2,0,0.3,0,0.5,0c1.3,0.2,2.3,1.2,3,2.8c0.6,1.5,0.9,3.3,0.9,5.6v14
		c0,0.4-0.1,0.7-0.4,0.9c-0.3,0.2-0.6,0.3-1,0.2s-0.7-0.3-1-0.6s-0.4-0.7-0.4-1.1v-12.6c0-0.4-0.1-0.8-0.3-1.3
		c-0.2-0.4-0.5-0.6-0.8-0.7c-0.5-0.1-0.8,0.5-0.8,1.6v6.2c0,4.7-1,7.1-3.1,7.1c-0.2,0-0.3,0-0.5-0.1c-1.3-0.2-2.3-1.2-3-2.8
		c-0.6-1.5-0.9-3.4-0.9-5.6v-14c0-0.4,0.1-0.7,0.4-0.9c0.3-0.2,0.6-0.3,1-0.2c0.4,0.1,0.7,0.3,1,0.6c0.3,0.3,0.4,0.7,0.4,1.1v12.5
		c0,0.4,0.1,0.8,0.3,1.3c0.2,0.4,0.5,0.6,0.8,0.7c0.5,0.1,0.8-0.4,0.8-1.6V276.9z"/>
	<path class="st2" d="M48.8,234.7c0-0.4,0.1-0.7,0.4-0.9c0.3-0.2,0.6-0.3,1-0.2c0.4,0.1,0.7,0.3,1,0.6c0.3,0.3,0.4,0.7,0.4,1.1v7.1
		c0,2.1-0.3,3.7-0.9,5c-0.6,1.4-1.5,2-2.6,2c-0.2,0-0.4,0-0.5-0.1l-5.7-1v2.1c0,0.4-0.1,0.7-0.4,0.9c-0.3,0.2-0.6,0.3-1,0.2
		c-0.4-0.1-0.7-0.3-1-0.6c-0.3-0.3-0.4-0.7-0.4-1.1v-2.2c-0.8-0.3-1.5-0.9-2.1-1.6c-0.5-0.8-0.8-1.6-0.8-2.4c0-0.9,0.3-1.6,0.8-2.1
		c0.5-0.6,1.2-0.9,2.1-0.9V233c0-0.4,0.1-0.7,0.4-0.9c0.3-0.2,0.6-0.3,1-0.2c0.4,0.1,0.7,0.2,1,0.6c0.3,0.3,0.4,0.7,0.4,1.1v7.5
		l4.6,0.8c0.1,0,0.2,0,0.3,0c0.6,0,1-0.3,1.4-0.8c0.4-0.5,0.6-1.1,0.6-1.9V234.7z"/>
	<path class="st2" d="M39.3,212.1c0-2.1,0.3-3.7,0.9-5c0.6-1.4,1.5-2,2.6-2c0.2,0,0.3,0,0.5,0.1l4.9,0.9c1,0.2,1.9,0.7,2.6,1.5
		c0.7,0.8,1.1,1.8,1.1,2.8c0,0.9-0.3,1.6-0.9,2.2s-1.3,0.9-2.1,0.9c-0.2,0-0.4,0-0.6-0.1l-3.8-0.7c-0.1,0-0.2,0-0.3,0
		c-0.6,0-1.1,0.2-1.4,0.8c-0.4,0.5-0.6,1.1-0.6,1.9v5.6l6.1,1.1c1,0.2,1.9,0.7,2.6,1.5c0.7,0.8,1.1,1.8,1.1,2.8
		c0,0.9-0.3,1.6-0.9,2.2s-1.3,0.9-2.1,0.9c-0.2,0-0.4,0-0.6-0.1l-8.5-1.5c-1-0.2-1.9-0.7-2.6-1.5c-0.7-0.8-1.1-1.8-1.1-2.8
		c0-0.9,0.3-1.7,0.9-2.2s1.4-0.8,2.3-0.8V212.1z"/>
	<path class="st2" d="M41.2,196.8c0,0.9-0.2,1.7-0.6,2.3c-0.4,0.6-0.9,0.9-1.6,0.9c-0.8,0-1.5-0.5-2.1-1.5c-0.5-0.8-0.7-1.7-0.7-2.6
		c0-0.9,0.2-1.7,0.6-2.3c0.4-0.6,0.9-0.9,1.6-0.9c0.8,0,1.5,0.5,2.1,1.5C41,195,41.2,195.9,41.2,196.8z M42.7,197
		c0-0.9,0.3-1.6,0.8-2.2c0.6-0.6,1.3-0.9,2.1-0.9c0.2,0,0.4,0,0.6,0.1l1.9,0.3c1,0.2,1.9,0.7,2.6,1.5c0.7,0.8,1.1,1.7,1.1,2.8
		c0,0.9-0.3,1.6-0.9,2.2s-1.3,0.9-2.1,0.9c-0.2,0-0.4,0-0.6-0.1l-1.9-0.3c-1-0.2-1.9-0.7-2.6-1.5S42.7,198,42.7,197z"/>
	<path class="st2" d="M39.3,172.2c0-2.1,0.3-3.7,0.9-5c0.6-1.4,1.5-2,2.6-2c0.2,0,0.3,0,0.5,0.1l4.6,0.8c1,0.2,1.9,0.7,2.6,1.5
		c0.7,0.8,1.1,1.8,1.1,2.8c0,0.9-0.3,1.6-0.9,2.2c-0.6,0.6-1.3,0.9-2.1,0.9c-0.2,0-0.4,0-0.6-0.1l-3.5-0.6c-0.1,0-0.2,0-0.3,0
		c-0.6,0-1.1,0.2-1.4,0.7c-0.4,0.5-0.6,1.1-0.6,1.9v4.2c0,0.4,0.1,0.7,0.4,1.1c0.3,0.3,0.6,0.5,1,0.6l4.4,0.8c1,0.2,1.9,0.7,2.6,1.5
		c0.7,0.8,1.1,1.8,1.1,2.8c0,0.9-0.3,1.6-0.9,2.2c-0.6,0.6-1.3,0.9-2.1,0.9c-0.2,0-0.4,0-0.6-0.1l-7-1.2c-1.1-0.2-1.7-1.3-1.7-3.3
		V172.2z"/>
	<path class="st2" d="M38.6,139.3c0-2,0.6-2.9,1.7-2.7l13.4,2.4c1.3,0.2,2.3,1.1,3,2.8c0.7,1.5,1,3.4,1,5.6v11.8
		c0,0.4-0.1,0.7-0.4,0.9c-0.3,0.2-0.6,0.3-1,0.2c-0.4-0.1-0.7-0.3-1-0.6c-0.3-0.3-0.4-0.7-0.4-1.1v-9.2c0-0.8-0.2-1.6-0.7-2.2
		c-0.5-0.7-1-1.1-1.6-1.2l-0.9-0.2v8.2c0,2.1-0.3,3.7-0.9,5c-0.6,1.4-1.5,2-2.6,2c-0.2,0-0.3,0-0.5-0.1l-4.9-0.8
		c-1.3-0.2-2.3-1.2-3-2.8c-0.7-1.5-1-3.4-1-5.6V139.3z M48.8,146.7c0-0.4-0.1-0.7-0.4-1.1c-0.3-0.3-0.6-0.5-1-0.6l-4.5-0.8
		c-0.4-0.1-0.7,0-1,0.2c-0.3,0.2-0.4,0.5-0.4,0.9v4.2c0,2,0.6,3.1,1.7,3.3l4,0.7c1.1,0.2,1.7-0.7,1.7-2.7V146.7z"/>
	<path class="st2" d="M39.3,101.7c0-2.1,0.3-3.8,0.9-5c0.6-1.4,1.5-2,2.6-2c0.2,0,0.3,0,0.5,0l4.2,0.8c1.3,0.2,2.3,1.1,3,2.8
		c0.7,1.5,1,3.4,1,5.6v7.7c0,2.1-0.3,3.7-0.9,5c-0.6,1.4-1.5,2-2.6,2c-0.2,0-0.3,0-0.5-0.1l-4.2-0.7c-1.3-0.2-2.3-1.2-3-2.8
		c-0.7-1.5-1-3.4-1-5.6V101.7z M46.4,102.5l-2-0.4c-0.1,0-0.2,0-0.3,0c-0.6,0-1.1,0.2-1.4,0.8c-0.4,0.5-0.6,1.1-0.6,1.9v2.6
		c0,0.8,0.2,1.6,0.7,2.2s1,1.1,1.7,1.2l2,0.3c0.1,0,0.2,0,0.3,0c0.6,0,1.1-0.2,1.4-0.8c0.4-0.5,0.6-1.1,0.6-1.9v-2.6
		c0-0.8-0.2-1.6-0.7-2.2S47.1,102.6,46.4,102.5z"/>
	<path class="st2" d="M39.3,73.6c0-2.1,0.3-3.7,0.9-5c0.6-1.4,1.5-2,2.6-2c0.2,0,0.3,0,0.5,0.1l4.6,0.8c1,0.2,1.9,0.7,2.6,1.5
		c0.7,0.8,1.1,1.8,1.1,2.8c0,0.9-0.3,1.6-0.9,2.2c-0.6,0.6-1.3,0.9-2.1,0.9c-0.2,0-0.4,0-0.6-0.1l-3.5-0.6c-0.1,0-0.2,0-0.3,0
		c-0.6,0-1.1,0.2-1.4,0.7c-0.4,0.5-0.6,1.1-0.6,1.9v4.2c0,0.4,0.1,0.7,0.4,1.1c0.3,0.3,0.6,0.5,1,0.6l4.4,0.8c1,0.2,1.9,0.7,2.6,1.5
		c0.7,0.8,1.1,1.8,1.1,2.8c0,0.9-0.3,1.6-0.9,2.2c-0.6,0.6-1.3,0.9-2.1,0.9c-0.2,0-0.4,0-0.6-0.1l-7-1.2c-1.1-0.2-1.7-1.3-1.7-3.3
		V73.6z"/>
	<path class="st2" d="M36.4,50c0-4.8,1-7.1,3-7.1c0.2,0,0.3,0,0.5,0.1c1.2,0.2,2.1,1.1,2.6,2.7c0.4,1.3,0.6,3.1,0.6,5.6
		c0,1.2,0.3,1.8,0.8,1.9v0.1c0.1,0,0.2,0,0.3,0c0.5,0.1,0.9,0.5,1.3,1.3C45.8,55.2,46,56,46,57s-0.2,1.8-0.5,2.5
		c-0.4,0.6-0.8,0.9-1.3,0.8c-0.1,0-0.1-0.1-0.3-0.1v0.1c-2.4-0.4-3.6-3.2-3.6-8.2c0-1.4,0-1.8,0-1.2c0-0.4-0.2-0.6-0.4-0.7
		c-0.4-0.1-0.6,0.5-0.6,1.7v12.5c0,0.4-0.1,0.7-0.4,0.9c-0.3,0.2-0.6,0.3-1,0.2c-0.4-0.1-0.7-0.3-1-0.6c-0.3-0.3-0.4-0.7-0.4-1.1V50
		z M46.9,57.2c0-0.9,0.2-1.7,0.6-2.3c0.4-0.6,0.9-0.9,1.6-0.9c0.8,0,1.5,0.5,2.1,1.5c0.5,0.8,0.7,1.7,0.7,2.6c0,0.9-0.2,1.7-0.6,2.3
		c-0.4,0.6-0.9,0.9-1.6,0.9c-0.8,0-1.5-0.5-2.1-1.5C47.1,59,46.9,58.1,46.9,57.2z"/>
	<path class="st2" d="M36.4,22.9c0-4.8,1-7.1,3-7.1c0.2,0,0.3,0,0.5,0.1c1.2,0.2,2.1,1.1,2.6,2.7c0.4,1.3,0.6,3.1,0.6,5.6
		c0,1.2,0.3,1.8,0.8,1.9V26c0.1,0,0.2,0,0.3,0c0.5,0.1,0.9,0.5,1.3,1.3C45.8,28.1,46,29,46,30s-0.2,1.8-0.5,2.5
		c-0.4,0.7-0.8,0.9-1.3,0.8c-0.1,0-0.1-0.1-0.3-0.1v0.1c-2.4-0.4-3.6-3.2-3.6-8.2c0-1.4,0-1.8,0-1.2c0-0.4-0.2-0.6-0.4-0.7
		c-0.4-0.1-0.6,0.5-0.6,1.7v12.5c0,0.4-0.1,0.7-0.4,0.9s-0.6,0.3-1,0.2s-0.7-0.3-1-0.6s-0.4-0.7-0.4-1.1V22.9z M46.9,30.1
		c0-0.9,0.2-1.7,0.6-2.3c0.4-0.6,0.9-0.9,1.6-0.9c0.8,0,1.5,0.5,2.1,1.5c0.5,0.8,0.7,1.7,0.7,2.6c0,0.9-0.2,1.7-0.6,2.3
		c-0.4,0.6-0.9,0.9-1.6,0.9c-0.8,0-1.5-0.5-2.1-1.5C47.1,31.9,46.9,31.1,46.9,30.1z"/>
</g>
<g>
	<path class="st1" d="M337.6,254v67.6h68.2V344h-98.9v-90H337.6z"/>
	<path class="st1" d="M518.8,253.6v20.5h-73.2v13.3h71.5v20.6h-71.5v14.8h74.6v21h-105v-90.2H518.8z"/>
	<path class="st1" d="M569.6,275.3h-42.2V254h115.5v21.3h-42.3V344h-31V275.3z"/>
	<path class="st1" d="M663.8,257.5L652,241.9h25.7l10,15.6H663.8z"/>
	<path class="st1" d="M757.1,345.6c-9.8,0-18.3-0.8-25.6-2.3c-7.3-1.5-12.9-3.4-16.9-5.6c-4-2.2-7.1-4.8-9.4-7.9
		c-2.3-3.1-3.8-5.9-4.5-8.4c-0.7-2.5-1-5.2-1-8V312h32c0.7,9.5,7.6,14.3,26.4,14.3h7.1c6.2,0,8.8-0.3,12.8-0.8s7-1.3,8.8-2.2
		c1.8-1,3.1-2,3.7-3c0.6-1,0.9-2.2,0.9-3.6c0-1.9-0.5-3.5-1.6-4.6c-1.1-1.1-3.5-2.1-7.4-3s-9.5-1.4-16.8-1.5l-9.7-0.2l-7.2-0.2
		C717,306.5,701,297.7,701,281v-1.1c0-2.9,0.4-5.6,1.2-8c0.8-2.5,2.4-4.9,4.7-7.4s5.5-4.5,9.3-6.2c3.8-1.7,9-3.1,15.5-4.2
		c6.5-1.1,14.1-1.6,22.7-1.6h9.1c9,0,16.9,0.6,23.7,1.7c6.9,1.1,12.3,2.6,16.4,4.4c4.1,1.8,7.4,4,10,6.5c2.6,2.6,4.4,5.1,5.3,7.7
		c1,2.5,1.5,5.3,1.5,8.2v1.2h-31.9c-0.2-1-0.4-1.8-0.7-2.5c-0.3-0.7-1-1.6-2.2-2.7c-1.1-1.1-2.6-2.1-4.5-2.8
		c-1.8-0.7-4.6-1.4-8.2-1.9s-6.4-0.8-11.3-0.8h-4.6c-7.4,0-12,0.4-16,1.3c-4,0.8-6.4,1.7-7.2,2.7c-0.8,0.9-1.3,2.2-1.3,3.8
		c0,1.5,0.5,2.8,1.4,3.8c0.9,1,3.1,1.9,6.6,2.7c3.5,0.8,8.4,1.2,14.7,1.3l7.2,0.1l9.3,0.1c18.3,0.3,31.5,2.6,39.6,6.8
		c8.1,4.2,12.2,10.9,12.2,19.9v1.7c0,3.3-0.4,6.3-1.2,8.9s-2.4,5.3-4.9,8s-5.7,5-9.8,6.9c-4.1,1.9-9.7,3.4-16.8,4.5
		c-7.1,1.2-15.4,1.8-24.9,1.8L757.1,345.6L757.1,345.6z"/>
	<path class="st1" d="M965.9,345.4c-10.2,0-19.2-1-27.1-3c-7.9-2-14.2-4.6-18.9-7.7c-4.7-3.1-8.5-6.7-11.5-10.9
		c-3-4.1-5-8.1-6.1-11.9c-1.1-3.8-1.6-7.7-1.6-11.6v-3.4c0-3.9,0.5-7.7,1.4-11.4c0.9-3.7,2.9-7.6,5.8-11.7s6.7-7.7,11.4-10.7
		c4.6-3,11.1-5.5,19.3-7.5c8.2-2,17.7-3,28.5-3h5.7c10.4,0,19.7,0.8,27.6,2.4s14.2,3.6,18.8,6c4.5,2.4,8.2,5.2,11.1,8.4
		c2.9,3.3,4.8,6.2,5.8,8.9c1,2.7,1.5,5.5,1.6,8.3v0.1h-32.6c-3.2-8.5-14.9-12.8-34.9-12.8c-24.8,0-37.2,8.1-37.2,24.3v1.3
		c0,6.6,3,12.3,9.1,17c6.1,4.7,15.4,7.1,27.8,7.1c5.4,0,10.4-0.4,15-1.1c4.6-0.7,8.2-1.6,10.9-2.7c2.7-1,5-2.2,6.9-3.4
		c1.9-1.2,3.2-2.4,3.9-3.3c0.7-1,1.1-1.7,1.1-2.3v-0.2h-38.4v-17h69v50.3h-22.1c0,0-0.2-8-0.3-14c-9.8,10.4-25.5,15.6-47.1,15.6
		H965.9z"/>
	<path class="st1" d="M1155.7,253.6v20.5h-73.2v13.3h71.5v20.6h-71.5v14.8h74.6v21h-105v-90.2H1155.7z"/>
	<path class="st1" d="M1206.4,275.3h-42.2V254h115.5v21.3h-42.3V344h-31V275.3z"/>
</g>
<g>
	<path class="st2" d="M354.8,468.1c-9.8,0-18.3-0.8-25.6-2.3c-7.3-1.5-12.9-3.4-16.9-5.6s-7.1-4.8-9.4-7.9c-2.3-3.1-3.8-5.9-4.5-8.4
		c-0.7-2.5-1-5.2-1-8v-1.3h32c0.7,9.5,7.6,14.3,26.4,14.3h7.1c6.2,0,8.8-0.3,12.8-0.8s7-1.3,8.8-2.2c1.8-1,3.1-2,3.7-3
		c0.6-1,0.9-2.2,0.9-3.6c0-1.9-0.5-3.5-1.6-4.6c-1.1-1.1-3.5-2.1-7.4-3c-3.9-0.8-9.5-1.4-16.8-1.5l-9.7-0.2l-7.2-0.2
		c-31.9-0.8-47.9-9.6-47.9-26.4v-1.1c0-2.9,0.4-5.6,1.2-8c0.8-2.5,2.4-4.9,4.7-7.4s5.5-4.5,9.3-6.2c3.8-1.7,9-3.1,15.5-4.2
		c6.5-1.1,14.1-1.6,22.7-1.6h9.1c9,0,16.9,0.6,23.7,1.7c6.9,1.1,12.3,2.6,16.4,4.4c4.1,1.8,7.4,4,10,6.5c2.6,2.6,4.4,5.1,5.3,7.7
		c1,2.5,1.5,5.3,1.5,8.2v1.2h-31.9c-0.2-1-0.4-1.8-0.7-2.5c-0.3-0.7-1-1.6-2.2-2.7c-1.1-1.1-2.6-2.1-4.5-2.8
		c-1.8-0.7-4.6-1.4-8.2-1.9s-6.4-0.8-11.3-0.8h-4.6c-7.4,0-12,0.4-16,1.3c-4,0.8-6.4,1.7-7.2,2.7c-0.8,0.9-1.3,2.2-1.3,3.8
		c0,1.5,0.5,2.8,1.4,3.8c0.9,1,3.1,1.9,6.6,2.7s8.4,1.2,14.7,1.3l7.2,0.1l9.3,0.1c18.3,0.3,31.5,2.6,39.6,6.8
		c8.1,4.2,12.2,10.9,12.2,19.9v1.7c0,3.3-0.4,6.3-1.2,8.9s-2.4,5.3-4.9,8s-5.7,5-9.8,6.9c-4.1,1.9-9.7,3.4-16.8,4.5
		c-7.1,1.2-15.4,1.8-24.9,1.8L354.8,468.1L354.8,468.1z"/>
	<path class="st2" d="M469.2,397.8h-42.2v-21.3h115.5v21.3h-42.3v68.7h-31V397.8z"/>
	<path class="st2" d="M669.6,466.4h-30.2l-8.4-16.3h-64.1l-8.4,16.3h-30.2l47.8-89h45.6L669.6,466.4z M577.2,430h43.5l-16.9-32.7
		h-9.6L577.2,430L577.2,430z"/>
	<path class="st2" d="M787.8,442.1v24.4h-28v-15.8c0-5.5-1.4-9.4-4.2-11.9c-2.8-2.5-7.6-3.7-14.3-3.7H705v31.4h-27.9v-88.5h71.7
		c25.7,0,38.6,7.7,38.6,23v1.4c0,9.4-5.5,15.8-16.5,19.4c5,1.4,9.1,3.8,12.2,7.2C786.3,432.3,787.8,436.7,787.8,442.1z M758.4,406.6
		c0-2.5-0.9-4.6-2.7-6.2c-1.8-1.6-4.7-2.4-8.5-2.4H705v17.4h42.2c3.8,0,6.7-0.8,8.5-2.4c1.8-1.6,2.7-3.7,2.7-6.3V406.6z"/>
	<path class="st2" d="M837.3,397.8h-42.2v-21.3h115.5v21.3h-42.3v68.7h-31V397.8z"/>
	<path d="M1023.4,376.2v20.5h-73.2V410h71.5v20.6h-71.5v14.8h74.6v21h-105v-90.2H1023.4z"/>
	<path d="M1103.5,376.2c9.2,0,17.5,0.6,24.9,1.7s13.6,2.8,18.5,4.9s9.2,4.5,12.7,7.2c3.5,2.6,6.2,5.6,8.1,8.9c1.9,3.3,3.2,6.6,4,9.8
		s1.3,6.6,1.3,10.2v3.6c0,4.3-0.5,8.3-1.6,12.1s-3.2,7.7-6.3,11.7c-3.1,4-7.2,7.5-12.1,10.3c-4.9,2.8-11.6,5.2-20.1,7
		c-8.5,1.9-18.2,2.8-29.2,2.8h-65.3v-90.2H1103.5z M1069.1,444.7h32c26.4,0,39.5-7.8,39.5-23.3v-0.7c0-15.4-13.2-23.2-39.5-23.2h-32
		V444.7z"/>
	<path d="M1212.4,387.9l-7.6,52.6h-14.8l-7.6-52.6H1212.4z M1210.7,463.4h-26.8v-17.8h26.8V463.4z"/>
</g>
<text transform="matrix(1 0 0 1 -1353.2554 272.4488)"><tspan x="0" y="0" class="st2" style="font-family:'StretchProRegular'; font-size:128.6305px;">START</tspan><tspan x="634.3" y="0" style="font-family:'StretchProRegular'; font-size:128.6305px;">ED!</tspan></text>
<rect x="368.1" y="187.1" class="st2" width="925.3" height="13.8"/>
<g>
	<path d="M402.1,165.6c-2.4,0-4.5-0.2-6.4-0.7c-1.9-0.5-3.4-1.1-4.5-1.8c-1.1-0.7-2-1.6-2.7-2.6c-0.7-1-1.2-1.9-1.4-2.8
		c-0.3-0.9-0.4-1.8-0.4-2.8v-0.8c0-0.9,0.1-1.8,0.3-2.7c0.2-0.9,0.7-1.8,1.4-2.8c0.7-1,1.6-1.8,2.7-2.5c1.1-0.7,2.6-1.3,4.6-1.8
		c1.9-0.5,4.2-0.7,6.7-0.7h1.3c2.5,0,4.6,0.2,6.5,0.6c1.9,0.4,3.4,0.9,4.4,1.4s1.9,1.2,2.6,2c0.7,0.8,1.1,1.5,1.4,2.1
		c0.2,0.6,0.4,1.3,0.4,2v0h-7.7c-0.8-2-3.5-3-8.2-3c-5.9,0-8.8,1.9-8.8,5.7v0.3c0,1.6,0.7,2.9,2.2,4c1.4,1.1,3.6,1.7,6.6,1.7
		c1.3,0,2.5-0.1,3.5-0.3c1.1-0.2,1.9-0.4,2.6-0.6c0.6-0.2,1.2-0.5,1.6-0.8c0.4-0.3,0.8-0.6,0.9-0.8c0.2-0.2,0.3-0.4,0.3-0.5v-0.1
		h-9.1v-4h16.3v11.9H414c0,0,0-1.9-0.1-3.3c-2.3,2.5-6,3.7-11.1,3.7H402.1z"/>
	<path d="M429.7,165.2h-7.3V144h7.3V165.2z"/>
	<path d="M457.2,144v4.8h-16.7v3.1h16.3v4.9h-16.3v8.4h-7.2V144H457.2z"/>
	<path d="M469.8,165.6c-7.2,0-10.8-1.8-10.8-5.4V160h7.2c0,1.4,1.4,2.1,4.3,2.1h0.1c1.2,0,2.1-0.1,2.8-0.2c0.7-0.2,1.1-0.3,1.3-0.5
		c0.2-0.2,0.2-0.4,0.2-0.7v-0.1c0-0.4-0.2-0.8-0.7-1c-0.5-0.2-1.5-0.3-3-0.4l-3-0.1c-1.7,0-3.2-0.2-4.5-0.5
		c-1.2-0.3-2.2-0.7-2.8-1.1s-1.1-1-1.4-1.5c-0.3-0.5-0.4-1.1-0.4-1.7v-0.2c0-0.5,0.1-1,0.2-1.4c0.1-0.4,0.4-0.8,0.9-1.3
		c0.4-0.4,1-0.8,1.8-1.1c0.7-0.3,1.8-0.5,3.1-0.7c1.3-0.2,2.9-0.3,4.6-0.3h1.2c7,0,10.5,1.6,10.5,4.8v0.2h-7.1
		c0-0.2-0.1-0.4-0.2-0.5s-0.2-0.3-0.5-0.5c-0.2-0.2-0.7-0.3-1.3-0.4c-0.6-0.1-1.3-0.2-2.2-0.2h0c-1.6,0-2.6,0.1-3.2,0.3
		c-0.5,0.2-0.8,0.5-0.8,0.9v0.1c0,0.4,0.2,0.7,0.7,0.9s1.4,0.3,2.8,0.4l3,0.1c2.5,0,4.5,0.3,5.8,0.7c1.4,0.4,2.3,0.9,2.8,1.6
		c0.5,0.6,0.7,1.5,0.7,2.6v0.2c0,0.8-0.2,1.5-0.5,2s-0.8,1.1-1.6,1.6c-0.8,0.5-1.9,0.9-3.4,1.2c-1.5,0.3-3.4,0.4-5.6,0.4
		L469.8,165.6L469.8,165.6z"/>
</g>
<g>
	<path d="M519.5,158.2v7.1h-7.3V144h17.4c7.2,0,10.8,2.3,10.8,6.9v0.3c0,4.7-3.6,7-10.8,7H519.5z M519.5,153.4h10
		c2.2,0,3.4-0.7,3.4-2.2v-0.1c0-1.5-1.1-2.3-3.4-2.3h-10V153.4z"/>
	<path d="M542.6,144h6.9v8.4c2.1-1.9,4.9-2.9,8.2-2.9h0.2c2.7,0,4.7,0.6,6.1,1.8c1.4,1.2,2.1,2.6,2.1,4.2v9.7h-7v-7.6
		c0-1.2-0.4-2.2-1.1-2.8c-0.7-0.7-1.9-1-3.4-1c-1.6,0-2.8,0.4-3.7,1.1c-0.9,0.8-1.4,1.8-1.4,3v7.2h-6.9V144z"/>
	<path d="M580.7,165.3c-1.9,0-3.5-0.2-5-0.5c-1.4-0.3-2.6-0.8-3.5-1.3c-0.9-0.5-1.6-1.1-2.1-1.9c-0.6-0.7-0.9-1.4-1.2-2.1
		c-0.2-0.7-0.3-1.4-0.3-2.2v-0.5c0-0.8,0.1-1.5,0.3-2.2c0.2-0.7,0.6-1.4,1.1-2.1c0.5-0.7,1.3-1.3,2.1-1.8c0.9-0.5,2-0.9,3.5-1.2
		c1.4-0.3,3.1-0.5,5-0.5h2.2c8,0,12,2.6,12,7.8v0.5c0,5.3-4,7.9-12,7.9H580.7z M586.4,160c0.9-0.8,1.4-1.7,1.4-2.8v-0.1
		c0-1.1-0.5-2-1.4-2.8c-0.9-0.7-2.5-1.1-4.6-1.1h0c-2.2,0-3.7,0.4-4.6,1.1s-1.4,1.7-1.4,2.8v0.1c0,1.1,0.5,2,1.4,2.8
		c0.9,0.8,2.5,1.2,4.6,1.2S585.5,160.8,586.4,160z"/>
	<path d="M600.6,160.7V154h-3.3v-4.2h3.3v-4.5h6.8v4.5h3.3v4.2h-3.3v5.6c0,0.5,0.1,0.8,0.3,1s0.6,0.3,1.1,0.3h1.9v4.2h-6
		C602,165.1,600.6,163.7,600.6,160.7z"/>
	<path d="M625.3,165.3c-1.9,0-3.5-0.2-5-0.5c-1.4-0.3-2.6-0.8-3.5-1.3c-0.9-0.5-1.6-1.1-2.1-1.9c-0.6-0.7-0.9-1.4-1.2-2.1
		c-0.2-0.7-0.3-1.4-0.3-2.2v-0.5c0-0.8,0.1-1.5,0.3-2.2c0.2-0.7,0.6-1.4,1.1-2.1c0.5-0.7,1.3-1.3,2.1-1.8c0.9-0.5,2-0.9,3.5-1.2
		c1.4-0.3,3.1-0.5,5-0.5h2.2c8,0,12,2.6,12,7.8v0.5c0,5.3-4,7.9-12,7.9H625.3z M631,160c0.9-0.8,1.4-1.7,1.4-2.8v-0.1
		c0-1.1-0.5-2-1.4-2.8c-0.9-0.7-2.5-1.1-4.6-1.1h0c-2.2,0-3.7,0.4-4.6,1.1c-0.9,0.7-1.4,1.7-1.4,2.8v0.1c0,1.1,0.5,2,1.4,2.8
		c0.9,0.8,2.5,1.2,4.6,1.2S630.1,160.8,631,160z"/>
	<path d="M667.4,149.1v13.7c0,0.7-0.1,1.4-0.2,2.1c-0.1,0.7-0.5,1.5-1,2.4c-0.5,0.9-1.2,1.7-2,2.3c-0.8,0.7-2,1.2-3.5,1.7
		c-1.5,0.4-3.2,0.7-5.2,0.7h-14.7v-4.6h14.4c3.4-0.2,5.2-1.8,5.2-4.8c-1.9,1.7-4.6,2.5-8.2,2.5h-0.4c-3.7,0-6.5-0.7-8.3-2.2
		c-1.8-1.5-2.7-3.4-2.7-5.8v-0.6c0-2.2,0.8-4.1,2.4-5.6c1.6-1.5,4.2-2.2,7.7-2.2h0.7c3.9,0,6.9,0.9,8.8,2.6v-2.2H667.4z
		 M660.2,156.9c0-1.1-0.5-2-1.6-2.7c-1.1-0.7-2.7-1.1-4.7-1.1h-0.2c-2.1,0-3.5,0.4-4.4,1.1c-0.9,0.7-1.3,1.6-1.3,2.7v0.2
		c0,1.1,0.5,2,1.4,2.8c0.9,0.8,2.4,1.1,4.4,1.1h0.2c2.1,0,3.6-0.4,4.7-1.1c1.1-0.8,1.6-1.7,1.6-2.7V156.9z"/>
	<path d="M690.6,149v3.6c0,0-9.3,0-10,0.1c-0.8,0.1-2,0.8-2.6,1.5s-0.9,1.6-0.9,2.7v8.1h-6.5v-15.7h6.5v2.8c0.3-0.4,0.6-0.8,1-1.2
		c0.4-0.4,1.1-0.8,2.1-1.3c1-0.4,2.1-0.6,3.3-0.6H690.6z"/>
	<path d="M715,161.1v4.3h-5.3c-1.4,0-2.3-0.7-2.5-2.2c-0.5,0.6-1.3,1.2-2.5,1.7c-1.2,0.5-2.8,0.8-4.8,0.8h-0.4
		c-2.5,0-4.3-0.5-5.6-1.5c-1.2-1-1.8-2.2-1.8-3.7v-0.2c0-1.4,0.5-2.5,1.5-3.3c1-0.7,2.7-1.2,5.1-1.4l7.2-0.7c0.7-0.1,1-0.4,1-0.8
		c0-0.3-0.1-0.5-0.2-0.6c-0.1-0.2-0.5-0.3-1.2-0.5s-1.6-0.2-2.8-0.2l-10.8,0v-3.7h11.5c1.8,0,3.3,0.1,4.5,0.3
		c1.3,0.2,2.2,0.5,2.9,0.8c0.7,0.3,1.2,0.7,1.6,1.2c0.4,0.5,0.6,0.9,0.7,1.3c0.1,0.4,0.1,0.9,0.1,1.4v6c0,0.5,0.3,0.8,0.8,0.8H715z
		 M707,157.9l-6.3,1c-0.9,0.1-1.5,0.3-1.9,0.5c-0.4,0.2-0.5,0.5-0.5,1v0c0,0.5,0.2,0.9,0.7,1.3c0.5,0.4,1.2,0.5,2.2,0.5
		c1.7,0,3.1-0.4,4.2-1.1c1.1-0.8,1.6-1.6,1.6-2.6V157.9z"/>
	<path d="M724.1,149.5v2.2c2.1-1.7,5-2.6,8.5-2.6h0.6c1.8,0,3.4,0.2,4.8,0.6c1.3,0.4,2.4,1,3.1,1.7c0.8,0.7,1.3,1.5,1.7,2.4
		c0.4,0.9,0.5,1.9,0.5,3v0.5c0,1.1-0.2,2-0.5,2.9c-0.4,0.9-0.9,1.7-1.7,2.5s-1.9,1.4-3.2,1.8c-1.4,0.4-3,0.6-4.9,0.6h-0.5
		c-2.1,0-3.9-0.3-5.4-0.9c-1.5-0.6-2.4-1.1-2.9-1.7v7.5h-6.9v-20.7H724.1z M724.1,157.2c0,1.1,0.5,2,1.6,2.8
		c1.1,0.8,2.6,1.2,4.6,1.2h0.2c2,0,3.5-0.4,4.4-1.2s1.3-1.7,1.3-2.8v-0.1c0-1.1-0.4-2.1-1.3-2.8c-0.9-0.8-2.3-1.1-4.4-1.1h-0.2
		c-2,0-3.6,0.4-4.6,1.2c-1,0.8-1.6,1.7-1.6,2.8V157.2z"/>
	<path d="M746.4,144h6.9v8.4c2.1-1.9,4.9-2.9,8.2-2.9h0.2c2.7,0,4.7,0.6,6.1,1.8c1.4,1.2,2.1,2.6,2.1,4.2v9.7h-7v-7.6
		c0-1.2-0.4-2.2-1.1-2.8c-0.7-0.7-1.9-1-3.4-1c-1.6,0-2.8,0.4-3.7,1.1c-0.9,0.8-1.4,1.8-1.4,3v7.2h-6.9V144z"/>
	<path d="M796.1,150.3l-8.6,17.4c-0.8,1.6-1.7,2.8-2.6,3.5c-0.9,0.7-2.1,1.1-3.5,1.1h-9.9v-4.9l7.8,0c0.5,0,0.8-0.2,0.8-0.5
		c0-0.2-0.3-0.8-0.8-1.7l-7.8-14.9h7.3l5.3,11l5.1-11H796.1z"/>
</g>
<g>
	<path d="M584,579.3c-2.4,0-4.5-0.2-6.4-0.7c-1.9-0.5-3.4-1.1-4.5-1.8c-1.1-0.7-2-1.6-2.7-2.6c-0.7-1-1.2-1.9-1.4-2.8
		c-0.3-0.9-0.4-1.8-0.4-2.8v-0.8c0-0.9,0.1-1.8,0.3-2.7c0.2-0.9,0.7-1.8,1.4-2.8c0.7-1,1.6-1.8,2.7-2.5s2.6-1.3,4.6-1.8
		c1.9-0.5,4.2-0.7,6.7-0.7h1.3c2.5,0,4.6,0.2,6.5,0.6c1.9,0.4,3.4,0.9,4.4,1.4s1.9,1.2,2.6,2c0.7,0.8,1.1,1.5,1.4,2.1
		c0.2,0.6,0.4,1.3,0.4,2v0h-7.7c-0.8-2-3.5-3-8.2-3c-5.9,0-8.8,1.9-8.8,5.7v0.3c0,1.6,0.7,2.9,2.2,4c1.4,1.1,3.6,1.7,6.6,1.7
		c1.3,0,2.5-0.1,3.5-0.3c1.1-0.2,1.9-0.4,2.6-0.6c0.6-0.2,1.2-0.5,1.6-0.8c0.4-0.3,0.8-0.6,0.9-0.8c0.2-0.2,0.3-0.4,0.3-0.5V571
		h-9.1v-4H601v11.9h-5.2c0,0,0-1.9-0.1-3.3c-2.3,2.5-6,3.7-11.1,3.7H584z"/>
	<path d="M624.2,562.7v3.6c0,0-9.3,0-10,0.1c-0.8,0.1-2,0.8-2.6,1.5c-0.6,0.7-0.9,1.6-0.9,2.7v8.1h-6.5V563h6.5v2.8
		c0.3-0.4,0.6-0.8,1-1.2c0.4-0.4,1.1-0.8,2.1-1.3s2.1-0.6,3.3-0.6H624.2z"/>
	<path d="M648.6,574.8v4.3h-5.3c-1.4,0-2.3-0.7-2.5-2.2c-0.5,0.6-1.3,1.2-2.5,1.7c-1.2,0.5-2.8,0.8-4.8,0.8H633
		c-2.5,0-4.3-0.5-5.6-1.5c-1.2-1-1.8-2.2-1.8-3.7V574c0-1.4,0.5-2.5,1.5-3.3c1-0.7,2.7-1.2,5.1-1.4l7.2-0.7c0.7-0.1,1-0.4,1-0.8
		c0-0.3-0.1-0.5-0.2-0.6c-0.1-0.2-0.5-0.3-1.2-0.5s-1.6-0.2-2.8-0.2l-10.8,0v-3.7h11.5c1.8,0,3.3,0.1,4.5,0.3
		c1.3,0.2,2.2,0.5,2.9,0.8c0.7,0.3,1.2,0.7,1.6,1.2c0.4,0.5,0.6,0.9,0.7,1.3c0.1,0.4,0.1,0.9,0.1,1.4v6c0,0.5,0.3,0.8,0.8,0.8H648.6
		z M640.6,571.6l-6.3,1c-0.9,0.1-1.5,0.3-1.9,0.5c-0.4,0.2-0.5,0.5-0.5,1v0c0,0.5,0.2,0.9,0.7,1.3c0.5,0.4,1.2,0.5,2.2,0.5
		c1.7,0,3.1-0.4,4.2-1.1c1.1-0.8,1.6-1.6,1.6-2.6V571.6z"/>
	<path d="M657.7,563.2v2.2c2.1-1.7,5-2.6,8.5-2.6h0.6c1.8,0,3.4,0.2,4.8,0.6c1.3,0.4,2.4,1,3.1,1.7s1.3,1.5,1.7,2.4
		c0.4,0.9,0.5,1.9,0.5,3v0.5c0,1.1-0.2,2-0.5,2.9c-0.4,0.9-0.9,1.7-1.7,2.5s-1.9,1.4-3.2,1.8c-1.4,0.4-3,0.6-4.9,0.6H666
		c-2.1,0-3.9-0.3-5.4-0.9c-1.5-0.6-2.4-1.1-2.9-1.7v7.5h-6.9v-20.7H657.7z M657.7,570.8c0,1.1,0.5,2,1.6,2.8s2.6,1.2,4.6,1.2h0.2
		c2,0,3.5-0.4,4.4-1.2c0.9-0.8,1.3-1.7,1.3-2.8v-0.1c0-1.1-0.4-2.1-1.3-2.8c-0.9-0.8-2.3-1.1-4.4-1.1h-0.2c-2,0-3.6,0.4-4.6,1.2
		c-1,0.8-1.6,1.7-1.6,2.8V570.8z"/>
	<path d="M680,557.6h6.9v8.4c2.1-1.9,4.9-2.9,8.2-2.9h0.2c2.7,0,4.7,0.6,6.1,1.8c1.4,1.2,2.1,2.6,2.1,4.2v9.7h-7v-7.6
		c0-1.2-0.4-2.2-1.1-2.8c-0.7-0.7-1.9-1-3.4-1c-1.6,0-2.8,0.4-3.7,1.1c-0.9,0.8-1.4,1.8-1.4,3v7.2H680V557.6z"/>
	<path d="M713.6,562h-6.9v-4.4h6.9V562z M713.6,578.8h-6.9v-15.3h6.9V578.8z"/>
	<path d="M723.5,578.5c-1.4-0.3-2.5-0.8-3.4-1.3c-0.8-0.5-1.5-1.1-2.1-1.9s-0.9-1.4-1.1-2.1s-0.3-1.4-0.3-2.1v-0.6
		c0-0.7,0.1-1.5,0.3-2.1c0.2-0.7,0.5-1.4,1.1-2.1c0.5-0.7,1.2-1.3,2.1-1.8c0.8-0.5,2-0.9,3.4-1.2s3-0.5,4.9-0.5h1.8
		c2,0,3.7,0.2,5.2,0.5c1.5,0.3,2.6,0.8,3.4,1.2c0.8,0.5,1.4,1.1,1.9,1.7c0.5,0.7,0.8,1.2,0.9,1.7c0.1,0.5,0.2,1,0.2,1.5v0.1h-7.1
		c-0.5-1.8-2.3-2.8-5.5-2.8h-0.1c-1.9,0-3.2,0.4-4.1,1.1c-0.8,0.7-1.3,1.6-1.3,2.7v0.2c0,1.2,0.4,2.1,1.3,2.9c0.9,0.8,2.2,1.2,4,1.2
		h0.1c3.2,0,5-0.9,5.5-2.8h7.1v0.1c0,0.5-0.1,1.1-0.2,1.6c-0.1,0.5-0.4,1.1-0.9,1.8c-0.5,0.7-1.1,1.3-1.9,1.7
		c-0.8,0.5-2,0.9-3.5,1.3s-3.3,0.5-5.3,0.5h-1.7C726.5,579,724.9,578.8,723.5,578.5z"/>
	<path d="M787.4,557.4v21.2h-6.9v-2.3c-0.2,0.2-0.4,0.4-0.8,0.7c-0.4,0.3-0.8,0.5-1.5,0.9c-0.6,0.3-1.5,0.6-2.6,0.8
		s-2.2,0.3-3.5,0.3h-0.4c-3.5,0-6.2-0.7-7.9-2.2s-2.6-3.4-2.6-5.7v-0.5c0-2.2,0.8-4.1,2.5-5.5c1.7-1.4,4.3-2.1,7.8-2.1h0.5
		c3.6,0,6.4,0.8,8.4,2.4v-7.9H787.4z M778.7,568.1c-1.1-0.8-2.7-1.2-4.6-1.2h-0.2c-2,0-3.4,0.4-4.3,1.1c-0.8,0.7-1.3,1.7-1.3,2.8
		v0.1c0,1.1,0.5,2,1.4,2.8c0.9,0.8,2.3,1.2,4.2,1.2h0.2c1.9,0,3.5-0.4,4.6-1.2c1.1-0.8,1.7-1.7,1.7-2.8v-0.1
		C780.4,569.8,779.8,568.9,778.7,568.1z"/>
	<path d="M815.3,574.6c-0.1,0.5-0.5,1-1,1.5c-0.5,0.6-1.1,1-1.9,1.4c-0.8,0.4-1.9,0.8-3.3,1c-1.4,0.3-3.1,0.4-5,0.4h-1.8
		c-2.2,0-4-0.2-5.6-0.6c-1.6-0.4-2.8-1-3.7-1.8s-1.5-1.6-1.9-2.5s-0.6-1.9-0.6-2.9v-0.6c0-1,0.2-2,0.6-2.9s1-1.7,1.8-2.4
		c0.8-0.8,2-1.3,3.6-1.8s3.4-0.6,5.6-0.6h1.9c7.8,0,11.6,2.8,11.6,8.3v1.1h-18.3c0.5,2,2.4,3,5.9,3h0c0.9,0,1.6-0.1,2.3-0.2
		c0.7-0.1,1.2-0.3,1.6-0.4s0.7-0.3,0.9-0.5c0.2-0.2,0.4-0.4,0.5-0.5c0.1-0.1,0.1-0.2,0.2-0.4h6.8v0
		C815.5,573.7,815.5,574.2,815.3,574.6z M803,566.4c-3.2,0-5,0.9-5.6,2.6h11.2C808.1,567.3,806.3,566.4,803,566.4L803,566.4z"/>
	<path d="M828.8,579.3c-7.2,0-10.8-1.8-10.8-5.4v-0.2h7.2c0,1.4,1.4,2.1,4.3,2.1h0.1c1.2,0,2.1-0.1,2.8-0.2c0.7-0.2,1.1-0.3,1.3-0.5
		c0.2-0.2,0.2-0.4,0.2-0.7v-0.1c0-0.4-0.2-0.8-0.7-1c-0.5-0.2-1.5-0.3-3-0.4l-3-0.1c-1.7,0-3.2-0.2-4.5-0.5
		c-1.2-0.3-2.2-0.7-2.8-1.1s-1.1-1-1.4-1.5c-0.3-0.5-0.4-1.1-0.4-1.7v-0.2c0-0.5,0.1-1,0.2-1.4s0.4-0.8,0.9-1.3
		c0.4-0.4,1-0.8,1.8-1.1c0.7-0.3,1.8-0.5,3.1-0.7c1.3-0.2,2.9-0.3,4.6-0.3h1.2c7,0,10.5,1.6,10.5,4.8v0.2h-7.1
		c0-0.2-0.1-0.4-0.2-0.5s-0.2-0.3-0.5-0.5c-0.2-0.2-0.7-0.3-1.3-0.4s-1.3-0.2-2.2-0.2h0c-1.6,0-2.6,0.1-3.2,0.3s-0.8,0.5-0.8,0.9
		v0.1c0,0.4,0.2,0.7,0.7,0.9c0.5,0.2,1.4,0.3,2.8,0.4l3,0.1c2.5,0,4.5,0.3,5.8,0.7c1.4,0.4,2.3,0.9,2.8,1.6c0.5,0.6,0.7,1.5,0.7,2.6
		v0.2c0,0.8-0.2,1.5-0.5,2s-0.8,1.1-1.6,1.6c-0.8,0.5-1.9,0.9-3.4,1.2s-3.4,0.4-5.6,0.4L828.8,579.3L828.8,579.3z"/>
	<path d="M850.4,562h-6.9v-4.4h6.9V562z M850.4,578.8h-6.9v-15.3h6.9V578.8z"/>
	<path d="M879,562.8v13.7c0,0.7-0.1,1.4-0.2,2.1c-0.1,0.7-0.5,1.5-1,2.4c-0.5,0.9-1.2,1.7-2,2.3c-0.8,0.7-2,1.2-3.5,1.7
		c-1.5,0.4-3.2,0.7-5.2,0.7h-14.7V581h14.4c3.4-0.2,5.2-1.8,5.2-4.8c-1.9,1.7-4.6,2.5-8.2,2.5h-0.4c-3.7,0-6.5-0.7-8.3-2.2
		c-1.8-1.5-2.7-3.4-2.7-5.8v-0.6c0-2.2,0.8-4.1,2.4-5.6c1.6-1.5,4.2-2.2,7.7-2.2h0.7c3.9,0,6.9,0.9,8.8,2.6v-2.2H879z M871.8,570.5
		c0-1.1-0.5-2-1.6-2.7c-1.1-0.7-2.7-1.1-4.7-1.1h-0.2c-2.1,0-3.5,0.4-4.4,1.1c-0.9,0.7-1.3,1.6-1.3,2.7v0.2c0,1.1,0.5,2,1.4,2.8
		c0.9,0.8,2.4,1.1,4.4,1.1h0.2c2.1,0,3.6-0.4,4.7-1.1c1.1-0.8,1.6-1.7,1.6-2.7V570.5z"/>
	<path d="M888.9,563.4v2.6c2.2-2,4.9-3,8.3-3h0.2c2.7,0,4.8,0.6,6.1,1.8c1.4,1.2,2,2.6,2,4.2v9.7h-7v-7.6c0-1.2-0.4-2.2-1.1-2.8
		c-0.7-0.7-1.9-1-3.4-1c-1.6,0-2.8,0.4-3.7,1.1c-0.9,0.8-1.4,1.8-1.4,3v7.2h-6.9v-15.3H888.9z"/>
</g>
<g>
	<path d="M984.7,579.3c-2.4,0-4.5-0.2-6.4-0.7c-1.9-0.5-3.4-1.1-4.5-1.8c-1.1-0.7-2-1.6-2.7-2.6c-0.7-1-1.2-1.9-1.4-2.8
		c-0.3-0.9-0.4-1.8-0.4-2.8v-0.8c0-0.9,0.1-1.8,0.3-2.7s0.7-1.8,1.4-2.8c0.7-1,1.6-1.8,2.7-2.5s2.6-1.3,4.6-1.8
		c1.9-0.5,4.2-0.7,6.7-0.7h1.3c2.5,0,4.6,0.2,6.5,0.6c1.9,0.4,3.4,0.9,4.4,1.4c1.1,0.6,1.9,1.2,2.6,2s1.1,1.5,1.4,2.1
		c0.2,0.6,0.4,1.3,0.4,2v0h-7.7c-0.8-2-3.5-3-8.2-3c-5.9,0-8.8,1.9-8.8,5.7v0.3c0,1.6,0.7,2.9,2.2,4c1.4,1.1,3.6,1.7,6.6,1.7
		c1.3,0,2.5-0.1,3.5-0.3c1.1-0.2,1.9-0.4,2.6-0.6c0.6-0.2,1.2-0.5,1.6-0.8c0.4-0.3,0.8-0.6,0.9-0.8c0.2-0.2,0.3-0.4,0.3-0.5V571
		h-9.1v-4h16.3v11.9h-5.2c0,0,0-1.9-0.1-3.3c-2.3,2.5-6,3.7-11.1,3.7H984.7z"/>
	<path d="M1029.8,573.2c0,0.5-0.1,0.9-0.2,1.4c-0.1,0.5-0.5,1-1,1.5c-0.5,0.6-1.1,1-1.9,1.4c-0.8,0.4-1.9,0.8-3.3,1
		c-1.4,0.3-3.1,0.4-5,0.4h-1.8c-2.2,0-4-0.2-5.6-0.6c-1.6-0.4-2.8-1-3.7-1.8s-1.5-1.6-1.9-2.5s-0.6-1.9-0.6-2.9v-0.6
		c0-1,0.2-2,0.6-2.9c0.4-0.9,1-1.7,1.8-2.4c0.8-0.8,2-1.3,3.6-1.8s3.4-0.6,5.6-0.6h1.9c7.8,0,11.6,2.8,11.6,8.3v1.1h-18.3
		c0.5,2,2.4,3,5.9,3h0c0.9,0,1.6-0.1,2.3-0.2c0.7-0.1,1.2-0.3,1.6-0.4c0.4-0.2,0.7-0.3,0.9-0.5s0.4-0.4,0.5-0.5
		c0.1-0.1,0.1-0.2,0.2-0.4L1029.8,573.2L1029.8,573.2L1029.8,573.2z M1017.3,566.4c-3.2,0-5,0.9-5.6,2.6h11.2
		C1022.4,567.3,1020.5,566.4,1017.3,566.4L1017.3,566.4z"/>
	<path d="M1039.9,563.4v2.6c2.2-2,4.9-3,8.3-3h0.2c2.7,0,4.8,0.6,6.1,1.8c1.4,1.2,2,2.6,2,4.2v9.7h-7v-7.6c0-1.2-0.4-2.2-1.1-2.8
		c-0.7-0.7-1.9-1-3.4-1c-1.6,0-2.8,0.4-3.7,1.1c-0.9,0.8-1.4,1.8-1.4,3v7.2h-6.9v-15.3H1039.9z"/>
	<path d="M1084.5,574.6c-0.1,0.5-0.5,1-1,1.5c-0.5,0.6-1.1,1-1.9,1.4c-0.8,0.4-1.9,0.8-3.3,1c-1.4,0.3-3.1,0.4-5,0.4h-1.8
		c-2.2,0-4-0.2-5.6-0.6c-1.6-0.4-2.8-1-3.7-1.8s-1.5-1.6-1.9-2.5s-0.6-1.9-0.6-2.9v-0.6c0-1,0.2-2,0.6-2.9s1-1.7,1.8-2.4
		c0.8-0.8,2-1.3,3.6-1.8s3.4-0.6,5.6-0.6h1.9c7.8,0,11.6,2.8,11.6,8.3v1.1h-18.3c0.5,2,2.4,3,5.9,3h0c0.9,0,1.6-0.1,2.3-0.2
		c0.7-0.1,1.2-0.3,1.6-0.4s0.7-0.3,0.9-0.5c0.2-0.2,0.4-0.4,0.5-0.5c0.1-0.1,0.1-0.2,0.2-0.4h6.8v0
		C1084.7,573.7,1084.6,574.2,1084.5,574.6z M1072.2,566.4c-3.2,0-5,0.9-5.6,2.6h11.2C1077.3,567.3,1075.4,566.4,1072.2,566.4
		L1072.2,566.4z"/>
	<path d="M1108,562.7v3.6c0,0-9.3,0-10,0.1s-2,0.8-2.6,1.5c-0.6,0.7-0.9,1.6-0.9,2.7v8.1h-6.5V563h6.5v2.8c0.3-0.4,0.6-0.8,1-1.2
		c0.4-0.4,1.1-0.8,2.1-1.3c1-0.4,2.1-0.6,3.3-0.6H1108z"/>
	<path d="M1132.4,574.8v4.3h-5.3c-1.4,0-2.3-0.7-2.5-2.2c-0.5,0.6-1.3,1.2-2.5,1.7c-1.2,0.5-2.8,0.8-4.8,0.8h-0.4
		c-2.5,0-4.3-0.5-5.6-1.5c-1.2-1-1.8-2.2-1.8-3.7V574c0-1.4,0.5-2.5,1.5-3.3c1-0.7,2.7-1.2,5.1-1.4l7.2-0.7c0.7-0.1,1-0.4,1-0.8
		c0-0.3-0.1-0.5-0.2-0.6c-0.1-0.2-0.5-0.3-1.2-0.5s-1.6-0.2-2.8-0.2l-10.8,0v-3.7h11.5c1.8,0,3.3,0.1,4.5,0.3
		c1.3,0.2,2.2,0.5,2.9,0.8c0.7,0.3,1.2,0.7,1.6,1.2c0.4,0.5,0.6,0.9,0.7,1.3c0.1,0.4,0.1,0.9,0.1,1.4v6c0,0.5,0.3,0.8,0.8,0.8
		H1132.4z M1124.4,571.6l-6.3,1c-0.9,0.1-1.5,0.3-1.9,0.5c-0.4,0.2-0.5,0.5-0.5,1v0c0,0.5,0.2,0.9,0.7,1.3c0.5,0.4,1.2,0.5,2.2,0.5
		c1.7,0,3.1-0.4,4.2-1.1c1.1-0.8,1.6-1.6,1.6-2.6V571.6z"/>
	<path d="M1141.5,578.8h-6.9v-21.2h6.9V578.8z"/>
</g>
<g>
	<g>
		<path class="st2" d="M1159.6,56.9c0.5-5.1-0.4-10.9,1.8-15c4.9-8.8,20.5-9.4,27.4-1.8c1.7,1.8,2.7,4.7,2.9,7.2
			c0.4,5.6,0.1,11.3,0.1,16.9c0,10.1-5,14.5-16.4,14.4c-10.3,0-15.4-4.9-15.4-14.8c0-2.4,0-4.7,0-7.1
			C1159.9,56.9,1159.8,56.9,1159.6,56.9z M1168.2,68.5c2.1,4.7,7.5,5.2,11.8,3.3c7.4-3.3,4.4-10.4,4.5-17.1
			C1178.7,59.6,1173.6,63.9,1168.2,68.5z M1183.9,45.2c-3.4-4-8.3-5.3-13.1-2.1c-6.1,4.1-3.1,10.1-2.9,16
			C1173.5,54.2,1178.5,49.9,1183.9,45.2z"/>
		<path class="st2" d="M1303.3,57.3c-1,6.8,1.9,15.1-6.2,18.6c-5.4,2.3-12.3,3.5-17.8,2.1c-4.5-1.2-9.2-5.8-8.4-12.7
			c0.6-5.3,0.1-10.8,0.1-16.2c0-8.9,4.9-13.3,13.8-13.9c6.7-0.4,13.2,0.2,16.2,6.4C1303.2,46.2,1302.6,52,1303.3,57.3z M1279,68.5
			c2.2,4.7,7.9,5.3,12.3,3.1c7-3.5,3.8-10.6,4.3-17.2C1289.6,59.5,1284.5,63.9,1279,68.5z M1278.4,59.2c6-5.1,11.2-9.4,16.3-13.8
			c-2.7-4.7-8-5.1-12.2-3C1275.5,45.9,1278.6,52.7,1278.4,59.2z"/>
		<path class="st2" d="M1196.6,57.1c0.5-5.1-0.5-10.9,1.7-15.1c4.7-8.8,20.5-9.5,27.4-1.9c1.7,1.8,2.8,4.7,3,7.2
			c0.4,5.6,0.1,11.3,0.1,16.9c0,6.5-4.4,13.5-9.2,14.5c-8.2,1.8-20.4-1.8-22-7.6c-1.3-4.3-0.2-9.3-0.2-14
			C1197.1,57.1,1196.8,57.1,1196.6,57.1z M1205.1,68.5c2.3,4.7,7.6,5.2,11.9,3.3c7.4-3.3,4.1-10.5,4.7-17.3
			C1215.8,59.4,1210.8,63.7,1205.1,68.5z M1204.3,59.4c6.1-5.1,11.4-9.6,18.2-15.3c-5.4-0.7-10.5-2.9-14-1.4
			C1201.7,45.5,1204.6,52.6,1204.3,59.4z"/>
		<path class="st2" d="M1339.2,55.3c-1,8.3,1.9,15.5-5.3,20.9c-6.2,4.6-13,3.4-18.6,1.8c-4.5-1.3-9-6.1-8.1-13
			c0.7-5.1,0.1-10.3,0.1-15.5c0-9.3,4.9-13.7,14.3-14.3c6.8-0.4,13.2,0.5,16.1,6.6C1339.8,46.2,1338.9,51.9,1339.2,55.3z
			 M1330.9,45.3c-2.4-4.4-7.6-5-12-2.9c-7,3.5-4.2,10.2-4.1,16.7C1320.6,54.2,1325.6,49.9,1330.9,45.3z M1331.7,54.7
			c-6.2,5.1-11.3,9.4-16.4,13.7c2.7,5,8.1,5.3,12.4,3.2C1334.2,68.3,1331.5,61.5,1331.7,54.7z"/>
		<path class="st2" d="M1119.2,56.2c-0.7,5.9,0.3,11.8-2.1,15.7c-5.8,9.7-19.9,9.9-27.5,1.1c-1.3-1.6-2.4-3.9-2.5-5.9
			c-0.3-5.9-0.1-11.7-0.1-17.6c0-9.3,4.8-13.8,14.1-14.3c6.4-0.3,12.7,0.1,15.6,6.2C1118.8,46,1118.5,51.7,1119.2,56.2z
			 M1111.5,54.4c-5.9,5.1-11.1,9.5-16.6,14.2c2.1,4.6,7.6,5,11.9,3.2C1114.3,68.5,1110.9,61.2,1111.5,54.4z M1110.5,45.3
			c-2.6-4.8-8.2-5.1-12.5-2.6c-6.6,3.7-3.4,10.4-3.4,16.5C1100.1,54.3,1105.2,49.9,1110.5,45.3z"/>
		<path class="st2" d="M1050.3,57c0.5-6.7-3.4-15.6,5.5-19c5.6-2.2,12.7-3.3,18.3-1.8c4.2,1.1,8.5,6,7.6,12.6
			c-0.7,5.3-0.1,10.8-0.1,16.2c0,5.9-4.7,12.8-9.3,13.7c-8.6,1.7-20.3-1.9-21.8-7.7C1049.3,66.6,1050.3,61.6,1050.3,57z
			 M1074.8,54.3c-6.3,5.2-11.6,9.6-17,14c2.6,4.7,7.9,5.3,12.2,3.3C1077.2,68.5,1073.8,61.3,1074.8,54.3z M1073.6,45.3
			c-3.1-4.5-8.1-4.8-13-2.5c-4.2,2-4.8,9.5-2.2,15.6C1063.3,54.2,1068.2,50,1073.6,45.3z"/>
		<path class="st2" d="M351.7,66.7c-6.1,0-11.2,0-17.5,0c0,2.8,0.4,5.6-0.2,8.2c-0.3,1.5-2.3,2.6-3.6,3.8c-1.1-1.2-3.1-2.3-3.2-3.6
			c-0.3-8-2-16.6,0.4-23.8c2.1-6.2,9.1-10.7,14-15.8c0.4-0.5,1.9-0.2,2.7,0c4.4,1.1,14.4,14.3,14.4,18.9c0,6.4,0.3,12.7-0.2,19.1
			c-0.1,1.8-2.4,3.5-3.7,5.2c-1.1-1.7-2.6-3.2-3.1-5C351.2,71.8,351.7,69.5,351.7,66.7z M350.8,59.3c3.2-7.8-3-10.1-6.4-13.7
			c-0.5-0.5-3.2,0.1-4.1,1c-3.7,3.3-8.4,6.3-5.1,12.8C340.4,59.3,345.7,59.3,350.8,59.3z"/>
		<path class="st2" d="M410,76.8c0-14.3,0-27.3,0-41.5c12.2,7.1,23.5,13.6,35.7,20.7C433.5,63.2,422.3,69.7,410,76.8z"/>
		<path class="st2" d="M253.1,35.4c8,0,15-0.2,22,0.1c5,0.2,9.9,7.1,9.8,13c-0.1,4.9-5.8,11.5-10.5,11.8c-4.4,0.2-8.8,0.1-14.2,0.1
			c0,5.2,0.3,9.6-0.2,14c-0.2,1.6-2.4,3-3.7,4.4c-1.1-1.4-3.1-2.8-3.2-4.2C253,61.8,253.1,49.1,253.1,35.4z M260.7,41.8
			c0,4.4,0,7.8,0,11.9c3.7,0,7.1,0.7,10.1-0.2c2.6-0.9,4.7-3.6,7-5.5c-2.1-2.1-4-5-6.5-6C268.3,41,264.8,41.8,260.7,41.8z"/>
		<path class="st2" d="M363.5,36c5.6-1.7,7.1,0.1,7.1,4.9c-0.1,8,4.2,15.4,8.4,15.7c4.3,0.3,8.7-7.7,8.8-16c0-1.4,0.1-2.8,0.3-4.8
			c2.1-0.1,4-0.3,6.2-0.4c1.5,9.8,2.2,18.7-7,24.7c-5.1,3.3-4.3,8.2-4.6,13.1c-0.1,1.9-2.2,3.7-3.4,5.5c-1.2-1.8-3.4-3.7-3.3-5.5
			c0.5-6.1-0.9-11-6.2-14.4C360.8,53.1,363.7,44.4,363.5,36z"/>
		<path class="st2" d="M290.1,35.8c2.8,0,4.6,0,7.1,0c0,12.1,0,23.8,0,36.4c7,0,13.2-0.2,19.5,0.1c1.7,0.1,3.4,1.9,5.1,3
			c-1.6,1.2-3.2,3.2-4.9,3.3c-7.3,0.4-14.6,0.4-21.9,0c-1.7-0.1-4.6-2.6-4.6-4.1C289.9,61.7,290.1,49,290.1,35.8z"/>
	</g>
</g>
<text transform="matrix(1 0 0 1 -1899.1274 -163.7448)" style="font-family:'StretchProRegular'; font-size:128.6305px;">font: stretch pro</text>
</svg>
