<?xml version="1.0" encoding="utf-8"?>
<!-- Generator: Adobe Illustrator 26.3.0, SVG Export Plug-In . SVG Version: 6.00 Build 0)  -->
<svg version="1.1" id="Layer_1" xmlns="http://www.w3.org/2000/svg" xmlns:xlink="http://www.w3.org/1999/xlink" x="0px" y="0px"
	 viewBox="0 0 1125 2436" style="enable-background:new 0 0 1125 2436;" xml:space="preserve">
<style type="text/css">
	.st0{fill:#EFEFEF;}
	.st1{fill:#56CCC6;}
	.st2{fill:#CC58B3;}
	.st3{fill:#0F0F0F;}
</style>
<rect x="0" class="st0" width="1125" height="2436"/>
<rect x="0" y="0" class="st1" width="1125" height="125"/>
<rect x="0" y="125" class="st2" width="1125" height="125"/>
<rect x="0" y="250.1" class="st3" width="1125" height="125"/>
<rect x="4" y="1521.4" class="st2" width="966.6" height="14.4"/>
<g>
	<path class="st1" d="M79.2,2307.2c1.3,0,2.4,0.4,3.2,1.2c0.8,0.8,1.2,1.9,1.2,3.1c0,0.3,0,0.6-0.1,0.9l-2.2,12.3
		c-0.3,1.5-1,2.7-2.2,3.7c-1.2,1-2.6,1.6-4,1.6c-1.3,0-2.3-0.4-3.2-1.2c-0.8-0.8-1.3-1.9-1.3-3.1c0-0.3,0-0.6,0.1-0.9l0.7-4.1H59
		l-0.7,4.1c-0.3,1.5-1,2.7-2.2,3.7c-1.2,1-2.6,1.6-4,1.6c-1.3,0-2.4-0.4-3.2-1.2c-0.8-0.8-1.2-1.9-1.2-3.1c0-0.3,0-0.6,0.1-0.9
		l2.2-12.3c0.3-1.5,1-2.7,2.2-3.7c1.2-1,2.6-1.6,4-1.6c1.3,0,2.4,0.4,3.2,1.2c0.8,0.8,1.2,1.9,1.2,3.1c0,0.3,0,0.6-0.1,0.9l-0.7,4.1
		h12.6l0.7-4.1c0.3-1.5,1-2.7,2.2-3.7C76.4,2307.7,77.8,2307.2,79.2,2307.2z"/>
	<path class="st1" d="M112.4,2311.9c3,0,5.5,0.4,7.3,1.3c2,0.9,3,2.2,3,3.8c0,0.2,0,0.5,0,0.7l-1.1,6.1c-0.3,1.9-1.7,3.3-4,4.4
		c-2.2,1-4.9,1.5-8.2,1.5H97.9c-3,0-5.5-0.4-7.3-1.3c-2-0.9-3-2.2-3-3.8c0-0.2,0-0.5,0.1-0.7l1.1-6.1c0.3-1.9,1.7-3.3,4.1-4.4
		c2.2-1,4.9-1.5,8.2-1.5H112.4z M111.2,2322.2l0.5-2.9c0-0.2,0-0.3,0-0.5c0-0.8-0.4-1.5-1.1-2.1s-1.6-0.8-2.7-0.8h-3.8
		c-1.2,0-2.3,0.3-3.3,1c-1,0.7-1.5,1.5-1.7,2.4l-0.5,2.9c0,0.2,0,0.3,0,0.5c0,0.8,0.4,1.5,1.1,2.1s1.6,0.8,2.7,0.8h3.8
		c1.2,0,2.3-0.3,3.3-1C110.5,2324,111,2323.2,111.2,2322.2z"/>
	<path class="st1" d="M163.3,2311.4c1.2,0,2.1,0.4,2.9,1.1c0.8,0.8,1.2,1.7,1.2,2.9c0,0.3,0,0.6-0.1,0.8l-1.4,8.1
		c-0.3,1.9-1.7,3.4-4.1,4.4c-2.2,1-4.9,1.5-8.2,1.5h-1.1c-2.4,0-4.5-0.3-6.2-0.9c-1.9,0.6-4.1,0.9-6.5,0.9h-1.1
		c-3,0-5.5-0.4-7.3-1.3c-2-0.9-3-2.2-3-3.8c0-0.3,0-0.5,0-0.8l1.4-8.1c0.3-1.3,0.9-2.5,2.1-3.4c1.1-0.9,2.3-1.4,3.7-1.4
		c1.2,0,2.1,0.4,2.9,1.1c0.8,0.8,1.2,1.7,1.2,2.9c0,0.3,0,0.6-0.1,0.8l-1.3,7.3c-0.1,0.6,0,1,0.4,1.4c0.3,0.4,0.8,0.6,1.4,0.6
		c0.6,0,1.1-0.2,1.6-0.6c0.5-0.4,0.8-0.9,0.9-1.4l1.3-7.3c0.2-1.2,0.8-2.2,1.7-3.1c0.9-0.9,1.9-1.4,3.1-1.7c0.2,0,0.5-0.1,1-0.1
		c1.2,0,2.1,0.4,2.9,1.1c0.8,0.7,1.2,1.7,1.2,2.9c0,0.3,0,0.6-0.1,0.8l-1.3,7.3c-0.1,0.6,0,1,0.4,1.4c0.3,0.4,0.8,0.6,1.4,0.6
		c0.6,0,1.1-0.2,1.6-0.6c0.5-0.4,0.8-0.9,0.9-1.4l1.3-7.3c0.3-1.3,0.9-2.5,2.1-3.4C160.7,2311.8,161.9,2311.4,163.3,2311.4z"/>
	<path class="st1" d="M225,2307.3c1.3,0,2.3,0.4,3.2,1.2c0.8,0.8,1.2,1.9,1.2,3.1c0,0.3,0,0.6-0.1,0.9l-2.6,14.7
		c-0.3,1.6-1.9,2.4-4.8,2.4h-18.1c-3,0-5.5-0.4-7.3-1.3c-2-0.9-3-2.2-3-3.8c0-0.2,0-0.5,0.1-0.7l1.1-6.1c0.3-1.9,1.7-3.3,4.1-4.4
		c2.2-1,4.9-1.5,8.2-1.5h12c0.4-1.3,1.2-2.4,2.3-3.3C222.4,2307.7,223.6,2307.3,225,2307.3z M214.4,2325.6c0.6,0,1.1-0.2,1.6-0.6
		c0.5-0.4,0.8-0.9,0.9-1.4l1-5.6c0.1-0.6,0-1-0.4-1.4c-0.3-0.4-0.8-0.6-1.4-0.6H210c-2.9,0-4.5,0.8-4.8,2.4l-0.8,4.8
		c-0.3,1.6,1,2.4,4,2.4H214.4z"/>
	<path class="st1" d="M258.1,2311.9c3,0,5.5,0.4,7.3,1.3c2,0.9,3,2.2,3,3.8c0,0.2,0,0.5,0,0.7l-1.1,6.1c-0.3,1.9-1.7,3.3-4,4.4
		c-2.2,1-4.9,1.5-8.2,1.5h-11.3c-3,0-5.5-0.4-7.3-1.3c-2-0.9-3-2.2-3-3.8c0-0.2,0-0.5,0.1-0.7l1.1-6.1c0.3-1.9,1.7-3.3,4.1-4.4
		c2.2-1,4.9-1.5,8.2-1.5H258.1z M256.9,2322.2l0.5-2.9c0-0.2,0-0.3,0-0.5c0-0.8-0.4-1.5-1.1-2.1s-1.6-0.8-2.7-0.8h-3.8
		c-1.2,0-2.3,0.3-3.3,1c-1,0.7-1.5,1.5-1.7,2.4l-0.5,2.9c0,0.2,0,0.3,0,0.5c0,0.8,0.4,1.5,1.1,2.1s1.6,0.8,2.7,0.8h3.8
		c1.2,0,2.3-0.3,3.3-1C256.2,2324,256.8,2323.2,256.9,2322.2z"/>
	<path class="st1" d="M329.7,2316.1L329.7,2316.1l-2.9,16.6c-0.3,1.9-1.7,3.4-4.1,4.4c-2.2,1-4.9,1.5-8.2,1.5h-17.2
		c-0.6,0-1-0.2-1.3-0.6c-0.3-0.4-0.4-0.9-0.3-1.5c0.1-0.6,0.4-1,0.9-1.4c0.5-0.4,1-0.6,1.6-0.6h13.4c1.2,0,2.3-0.3,3.3-1
		c1-0.7,1.5-1.5,1.7-2.4l0.2-1.4h-11.9c-3,0-5.5-0.4-7.3-1.3c-2-0.9-3-2.2-3-3.8c0-0.2,0-0.5,0-0.7l1.3-7.1c0.3-1.5,1-2.7,2.2-3.7
		c1.2-1,2.6-1.6,4-1.6c1.3,0,2.4,0.4,3.2,1.3c0.8,0.8,1.2,1.9,1.2,3.1c0,0.3,0,0.6-0.1,0.9l-1.2,6.5c-0.3,1.6,1,2.4,4,2.4h6.1
		c0.6,0,1.1-0.2,1.6-0.6c0.5-0.4,0.8-0.9,0.9-1.4l1.2-6.9c0.3-1.5,1-2.7,2.2-3.8c1.2-1,2.6-1.6,4-1.6c1.4,0,2.5,0.5,3.3,1.4
		C329.4,2313.7,329.8,2314.8,329.7,2316.1z"/>
	<path class="st1" d="M360.4,2311.9c3,0,5.5,0.4,7.3,1.3c2,0.9,3,2.2,3,3.8c0,0.2,0,0.5,0,0.7l-1.1,6.1c-0.3,1.9-1.7,3.3-4,4.4
		c-2.2,1-4.9,1.5-8.2,1.5h-11.3c-3,0-5.5-0.4-7.3-1.3c-2-0.9-3-2.2-3-3.8c0-0.2,0-0.5,0.1-0.7l1.1-6.1c0.3-1.9,1.7-3.3,4.1-4.4
		c2.2-1,4.9-1.5,8.2-1.5H360.4z M359.2,2322.2l0.5-2.9c0-0.2,0-0.3,0-0.5c0-0.8-0.4-1.5-1.1-2.1s-1.6-0.8-2.7-0.8h-3.8
		c-1.2,0-2.3,0.3-3.3,1c-1,0.7-1.5,1.5-1.7,2.4l-0.5,2.9c0,0.2,0,0.3,0,0.5c0,0.8,0.4,1.5,1.1,2.1s1.6,0.8,2.7,0.8h3.8
		c1.2,0,2.3-0.3,3.3-1C358.5,2324,359,2323.2,359.2,2322.2z"/>
	<path class="st1" d="M384.1,2311.4c1.3,0,2.4,0.4,3.2,1.3c0.8,0.8,1.2,1.9,1.2,3.1c0,0.3,0,0.6-0.1,0.9l-1,5.5c0,0.2,0,0.3,0,0.5
		c0,0.8,0.4,1.5,1.1,2.1s1.6,0.8,2.7,0.8h6.1c0.6,0,1.1-0.2,1.6-0.6c0.5-0.4,0.8-0.9,0.9-1.4l1.2-6.9c0.3-1.5,1-2.7,2.2-3.8
		c1.2-1,2.6-1.6,4-1.6c1.3,0,2.4,0.4,3.2,1.2c0.8,0.8,1.2,1.9,1.2,3.1c0,0.3,0,0.6-0.1,0.9l-1.9,10.6c-0.3,1.6-1.9,2.4-4.8,2.4
		h-18.1c-3,0-5.5-0.4-7.3-1.3c-2-0.9-3-2.2-3-3.8c0-0.2,0-0.5,0-0.7l1.3-7.1c0.3-1.5,1-2.7,2.2-3.7
		C381.3,2311.9,382.6,2311.4,384.1,2311.4z"/>
	<path class="st1" d="M462.4,2325.6c0.6,0,1,0.2,1.3,0.6c0.3,0.4,0.4,0.9,0.3,1.4c-0.1,0.6-0.4,1.1-0.9,1.5c-0.5,0.4-1,0.6-1.6,0.6
		h-10.3c-3,0-5.5-0.4-7.3-1.3c-2-0.9-3-2.2-3-3.8c0-0.3,0-0.5,0.1-0.8l1.5-8.3h-3c-0.6,0-1-0.2-1.3-0.6c-0.3-0.4-0.4-0.9-0.3-1.5
		c0.1-0.6,0.4-1,0.9-1.4c0.5-0.4,1-0.6,1.6-0.6h3.1c0.5-1.2,1.3-2.2,2.4-3c1.1-0.8,2.3-1.2,3.5-1.2c1.3,0,2.3,0.4,3.1,1.2
		c0.8,0.8,1.3,1.8,1.3,3h11.1c0.6,0,1,0.2,1.3,0.6c0.3,0.4,0.4,0.9,0.3,1.4c-0.1,0.6-0.4,1-0.8,1.5s-1,0.6-1.6,0.6h-10.9l-1.2,6.7
		c0,0.2,0,0.3,0,0.5c0,0.8,0.4,1.5,1.1,2.1c0.7,0.6,1.6,0.8,2.7,0.8H462.4z"/>
	<path class="st1" d="M478.6,2311.4c1.3,0,2.4,0.4,3.2,1.3c0.8,0.8,1.2,1.9,1.2,3.1c0,0.3,0,0.6-0.1,0.9l-1,5.5c0,0.2,0,0.3,0,0.5
		c0,0.8,0.4,1.5,1.1,2.1s1.6,0.8,2.7,0.8h6.1c0.6,0,1.1-0.2,1.6-0.6c0.5-0.4,0.8-0.9,0.9-1.4l1.2-6.9c0.3-1.5,1-2.7,2.2-3.8
		c1.2-1,2.6-1.6,4-1.6c1.3,0,2.4,0.4,3.2,1.2c0.8,0.8,1.2,1.9,1.2,3.1c0,0.3,0,0.6-0.1,0.9l-1.9,10.6c-0.3,1.6-1.9,2.4-4.8,2.4
		h-18.1c-3,0-5.5-0.4-7.3-1.3c-2-0.9-3-2.2-3-3.8c0-0.2,0-0.5,0-0.7l1.3-7.1c0.3-1.5,1-2.7,2.2-3.7
		C475.8,2311.9,477.1,2311.4,478.6,2311.4z"/>
	<path class="st1" d="M537.1,2311.9c0.6,0,1,0.2,1.3,0.6c0.3,0.4,0.4,0.9,0.3,1.4c-0.1,0.6-0.4,1-0.9,1.4c-0.5,0.4-1,0.6-1.6,0.6
		h-8.3c-1.2,0-2.3,0.3-3.3,1c-1,0.7-1.6,1.5-1.7,2.4l-1,5.5c-0.3,1.5-1,2.7-2.2,3.7c-1.2,1-2.6,1.6-4,1.6c-1.3,0-2.4-0.4-3.2-1.2
		c-0.8-0.8-1.2-1.9-1.2-3.1c0-0.3,0-0.6,0.1-0.9l1.3-7.1c0.3-1.9,1.7-3.3,4.1-4.4c2.2-1,4.9-1.5,8.2-1.5H537.1z"/>
	<path class="st1" d="M568.6,2311.9c3,0,5.5,0.4,7.3,1.3c2,0.9,3,2.2,3,3.8c0,0.2,0,0.5-0.1,0.7l-1.2,6.7c-0.3,1.5-1,2.7-2.2,3.7
		s-2.6,1.6-4,1.6c-1.3,0-2.4-0.4-3.2-1.2c-0.8-0.8-1.2-1.9-1.2-3.1c0-0.3,0-0.6,0.1-0.9l0.9-5.1c0-0.2,0-0.3,0-0.5
		c0-0.8-0.4-1.5-1.1-2.1c-0.7-0.5-1.6-0.8-2.7-0.8H558c-0.6,0-1.1,0.2-1.6,0.6c-0.5,0.4-0.8,0.9-0.9,1.4l-1.1,6.4
		c-0.3,1.5-1,2.7-2.2,3.7c-1.2,1-2.6,1.6-4,1.6c-1.3,0-2.4-0.4-3.2-1.2c-0.8-0.8-1.2-1.9-1.2-3.1c0-0.3,0-0.6,0.1-0.9l1.8-10.2
		c0.3-1.6,1.9-2.4,4.8-2.4H568.6z"/>
	<path class="st1" d="M629.7,2325.6c0.6,0,1,0.2,1.3,0.6c0.3,0.4,0.4,0.9,0.3,1.4c-0.1,0.6-0.4,1.1-0.9,1.5s-1,0.6-1.6,0.6h-10.3
		c-3,0-5.5-0.4-7.3-1.3c-2-0.9-3-2.2-3-3.8c0-0.3,0-0.5,0.1-0.8l1.5-8.3h-3c-0.6,0-1-0.2-1.3-0.6c-0.3-0.4-0.4-0.9-0.3-1.5
		c0.1-0.6,0.4-1,0.9-1.4c0.5-0.4,1-0.6,1.6-0.6h3.1c0.5-1.2,1.3-2.2,2.4-3c1.1-0.8,2.3-1.2,3.5-1.2s2.3,0.4,3.1,1.2
		c0.8,0.8,1.3,1.8,1.3,3h11.1c0.6,0,1,0.2,1.3,0.6c0.3,0.4,0.4,0.9,0.3,1.4c-0.1,0.6-0.4,1-0.8,1.5s-1,0.6-1.6,0.6h-10.9l-1.2,6.7
		c0,0.2,0,0.3,0,0.5c0,0.8,0.4,1.5,1.1,2.1c0.7,0.6,1.6,0.8,2.7,0.8H629.7z"/>
	<path class="st1" d="M662.7,2311.9c3,0,5.5,0.4,7.3,1.3c2,0.9,3,2.2,3,3.8c0,0.2,0,0.5-0.1,0.7l-1.3,7.1c-0.3,1.5-1,2.7-2.2,3.7
		s-2.6,1.6-4,1.6c-1.3,0-2.3-0.4-3.2-1.2c-0.8-0.8-1.3-1.9-1.3-3.1c0-0.3,0-0.6,0.1-0.9l1-5.5c0-0.2,0-0.3,0-0.5
		c0-0.8-0.4-1.5-1.1-2.1c-0.7-0.5-1.6-0.8-2.7-0.8H650l-1.6,8.9c-0.3,1.5-1,2.7-2.2,3.7c-1.2,1-2.6,1.6-4,1.6
		c-1.3,0-2.3-0.4-3.2-1.2c-0.8-0.8-1.3-1.9-1.3-3.1c0-0.3,0-0.6,0.1-0.9l2.2-12.3c0.3-1.5,1-2.7,2.2-3.7c1.2-1,2.6-1.6,4-1.6
		c1.3,0,2.4,0.4,3.3,1.3c0.8,0.9,1.2,2,1.2,3.3H662.7z"/>
	<path class="st1" d="M684.6,2316.8c1.3,0,2.3,0.4,3.2,1.2c0.8,0.8,1.2,1.9,1.2,3.1c0,0.3,0,0.6-0.1,0.9l-0.5,2.8
		c-0.3,1.5-1,2.7-2.2,3.7c-1.2,1-2.5,1.6-4,1.6c-1.3,0-2.3-0.4-3.2-1.2c-0.8-0.8-1.2-1.9-1.2-3.1c0-0.3,0-0.6,0.1-0.9l0.5-2.8
		c0.3-1.5,1-2.7,2.2-3.7C681.8,2317.3,683.1,2316.8,684.6,2316.8z M685,2314.6c-1.4,0-2.5-0.3-3.4-0.9c-0.9-0.6-1.3-1.4-1.3-2.3
		c0-1.2,0.7-2.2,2.2-3c1.2-0.7,2.5-1,3.8-1c1.3,0,2.4,0.3,3.3,0.9c0.9,0.6,1.3,1.4,1.3,2.3c0,1.2-0.7,2.2-2.2,3
		C687.6,2314.2,686.3,2314.6,685,2314.6z"/>
	<path class="st1" d="M718.3,2318.7c6.9,0,10.3,1.5,10.3,4.6c0,0.2,0,0.5,0,0.7c-0.3,1.9-1.7,3.3-4.1,4.3c-2.2,0.9-4.9,1.4-8.2,1.4
		h-20.4c-0.6,0-1-0.2-1.4-0.6c-0.3-0.4-0.4-0.9-0.3-1.4c0.1-0.6,0.4-1,0.9-1.4s1-0.6,1.6-0.6h18.3c0.6,0,1.2-0.2,1.8-0.5
		c0.6-0.3,0.9-0.7,1-1.1c0.1-0.8-0.7-1.2-2.4-1.2h-9.1c-6.9,0-10.4-1.5-10.4-4.6c0-0.2,0-0.5,0.1-0.7c0.3-1.9,1.7-3.3,4-4.3
		c2.2-0.9,4.9-1.4,8.2-1.4h20.5c0.6,0,1,0.2,1.3,0.6c0.3,0.4,0.4,0.9,0.3,1.4c-0.1,0.6-0.4,1-0.9,1.4c-0.5,0.4-1,0.6-1.6,0.6h-18.3
		c-0.6,0-1.2,0.2-1.8,0.5s-0.9,0.7-1,1.1c-0.2,0.8,0.6,1.2,2.3,1.2H718.3z"/>
	<path class="st1" d="M779.8,2325.6c0.6,0,1,0.2,1.3,0.6c0.3,0.4,0.4,0.9,0.3,1.4c-0.1,0.6-0.4,1.1-0.9,1.5s-1,0.6-1.6,0.6h-10.3
		c-3,0-5.5-0.4-7.3-1.3c-2-0.9-3-2.2-3-3.8c0-0.3,0-0.5,0.1-0.8l1.5-8.3h-3c-0.6,0-1-0.2-1.3-0.6c-0.3-0.4-0.4-0.9-0.3-1.5
		c0.1-0.6,0.4-1,0.9-1.4c0.5-0.4,1-0.6,1.6-0.6h3.1c0.5-1.2,1.3-2.2,2.4-3c1.1-0.8,2.3-1.2,3.5-1.2s2.3,0.4,3.1,1.2
		c0.8,0.8,1.3,1.8,1.3,3h11.1c0.6,0,1,0.2,1.3,0.6c0.3,0.4,0.4,0.9,0.3,1.4c-0.1,0.6-0.4,1-0.8,1.5s-1,0.6-1.6,0.6h-10.9l-1.2,6.7
		c0,0.2,0,0.3,0,0.5c0,0.8,0.4,1.5,1.1,2.1c0.7,0.6,1.6,0.8,2.7,0.8H779.8z"/>
	<path class="st1" d="M812.7,2311.9c3,0,5.5,0.4,7.3,1.3c2,0.9,3,2.2,3,3.8c0,0.2,0,0.5-0.1,0.7l-1.3,7.1c-0.3,1.5-1,2.7-2.2,3.7
		s-2.6,1.6-4,1.6c-1.3,0-2.3-0.4-3.2-1.2c-0.8-0.8-1.3-1.9-1.3-3.1c0-0.3,0-0.6,0.1-0.9l1-5.5c0-0.2,0-0.3,0-0.5
		c0-0.8-0.4-1.5-1.1-2.1c-0.7-0.5-1.6-0.8-2.7-0.8H800l-1.6,8.9c-0.3,1.5-1,2.7-2.2,3.7c-1.2,1-2.6,1.6-4,1.6
		c-1.3,0-2.3-0.4-3.2-1.2c-0.8-0.8-1.3-1.9-1.3-3.1c0-0.3,0-0.6,0.1-0.9l2.2-12.3c0.3-1.5,1-2.7,2.2-3.7c1.2-1,2.6-1.6,4-1.6
		c1.3,0,2.4,0.4,3.3,1.3c0.8,0.9,1.2,2,1.2,3.3H812.7z"/>
	<path class="st1" d="M834.6,2316.8c1.3,0,2.3,0.4,3.2,1.2c0.8,0.8,1.2,1.9,1.2,3.1c0,0.3,0,0.6-0.1,0.9l-0.5,2.8
		c-0.3,1.5-1,2.7-2.2,3.7c-1.2,1-2.5,1.6-4,1.6c-1.3,0-2.3-0.4-3.2-1.2c-0.8-0.8-1.2-1.9-1.2-3.1c0-0.3,0-0.6,0.1-0.9l0.5-2.8
		c0.3-1.5,1-2.7,2.2-3.7C831.8,2317.3,833.2,2316.8,834.6,2316.8z M835,2314.6c-1.4,0-2.5-0.3-3.4-0.9c-0.9-0.6-1.3-1.4-1.3-2.3
		c0-1.2,0.7-2.2,2.2-3c1.2-0.7,2.5-1,3.8-1c1.3,0,2.4,0.3,3.3,0.9c0.9,0.6,1.3,1.4,1.3,2.3c0,1.2-0.7,2.2-2.2,3
		C837.6,2314.2,836.3,2314.6,835,2314.6z"/>
	<path class="st1" d="M870.7,2311.9c3,0,5.5,0.4,7.3,1.3c2,0.9,3,2.2,3,3.8c0,0.2,0,0.5-0.1,0.7l-1.2,6.7c-0.3,1.5-1,2.7-2.2,3.7
		s-2.6,1.6-4,1.6c-1.3,0-2.4-0.4-3.2-1.2c-0.8-0.8-1.2-1.9-1.2-3.1c0-0.3,0-0.6,0.1-0.9l0.9-5.1c0-0.2,0-0.3,0-0.5
		c0-0.8-0.4-1.5-1.1-2.1c-0.7-0.5-1.6-0.8-2.7-0.8h-6.1c-0.6,0-1.1,0.2-1.6,0.6c-0.5,0.4-0.8,0.9-0.9,1.4l-1.1,6.4
		c-0.3,1.5-1,2.7-2.2,3.7c-1.2,1-2.6,1.6-4,1.6c-1.3,0-2.4-0.4-3.2-1.2c-0.8-0.8-1.2-1.9-1.2-3.1c0-0.3,0-0.6,0.1-0.9l1.8-10.2
		c0.3-1.6,1.9-2.4,4.8-2.4H870.7z"/>
	<path class="st1" d="M918.8,2310.8c2.9,0,4.2,0.8,4,2.4l-3.5,19.5c-0.3,1.9-1.7,3.4-4,4.4c-2.2,1-4.9,1.5-8.2,1.5h-17.2
		c-0.6,0-1-0.2-1.3-0.6c-0.3-0.4-0.4-0.9-0.3-1.5c0.1-0.6,0.4-1,0.9-1.4c0.5-0.4,1-0.6,1.6-0.6H904c1.2,0,2.3-0.3,3.3-1
		c1-0.7,1.5-1.5,1.7-2.4l0.3-1.4h-11.9c-3,0-5.5-0.4-7.3-1.3c-2-0.9-3-2.2-3-3.8c0-0.2,0-0.5,0.1-0.7l1.2-7.1
		c0.3-1.9,1.7-3.4,4.1-4.4c2.2-1,4.9-1.5,8.2-1.5H918.8z M907.9,2325.6c0.6,0,1.1-0.2,1.6-0.6s0.8-0.9,0.9-1.4l1.2-6.6
		c0.1-0.6,0-1.1-0.3-1.5c-0.3-0.4-0.8-0.6-1.3-0.6h-6.1c-2.9,0-4.5,0.8-4.8,2.4l-1,5.8c-0.3,1.6,1,2.4,4,2.4H907.9z"/>
	<path class="st1" d="M973.6,2311.9c3,0,5.5,0.4,7.3,1.3c2,0.9,3,2.2,3,3.8c0,0.2,0,0.5,0,0.7l-1.1,6.1c-0.3,1.9-1.7,3.3-4,4.4
		c-2.2,1-4.9,1.5-8.2,1.5h-11.3c-3,0-5.5-0.4-7.3-1.3c-2-0.9-3-2.2-3-3.8c0-0.2,0-0.5,0.1-0.7l1.1-6.1c0.3-1.9,1.7-3.3,4.1-4.4
		c2.2-1,4.9-1.5,8.2-1.5H973.6z M972.4,2322.2l0.5-2.9c0-0.2,0-0.3,0-0.5c0-0.8-0.4-1.5-1.1-2.1s-1.6-0.8-2.7-0.8h-3.8
		c-1.2,0-2.3,0.3-3.3,1s-1.5,1.5-1.7,2.4l-0.5,2.9c0,0.2,0,0.3,0,0.5c0,0.8,0.4,1.5,1.1,2.1s1.6,0.8,2.7,0.8h3.8
		c1.2,0,2.3-0.3,3.3-1S972.2,2323.2,972.4,2322.2z"/>
	<path class="st1" d="M1014.5,2311.9c3,0,5.5,0.4,7.3,1.3c2,0.9,3,2.2,3,3.8c0,0.2,0,0.5-0.1,0.7l-1.2,6.7c-0.3,1.5-1,2.7-2.2,3.7
		s-2.6,1.6-4,1.6c-1.3,0-2.4-0.4-3.2-1.2c-0.8-0.8-1.2-1.9-1.2-3.1c0-0.3,0-0.6,0.1-0.9l0.9-5.1c0-0.2,0-0.3,0-0.5
		c0-0.8-0.4-1.5-1.1-2.1c-0.7-0.5-1.6-0.8-2.7-0.8h-6.1c-0.6,0-1.1,0.2-1.6,0.6c-0.5,0.4-0.8,0.9-0.9,1.4l-1.1,6.4
		c-0.3,1.5-1,2.7-2.2,3.7c-1.2,1-2.6,1.6-4,1.6c-1.3,0-2.4-0.4-3.2-1.2c-0.8-0.8-1.2-1.9-1.2-3.1c0-0.3,0-0.6,0.1-0.9l1.8-10.2
		c0.3-1.6,1.9-2.4,4.8-2.4H1014.5z"/>
	<path class="st1" d="M1049,2307.6c6.9,0,10.4,1.4,10.4,4.3c0,0.2,0,0.5-0.1,0.7c-0.3,1.8-1.7,3.1-4,3.8c-1.8,0.6-4.5,0.8-8.1,0.8
		c-1.7,0-2.6,0.4-2.8,1.2h-0.1c0,0.2,0,0.3,0,0.4c-0.1,0.7-0.8,1.4-1.9,1.9s-2.4,0.8-3.9,0.8s-2.7-0.3-3.6-0.8
		c-0.9-0.5-1.4-1.2-1.2-1.9c0-0.1,0.1-0.2,0.2-0.4h-0.1c0.6-3.5,4.6-5.3,11.9-5.3c2,0,2.6,0,1.7,0c0.6,0,0.9-0.2,1-0.6
		c0.1-0.6-0.7-0.9-2.4-0.9h-18.3c-0.6,0-1-0.2-1.3-0.6c-0.3-0.4-0.4-0.9-0.3-1.4s0.4-1,0.9-1.4c0.5-0.4,1-0.6,1.6-0.6H1049z
		 M1038.4,2322.9c1.3,0,2.4,0.3,3.3,0.9c0.9,0.6,1.3,1.4,1.3,2.3c0,1.2-0.7,2.2-2.2,3c-1.2,0.7-2.5,1-3.8,1c-1.4,0-2.5-0.3-3.4-0.9
		c-0.9-0.6-1.3-1.4-1.3-2.3c0-1.2,0.7-2.2,2.2-3C1035.8,2323.2,1037.1,2322.9,1038.4,2322.9z"/>
	<path class="st1" d="M1088.4,2307.6c6.9,0,10.4,1.4,10.4,4.3c0,0.2,0,0.5-0.1,0.7c-0.3,1.8-1.7,3.1-4,3.8c-1.8,0.6-4.5,0.8-8.1,0.8
		c-1.7,0-2.6,0.4-2.8,1.2h-0.1c0,0.2,0,0.3,0,0.4c-0.1,0.7-0.8,1.4-1.9,1.9s-2.4,0.8-3.9,0.8s-2.7-0.3-3.6-0.8
		c-0.9-0.5-1.4-1.2-1.2-1.9c0-0.1,0.1-0.2,0.2-0.4h-0.1c0.6-3.5,4.6-5.3,11.9-5.3c2,0,2.6,0,1.7,0c0.6,0,0.9-0.2,1-0.6
		c0.1-0.6-0.7-0.9-2.4-0.9h-18.3c-0.6,0-1-0.2-1.3-0.6c-0.3-0.4-0.4-0.9-0.3-1.4s0.4-1,0.9-1.4c0.5-0.4,1-0.6,1.6-0.6H1088.4z
		 M1077.8,2322.9c1.3,0,2.4,0.3,3.3,0.9c0.9,0.6,1.3,1.4,1.3,2.3c0,1.2-0.7,2.2-2.2,3c-1.2,0.7-2.5,1-3.8,1c-1.4,0-2.5-0.3-3.4-0.9
		c-0.9-0.6-1.3-1.4-1.3-2.3c0-1.2,0.7-2.2,2.2-3C1075.2,2323.2,1076.5,2322.9,1077.8,2322.9z"/>
</g>
<g>
	<path class="st2" d="M126.5,1237.6v70.7h71.2v23.4H94.4v-94H126.5z"/>
	<path class="st2" d="M315.9,1237.2v21.4h-76.5v13.9h74.7v21.5h-74.7v15.5h77.9v21.9H207.6v-94.3H315.9z"/>
	<path class="st2" d="M368.8,1259.8h-44.1v-22.2h120.7v22.2h-44.2v71.8h-32.4V1259.8z"/>
	<path class="st2" d="M467.3,1241.3l-12.4-16.3h26.8l10.4,16.3H467.3z"/>
	<path class="st2" d="M564.8,1333.3c-10.2,0-19.1-0.8-26.7-2.4c-7.6-1.6-13.5-3.5-17.6-5.8c-4.1-2.3-7.4-5-9.9-8.3
		c-2.4-3.2-4-6.2-4.7-8.8c-0.7-2.6-1-5.4-1-8.3v-1.4h33.5c0.7,9.9,8,14.9,27.5,14.9h7.4c6.4,0,9.2-0.3,13.4-0.8s7.3-1.3,9.2-2.3
		c1.9-1,3.2-2,3.9-3.1s1-2.3,1-3.7c0-2-0.6-3.6-1.7-4.8s-3.7-2.2-7.7-3.1c-4-0.9-9.9-1.4-17.5-1.6l-10.1-0.2l-7.5-0.2
		c-33.3-0.8-50-10-50-27.6v-1.1c0-3,0.4-5.8,1.2-8.4c0.8-2.6,2.5-5.1,5-7.7c2.5-2.6,5.7-4.7,9.7-6.5s9.4-3.2,16.2-4.4
		c6.8-1.1,14.7-1.7,23.7-1.7h9.5c9.4,0,17.6,0.6,24.8,1.8s12.9,2.7,17.2,4.5c4.3,1.9,7.8,4.1,10.5,6.8c2.7,2.7,4.6,5.4,5.6,8
		c1,2.7,1.5,5.5,1.5,8.5v1.3h-33.3c-0.2-1-0.4-1.9-0.8-2.6c-0.3-0.7-1.1-1.7-2.3-2.8c-1.2-1.2-2.8-2.1-4.7-2.9
		c-1.9-0.8-4.8-1.4-8.6-2s-6.7-0.9-11.8-0.9h-4.8c-7.7,0-12.6,0.4-16.7,1.3c-4.1,0.9-6.6,1.8-7.5,2.8c-0.9,1-1.3,2.3-1.3,4
		c0,1.6,0.5,2.9,1.4,3.9c1,1,3.3,1.9,6.9,2.8s8.7,1.3,15.4,1.4l7.5,0.1l9.7,0.1c19.1,0.3,32.9,2.7,41.4,7.1
		c8.5,4.4,12.7,11.4,12.7,20.8v1.8c0,3.5-0.4,6.6-1.2,9.3c-0.8,2.7-2.5,5.5-5.1,8.4c-2.6,2.9-6,5.3-10.3,7.2
		c-4.3,1.9-10.1,3.5-17.5,4.7s-16.1,1.8-26,1.8L564.8,1333.3L564.8,1333.3z"/>
	<path class="st2" d="M782.9,1333.1c-10.6,0-20.1-1.1-28.3-3.2c-8.2-2.1-14.8-4.8-19.7-8s-8.9-7-12-11.3c-3.1-4.3-5.2-8.5-6.4-12.5
		s-1.7-8-1.7-12.2v-3.5c0-4.1,0.5-8.1,1.4-11.9c1-3.8,3-7.9,6-12.2c3.1-4.3,7-8.1,11.9-11.2c4.9-3.2,11.6-5.8,20.1-7.9
		s18.5-3.2,29.8-3.2h5.9c10.9,0,20.5,0.8,28.9,2.5c8.3,1.7,14.9,3.8,19.6,6.2c4.7,2.5,8.6,5.4,11.6,8.8s5,6.5,6,9.3
		c1,2.8,1.6,5.7,1.7,8.6v0.1h-34.1c-3.4-8.9-15.5-13.4-36.4-13.4c-25.9,0-38.9,8.4-38.9,25.3v1.4c0,6.9,3.2,12.8,9.6,17.8
		c6.4,5,16.1,7.4,29.1,7.4c5.7,0,10.9-0.4,15.7-1.1c4.8-0.8,8.6-1.7,11.4-2.8c2.8-1.1,5.2-2.3,7.2-3.6c2-1.3,3.3-2.5,4.1-3.5
		c0.8-1,1.2-1.8,1.2-2.4v-0.3h-40.1v-17.8h72v52.6h-23.1c0,0-0.2-8.4-0.3-14.6c-10.3,10.8-26.7,16.3-49.2,16.3H782.9z"/>
	<path class="st2" d="M981.2,1237.2v21.4h-76.5v13.9h74.7v21.5h-74.7v15.5h77.9v21.9H872.9v-94.3H981.2z"/>
	<path class="st2" d="M1034.1,1259.8H990v-22.2h120.7v22.2h-44.2v71.8h-32.4V1259.8z"/>
</g>
<g>
	<path class="st1" d="M144.5,1461.3c-10.2,0-19.1-0.8-26.7-2.4c-7.6-1.6-13.5-3.5-17.6-5.8c-4.1-2.3-7.4-5-9.9-8.3
		c-2.4-3.2-4-6.2-4.7-8.8c-0.7-2.6-1-5.4-1-8.3v-1.4H118c0.7,9.9,8,14.9,27.5,14.9h7.4c6.4,0,9.2-0.3,13.4-0.8s7.3-1.3,9.2-2.3
		c1.9-1,3.2-2,3.9-3.1s1-2.3,1-3.7c0-2-0.6-3.6-1.7-4.8c-1.1-1.2-3.7-2.2-7.7-3.1c-4-0.9-9.9-1.4-17.5-1.6l-10.1-0.2l-7.5-0.2
		c-33.3-0.8-50-10-50-27.6v-1.1c0-3,0.4-5.8,1.2-8.4c0.8-2.6,2.5-5.1,5-7.7c2.5-2.6,5.7-4.7,9.7-6.5s9.4-3.2,16.2-4.4
		c6.8-1.1,14.7-1.7,23.7-1.7h9.5c9.4,0,17.6,0.6,24.8,1.8c7.2,1.2,12.9,2.7,17.2,4.5c4.3,1.9,7.8,4.1,10.5,6.8
		c2.7,2.7,4.6,5.4,5.6,8c1,2.7,1.5,5.5,1.5,8.5v1.3h-33.3c-0.2-1-0.4-1.9-0.8-2.6c-0.3-0.7-1.1-1.7-2.3-2.8
		c-1.2-1.2-2.8-2.1-4.7-2.9c-1.9-0.8-4.8-1.4-8.6-2c-3.8-0.6-6.7-0.9-11.8-0.9h-4.8c-7.7,0-12.6,0.4-16.7,1.3
		c-4.1,0.9-6.6,1.8-7.5,2.8c-0.9,1-1.3,2.3-1.3,4c0,1.6,0.5,2.9,1.4,3.9c1,1,3.3,1.9,6.9,2.8s8.7,1.3,15.4,1.4l7.5,0.1l9.7,0.1
		c19.1,0.3,32.9,2.7,41.4,7.1c8.5,4.4,12.7,11.4,12.7,20.8v1.8c0,3.5-0.4,6.6-1.2,9.3c-0.8,2.7-2.5,5.5-5.1,8.4
		c-2.6,2.9-6,5.3-10.3,7.2c-4.3,1.9-10.1,3.5-17.5,4.7c-7.4,1.2-16.1,1.8-26,1.8L144.5,1461.3L144.5,1461.3z"/>
	<path class="st1" d="M263.9,1387.9h-44.1v-22.2h120.7v22.2h-44.2v71.8h-32.4V1387.9z"/>
	<path class="st1" d="M473.3,1459.5h-31.5l-8.8-17h-67l-8.8,17h-31.5l50-93h47.7L473.3,1459.5z M376.8,1421.5h45.4l-17.7-34.1h-10
		L376.8,1421.5L376.8,1421.5z"/>
	<path class="st1" d="M596.8,1434.1v25.5h-29.2v-16.5c0-5.7-1.5-9.9-4.4-12.4c-2.9-2.6-7.9-3.9-15-3.9h-38v32.8h-29.1v-92.5h74.9
		c26.9,0,40.3,8,40.3,24v1.5c0,9.8-5.7,16.5-17.2,20.3c5.2,1.5,9.5,4,12.7,7.5C595.2,1423.9,596.8,1428.5,596.8,1434.1z
		 M566.1,1397.1c0-2.7-1-4.8-2.9-6.5c-1.9-1.7-4.9-2.5-8.9-2.5h-44.1v18.2h44.1c4,0,6.9-0.8,8.9-2.5c1.9-1.7,2.9-3.9,2.9-6.6V1397.1
		z"/>
	<path class="st1" d="M648.5,1387.9h-44.1v-22.2h120.7v22.2h-44.2v71.8h-32.4V1387.9z"/>
	<path d="M842.9,1365.3v21.4h-76.5v13.9h74.7v21.5h-74.7v15.5h77.9v21.9H734.6v-94.3H842.9z"/>
	<path d="M926.6,1365.3c9.6,0,18.2,0.6,26,1.8c7.7,1.2,14.2,2.9,19.3,5.1c5.2,2.2,9.6,4.7,13.3,7.5s6.5,5.8,8.4,9.3
		c1.9,3.5,3.3,6.9,4.2,10.2c0.9,3.3,1.3,6.9,1.3,10.7v3.8c0,4.5-0.6,8.7-1.7,12.6c-1.1,3.9-3.3,8-6.6,12.2
		c-3.3,4.2-7.5,7.8-12.6,10.8c-5.2,3-12.2,5.4-21,7.3s-19,2.9-30.5,2.9h-68.2v-94.3H926.6z M890.7,1436.9h33.4
		c27.5,0,41.3-8.1,41.3-24.3v-0.8c0-16.1-13.8-24.2-41.3-24.2h-33.4V1436.9z"/>
	<path d="M1040.4,1377.5l-8,54.9h-15.5l-8-54.9H1040.4z M1038.6,1456.4h-28v-18.6h28V1456.4z"/>
</g>
<rect x="158.4" y="1167.7" class="st1" width="966.6" height="14.4"/>
<g>
	<path d="M833.7,906.6c-7.1,0-13.3-0.7-18.8-2.1c-5.5-1.4-9.8-3.2-13.1-5.3c-3.3-2.1-5.9-4.7-8-7.5c-2.1-2.9-3.5-5.6-4.2-8.3
		s-1.1-5.3-1.1-8.1V873c0-2.7,0.3-5.4,1-7.9c0.6-2.5,2-5.2,4-8.1c2-2.9,4.7-5.4,7.9-7.5c3.2-2.1,7.7-3.8,13.4-5.2
		c5.7-1.4,12.3-2.1,19.8-2.1h3.9c7.2,0,13.6,0.6,19.2,1.7c5.5,1.1,9.9,2.5,13,4.1c3.1,1.6,5.7,3.6,7.7,5.9c2,2.3,3.3,4.3,4,6.2
		c0.7,1.9,1,3.8,1.1,5.7v0.1h-22.6c-2.3-5.9-10.3-8.9-24.2-8.9c-17.2,0-25.8,5.6-25.8,16.8v0.9c0,4.6,2.1,8.5,6.3,11.8
		c4.2,3.3,10.7,4.9,19.3,4.9c3.8,0,7.2-0.3,10.4-0.8c3.2-0.5,5.7-1.1,7.6-1.8s3.5-1.5,4.8-2.4c1.3-0.9,2.2-1.6,2.7-2.3
		c0.5-0.7,0.8-1.2,0.8-1.6v-0.2H836v-11.8h47.8v34.9h-15.3c0,0-0.1-5.6-0.2-9.7c-6.8,7.2-17.7,10.8-32.7,10.8H833.7z"/>
	<path d="M914.6,905.5h-21.3v-62.3h21.3V905.5z"/>
	<path d="M995.4,843.2v14.2h-49v9.2h47.8v14.2h-47.8v24.7h-21.2v-62.3H995.4z"/>
	<path d="M1032.2,906.6c-21,0-31.6-5.3-31.6-16v-0.5h21c0,4.1,4.2,6.1,12.6,6.1h0.2c3.5,0,6.3-0.2,8.3-0.7c2-0.4,3.2-0.9,3.7-1.5
		s0.7-1.3,0.7-2.1v-0.2c0-1.3-0.7-2.2-2.1-2.8c-1.4-0.6-4.3-1-8.7-1.1l-8.8-0.2c-5.1-0.1-9.5-0.6-13.1-1.4c-3.6-0.8-6.4-2-8.2-3.3
		c-1.9-1.4-3.2-2.8-4-4.4c-0.8-1.5-1.2-3.2-1.2-4.9v-0.5c0-1.6,0.2-3,0.6-4.2c0.4-1.2,1.2-2.5,2.6-3.8c1.3-1.3,3.1-2.3,5.2-3.2
		c2.2-0.8,5.2-1.5,9-2.1c3.8-0.6,8.4-0.8,13.6-0.8h3.6c20.5,0,30.7,4.7,30.7,14.1v0.6h-20.7c-0.1-0.6-0.3-1-0.5-1.5
		c-0.2-0.4-0.7-0.9-1.5-1.4c-0.7-0.5-2-0.9-3.7-1.3c-1.7-0.3-3.9-0.5-6.4-0.5h-0.1c-4.6,0-7.7,0.3-9.3,0.8c-1.6,0.5-2.4,1.4-2.4,2.6
		v0.2c0,1.1,0.7,2,2.2,2.6c1.5,0.6,4.2,0.9,8.1,1l8.8,0.2c7.4,0.1,13.1,0.8,17.1,1.9c4.1,1.2,6.8,2.7,8.2,4.6
		c1.4,1.9,2.1,4.4,2.1,7.7v0.5c0,2.3-0.4,4.3-1.3,6c-0.9,1.7-2.4,3.3-4.7,4.8c-2.2,1.5-5.5,2.7-10,3.5c-4.4,0.8-9.9,1.2-16.4,1.2
		L1032.2,906.6L1032.2,906.6z"/>
</g>
<g>
	<path d="M265,1057.9v20.8h-21.3v-62.4h51.1c21.2,0,31.7,6.8,31.7,20.3v0.8c0,13.7-10.6,20.5-31.7,20.5H265z M265,1043.9h29.4
		c6.6,0,9.9-2.2,9.9-6.5v-0.3c0-4.4-3.3-6.6-9.9-6.6H265V1043.9z"/>
	<path d="M332.9,1016.2h20.3v24.8c6.2-5.7,14.3-8.5,24.2-8.5h0.6c7.9,0,13.9,1.7,17.9,5.1c4,3.4,6,7.6,6,12.4v28.4h-20.5v-22.3
		c0-3.6-1.1-6.3-3.3-8.3s-5.5-2.9-9.9-2.9c-4.6,0-8.2,1.1-10.9,3.3c-2.7,2.2-4.1,5.2-4.1,8.9v21.3h-20.3V1016.2z"/>
	<path d="M444.5,1078.9c-5.5,0-10.3-0.5-14.5-1.5c-4.2-1-7.6-2.2-10.2-3.7c-2.6-1.5-4.7-3.3-6.3-5.4c-1.6-2.1-2.8-4.2-3.4-6.2
		c-0.6-2-0.9-4.2-0.9-6.4v-1.5c0-2.2,0.3-4.4,0.9-6.4c0.6-2,1.7-4,3.3-6.1c1.6-2.1,3.7-3.8,6.2-5.3c2.6-1.5,5.9-2.7,10.2-3.6
		c4.2-0.9,9.1-1.4,14.5-1.4h6.5c23.4,0,35.1,7.6,35.1,22.8v1.5c0,15.5-11.7,23.3-35.1,23.3H444.5z M461.3,1063.4
		c2.7-2.3,4.1-5,4.1-8.2v-0.4c0-3.2-1.4-5.9-4.1-8.1s-7.2-3.3-13.5-3.3h-0.1c-6.4,0-10.9,1.1-13.6,3.2s-4.1,4.9-4.1,8.2v0.4
		c0,3.2,1.4,5.9,4.1,8.2s7.3,3.4,13.6,3.4C454.1,1066.8,458.6,1065.6,461.3,1063.4z"/>
	<path d="M515.2,1078.3c-8.1,0-12.1-4.3-12.1-12.8v-19.8h-9.6v-12.4h9.6v-13.1h20.1v13.1h9.7v12.4h-9.7v16.3c0,1.3,0.3,2.3,0.8,3
		c0.5,0.6,1.6,1,3.3,1h5.6v12.4L515.2,1078.3L515.2,1078.3z"/>
	<path d="M575.4,1078.9c-5.5,0-10.3-0.5-14.5-1.5c-4.2-1-7.6-2.2-10.2-3.7c-2.6-1.5-4.7-3.3-6.3-5.4c-1.6-2.1-2.8-4.2-3.4-6.2
		c-0.6-2-0.9-4.2-0.9-6.4v-1.5c0-2.2,0.3-4.4,0.9-6.4c0.6-2,1.7-4,3.3-6.1c1.6-2.1,3.7-3.8,6.2-5.3c2.6-1.5,5.9-2.7,10.2-3.6
		c4.2-0.9,9.1-1.4,14.5-1.4h6.5c23.4,0,35.1,7.6,35.1,22.8v1.5c0,15.5-11.7,23.3-35.1,23.3H575.4z M592.1,1063.4
		c2.7-2.3,4.1-5,4.1-8.2v-0.4c0-3.2-1.4-5.9-4.1-8.1c-2.7-2.2-7.2-3.3-13.5-3.3h-0.1c-6.4,0-10.9,1.1-13.6,3.2s-4.1,4.9-4.1,8.2v0.4
		c0,3.2,1.4,5.9,4.1,8.2c2.7,2.3,7.3,3.4,13.6,3.4C584.9,1066.8,589.4,1065.6,592.1,1063.4z"/>
	<path d="M698.9,1031.3v40.2c0,2.1-0.2,4.1-0.7,6.2c-0.4,2.1-1.4,4.4-2.9,7c-1.5,2.6-3.4,4.8-5.8,6.8c-2.4,1.9-5.8,3.5-10.1,4.8
		c-4.4,1.3-9.4,2-15.2,2H621V1085h42.2c10.1-0.6,15.2-5.3,15.2-14.1c-5.6,4.9-13.6,7.4-24.1,7.4h-1.1c-10.9,0-19-2.2-24.3-6.6
		c-5.3-4.4-7.9-10-7.9-16.9v-1.8c0-6.6,2.4-12,7.2-16.4c4.8-4.3,12.3-6.5,22.5-6.5h1.9c11.6,0,20.1,2.6,25.7,7.8v-6.6H698.9z
		 M677.9,1054.1c0-3.2-1.6-5.8-4.8-8c-3.2-2.1-7.8-3.2-13.9-3.2h-0.6c-6.1,0-10.4,1-13,3.1c-2.6,2.1-3.9,4.7-3.9,7.9v0.4
		c0,3.2,1.4,5.9,4.1,8.1c2.7,2.2,7,3.3,12.8,3.3h0.6c6.1,0,10.7-1.1,13.9-3.3c3.2-2.2,4.8-4.9,4.8-8V1054.1z"/>
	<path d="M766.9,1031.2v10.7c0,0-27.1,0-29.5,0.2c-2.3,0.3-5.8,2.3-7.6,4.5c-1.8,2.1-2.7,4.8-2.7,7.9v23.8H708v-46.1h19v8.1
		c0.8-1.2,1.8-2.4,3-3.6c1.2-1.2,3.3-2.4,6.1-3.7c2.9-1.3,6.1-1.9,9.6-1.9H766.9z"/>
	<path d="M838.6,1066.6v12.6h-15.6c-4.2,0-6.7-2.1-7.3-6.4c-1.4,1.8-3.9,3.4-7.3,4.9c-3.5,1.5-8.2,2.3-14.2,2.3H793
		c-7.3,0-12.7-1.4-16.3-4.3c-3.5-2.9-5.3-6.5-5.3-10.8v-0.6c0-4.2,1.5-7.5,4.5-9.6c3-2.2,8-3.6,15-4.2l21.3-2c2-0.2,2.9-1,2.9-2.4
		c0-0.7-0.2-1.3-0.6-1.8c-0.4-0.5-1.5-0.9-3.4-1.3c-1.9-0.4-4.6-0.6-8.1-0.6l-31.6,0.1v-10.7H805c5.2,0,9.6,0.3,13.3,0.9
		c3.7,0.6,6.5,1.4,8.5,2.3c2,0.9,3.5,2.1,4.6,3.6c1.1,1.5,1.8,2.8,2,3.9c0.2,1.1,0.3,2.6,0.3,4.2v17.7c0,1.5,0.8,2.3,2.4,2.3H838.6z
		 M815.1,1057.2l-18.4,2.8c-2.6,0.4-4.4,0.9-5.4,1.5c-1,0.6-1.6,1.5-1.6,2.8v0.1c0,1.4,0.7,2.7,2,3.7c1.3,1,3.5,1.5,6.5,1.5
		c5,0,9-1.1,12.2-3.4c3.2-2.2,4.8-4.8,4.8-7.7V1057.2z"/>
	<path d="M865.3,1032.6v6.4c6.3-5,14.6-7.5,24.9-7.5h1.6c5.4,0,10.1,0.6,14,1.8c3.9,1.2,7,2.8,9.2,4.9s3.8,4.5,4.9,7.1
		c1,2.6,1.6,5.5,1.6,8.8v1.6c0,3.1-0.5,6-1.6,8.6c-1.1,2.6-2.7,5-5,7.3c-2.3,2.2-5.4,4-9.4,5.2c-4,1.3-8.8,1.9-14.2,1.9h-1.5
		c-6.3,0-11.5-0.9-15.8-2.6c-4.3-1.7-7.2-3.3-8.6-4.9v22.1H845v-60.7H865.3z M865.3,1055.1c0,3.1,1.6,5.9,4.7,8.2
		c3.2,2.3,7.6,3.5,13.4,3.5h0.5c6,0,10.2-1.1,12.9-3.4c2.6-2.3,3.9-5,3.9-8.3v-0.3c0-3.3-1.3-6.1-3.9-8.3c-2.6-2.2-6.9-3.3-12.9-3.3
		h-0.5c-6,0-10.5,1.1-13.5,3.4c-3.1,2.3-4.6,5-4.6,8.2V1055.1z"/>
	<path d="M930.6,1016.2H951v24.8c6.2-5.7,14.3-8.5,24.2-8.5h0.6c7.9,0,13.9,1.7,17.9,5.1s6,7.6,6,12.4v28.4h-20.5v-22.3
		c0-3.6-1.1-6.3-3.3-8.3s-5.5-2.9-9.9-2.9c-4.6,0-8.2,1.1-10.9,3.3c-2.7,2.2-4.1,5.2-4.1,8.9v21.3h-20.3V1016.2z"/>
	<path d="M1076.5,1034.8l-25.2,51c-2.4,4.7-4.9,8.2-7.5,10.3c-2.6,2.1-6,3.2-10.2,3.2h-29v-14.2l22.9,0c1.5,0,2.3-0.5,2.3-1.5
		c0-0.5-0.7-2.2-2.2-5.1l-23-43.8h21.4l15.5,32.4l15-32.4H1076.5z"/>
</g>
<g>
	<path d="M106.3,1706c-7.1,0-13.3-0.7-18.8-2.1c-5.5-1.4-9.8-3.2-13.1-5.3c-3.3-2.1-5.9-4.7-8-7.5c-2.1-2.9-3.5-5.6-4.2-8.3
		s-1.1-5.3-1.1-8.1v-2.3c0-2.7,0.3-5.4,1-7.9c0.6-2.5,2-5.2,4-8.1c2-2.9,4.7-5.4,7.9-7.5c3.2-2.1,7.7-3.8,13.4-5.2
		c5.7-1.4,12.3-2.1,19.8-2.1h3.9c7.2,0,13.6,0.6,19.2,1.7c5.5,1.1,9.9,2.5,13,4.1s5.7,3.6,7.7,5.9s3.3,4.3,4,6.2s1,3.8,1.1,5.7v0.1
		h-22.6c-2.3-5.9-10.3-8.9-24.2-8.9c-17.2,0-25.8,5.6-25.8,16.8v0.9c0,4.6,2.1,8.5,6.3,11.8s10.7,4.9,19.3,4.9
		c3.8,0,7.2-0.3,10.4-0.8c3.2-0.5,5.7-1.1,7.6-1.8s3.5-1.5,4.8-2.4s2.2-1.6,2.7-2.3c0.5-0.7,0.8-1.2,0.8-1.6v-0.2h-26.7V1670h47.8
		v34.9h-15.3c0,0-0.1-5.6-0.2-9.7c-6.8,7.2-17.7,10.8-32.7,10.8H106.3z"/>
	<path d="M224.2,1657.4v10.7c0,0-27.1,0-29.5,0.2s-5.8,2.3-7.6,4.5c-1.8,2.1-2.7,4.8-2.7,7.9v23.8h-19.2v-46.1h19v8.1
		c0.8-1.2,1.8-2.4,3-3.6c1.2-1.2,3.3-2.4,6.1-3.7c2.9-1.3,6.1-1.9,9.6-1.9H224.2z"/>
	<path d="M295.8,1692.9v12.6h-15.6c-4.2,0-6.7-2.1-7.3-6.4c-1.4,1.8-3.9,3.4-7.3,4.9c-3.5,1.5-8.2,2.3-14.2,2.3h-1.1
		c-7.3,0-12.7-1.4-16.3-4.3c-3.5-2.9-5.3-6.5-5.3-10.8v-0.6c0-4.2,1.5-7.5,4.5-9.6c3-2.2,8-3.6,15-4.2l21.3-2c2-0.2,2.9-1,2.9-2.4
		c0-0.7-0.2-1.3-0.6-1.8c-0.4-0.5-1.5-0.9-3.4-1.3c-1.9-0.4-4.6-0.6-8.1-0.6l-31.6,0.1v-10.7h33.6c5.2,0,9.6,0.3,13.3,0.9
		s6.5,1.4,8.5,2.3c2,0.9,3.5,2.1,4.6,3.6c1.1,1.5,1.8,2.8,2,3.9s0.3,2.6,0.3,4.2v17.7c0,1.5,0.8,2.3,2.4,2.3H295.8z M272.3,1683.4
		l-18.4,2.8c-2.6,0.4-4.4,0.9-5.4,1.5c-1,0.6-1.6,1.5-1.6,2.8v0.1c0,1.4,0.7,2.7,2,3.7s3.5,1.5,6.5,1.5c5,0,9-1.1,12.2-3.4
		c3.2-2.2,4.8-4.8,4.8-7.7V1683.4z"/>
	<path d="M322.6,1658.8v6.4c6.3-5,14.6-7.5,24.9-7.5h1.6c5.4,0,10.1,0.6,14,1.8c3.9,1.2,7,2.8,9.2,4.9c2.2,2.1,3.8,4.5,4.9,7.1
		c1,2.6,1.6,5.5,1.6,8.8v1.6c0,3.1-0.5,6-1.6,8.6c-1.1,2.6-2.7,5-5,7.3s-5.4,4-9.4,5.2c-4,1.3-8.8,1.9-14.2,1.9H347
		c-6.3,0-11.5-0.9-15.8-2.6c-4.3-1.7-7.2-3.3-8.6-4.9v22.1h-20.3v-60.7H322.6z M322.6,1681.3c0,3.1,1.6,5.9,4.7,8.2
		c3.2,2.3,7.6,3.5,13.4,3.5h0.5c6,0,10.2-1.1,12.9-3.4c2.6-2.3,3.9-5,3.9-8.3v-0.3c0-3.3-1.3-6.1-3.9-8.3c-2.6-2.2-6.9-3.3-12.9-3.3
		h-0.5c-6,0-10.5,1.1-13.5,3.4c-3.1,2.3-4.6,5-4.6,8.2V1681.3z"/>
	<path d="M387.9,1642.4h20.3v24.8c6.2-5.7,14.3-8.5,24.2-8.5h0.6c7.9,0,13.9,1.7,17.9,5.1s6,7.6,6,12.4v28.4h-20.5v-22.3
		c0-3.6-1.1-6.3-3.3-8.3c-2.2-2-5.5-2.9-9.9-2.9c-4.6,0-8.2,1.1-10.9,3.3c-2.7,2.2-4.1,5.2-4.1,8.9v21.3h-20.3V1642.4z"/>
	<path d="M486.4,1655.3h-20.3v-12.9h20.3V1655.3z M486.4,1704.7h-20.3v-45h20.3V1704.7z"/>
	<path d="M529.7,1705.2c-5.4,0-10.1-0.5-14.3-1.5c-4.2-1-7.5-2.2-9.9-3.8c-2.4-1.5-4.4-3.4-6-5.5s-2.6-4.2-3.2-6.2
		c-0.5-2-0.8-4.1-0.8-6.3v-1.7c0-2.2,0.3-4.3,0.8-6.2c0.5-2,1.6-4,3.1-6.1c1.6-2.1,3.6-3.8,6-5.3c2.5-1.5,5.8-2.7,9.9-3.6
		c4.1-0.9,8.9-1.4,14.2-1.4h5.2c5.8,0,10.9,0.5,15.3,1.5c4.4,1,7.7,2.2,10.1,3.6s4.2,3.1,5.7,5s2.4,3.6,2.8,5.1
		c0.4,1.5,0.6,2.9,0.6,4.4v0.3h-20.9c-1.4-5.4-6.8-8.1-16.2-8.1h-0.3c-5.5,0-9.4,1-11.9,3.1c-2.5,2.1-3.7,4.8-3.7,8v0.6
		c0,3.4,1.2,6.3,3.7,8.6c2.5,2.3,6.4,3.5,11.9,3.5h0.3c9.4,0,14.8-2.8,16.2-8.3h20.9v0.2c0,1.6-0.2,3.1-0.5,4.6
		c-0.4,1.5-1.2,3.2-2.6,5.2c-1.4,2-3.3,3.7-5.6,5.1c-2.3,1.4-5.7,2.6-10.2,3.7s-9.6,1.5-15.6,1.5L529.7,1705.2L529.7,1705.2z"/>
	<path d="M702.9,1641.9v62.2h-20.2v-6.9c-0.5,0.6-1.2,1.3-2.3,2c-1,0.8-2.5,1.6-4.4,2.6c-1.9,0.9-4.4,1.7-7.5,2.4s-6.5,1-10.1,1
		h-1.2c-10.3,0-18.1-2.2-23.2-6.5c-5.1-4.3-7.7-9.9-7.7-16.7v-1.6c0-6.6,2.4-12,7.3-16.1c4.9-4.2,12.5-6.3,22.8-6.3h1.5
		c10.5,0,18.7,2.4,24.6,7.1v-23.3H702.9z M682.4,1681.4c0-3.1-1.7-5.8-5-8.1s-7.9-3.4-13.6-3.4h-0.5c-5.9,0-10.1,1.1-12.6,3.3
		c-2.5,2.2-3.7,4.9-3.7,8.3v0.3c0,3.1,1.4,5.8,4.1,8.2c2.7,2.3,6.9,3.5,12.4,3.5h0.5c5.7,0,10.2-1.2,13.5-3.5c3.3-2.3,4.9-5,4.9-8.2
		L682.4,1681.4L682.4,1681.4z"/>
	<path d="M785.4,1688.3c0,1.4-0.2,2.8-0.6,4.1c-0.4,1.4-1.4,2.9-2.8,4.5c-1.5,1.6-3.3,3-5.7,4.2c-2.3,1.2-5.6,2.2-9.8,3
		s-9.1,1.2-14.7,1.2h-5.2c-6.3,0-11.8-0.6-16.4-1.9c-4.6-1.3-8.2-3-10.8-5.2c-2.6-2.2-4.4-4.7-5.6-7.3c-1.2-2.6-1.8-5.5-1.8-8.6
		v-1.8c0-3.1,0.5-5.9,1.6-8.5c1.1-2.6,2.9-4.9,5.3-7.2c2.5-2.2,6-3.9,10.6-5.2c4.6-1.3,10.1-1.9,16.5-1.9h5.6
		c22.7,0,34.1,8.1,34.1,24.3v3.1H732c1.3,5.9,7.1,8.8,17.3,8.8h0.1c2.6,0,4.8-0.2,6.8-0.5c2-0.3,3.5-0.7,4.6-1.2
		c1.1-0.5,2-1,2.7-1.6c0.7-0.6,1.2-1.1,1.4-1.4c0.2-0.4,0.4-0.7,0.5-1L785.4,1688.3L785.4,1688.3L785.4,1688.3z M748.7,1668.3
		c-9.2,0-14.7,2.5-16.3,7.6h32.8C763.7,1670.8,758.2,1668.3,748.7,1668.3L748.7,1668.3z"/>
	<path d="M824.3,1706c-21,0-31.6-5.3-31.6-16v-0.5h21c0,4.1,4.2,6.1,12.6,6.1h0.2c3.5,0,6.3-0.2,8.3-0.7c2-0.4,3.2-0.9,3.7-1.5
		s0.7-1.3,0.7-2.1v-0.2c0-1.3-0.7-2.2-2.1-2.8s-4.3-1-8.7-1.1l-8.8-0.2c-5.1-0.1-9.5-0.6-13.1-1.4c-3.6-0.8-6.4-2-8.2-3.3
		c-1.9-1.4-3.2-2.8-4-4.4c-0.8-1.5-1.2-3.2-1.2-4.9v-0.5c0-1.6,0.2-3,0.6-4.2c0.4-1.2,1.2-2.5,2.6-3.8c1.3-1.3,3.1-2.3,5.2-3.2
		c2.2-0.8,5.2-1.5,9-2.1c3.8-0.6,8.4-0.8,13.6-0.8h3.6c20.5,0,30.7,4.7,30.7,14.1v0.6h-20.7c-0.1-0.6-0.3-1-0.5-1.5
		c-0.2-0.4-0.7-0.9-1.5-1.4c-0.7-0.5-2-0.9-3.7-1.3c-1.7-0.3-3.9-0.5-6.4-0.5h-0.1c-4.6,0-7.7,0.3-9.3,0.8c-1.6,0.5-2.4,1.4-2.4,2.6
		v0.2c0,1.1,0.7,2,2.2,2.6c1.5,0.6,4.2,0.9,8.1,1l8.8,0.2c7.4,0.1,13.1,0.8,17.1,1.9s6.8,2.7,8.2,4.6c1.4,1.9,2.1,4.4,2.1,7.7v0.5
		c0,2.3-0.4,4.3-1.3,6c-0.9,1.7-2.4,3.3-4.7,4.8c-2.2,1.5-5.5,2.7-10,3.5c-4.4,0.8-9.9,1.2-16.4,1.2L824.3,1706L824.3,1706z"/>
	<path d="M887.8,1655.3h-20.3v-12.9h20.3V1655.3z M887.8,1704.7h-20.3v-45h20.3V1704.7z"/>
	<path d="M971.5,1657.5v40.2c0,2.1-0.2,4.1-0.7,6.2c-0.4,2.1-1.4,4.4-2.9,7c-1.5,2.6-3.4,4.8-5.8,6.8c-2.4,1.9-5.8,3.5-10.1,4.8
		c-4.4,1.3-9.4,2-15.2,2h-43.1v-13.4h42.2c10.1-0.6,15.2-5.3,15.2-14.1c-5.6,4.9-13.6,7.4-24.1,7.4h-1.1c-10.9,0-19-2.2-24.3-6.6
		c-5.3-4.4-7.9-10-7.9-16.9v-1.8c0-6.6,2.4-12,7.2-16.4c4.8-4.3,12.3-6.5,22.5-6.5h1.9c11.6,0,20.1,2.6,25.7,7.8v-6.6H971.5z
		 M950.5,1680.3c0-3.2-1.6-5.8-4.8-8c-3.2-2.1-7.8-3.2-13.9-3.2h-0.6c-6.1,0-10.4,1-13,3.1c-2.6,2.1-3.9,4.7-3.9,7.9v0.4
		c0,3.2,1.4,5.9,4.1,8.1c2.7,2.2,7,3.3,12.8,3.3h0.6c6.1,0,10.7-1.1,13.9-3.3c3.2-2.2,4.8-4.9,4.8-8V1680.3z"/>
	<path d="M1000.8,1659.5v7.7c6.3-5.8,14.4-8.7,24.4-8.7h0.6c8,0,13.9,1.7,17.9,5.1c4,3.4,6,7.6,6,12.4v28.4h-20.5v-22.3
		c0-3.6-1.1-6.3-3.3-8.3c-2.2-2-5.5-2.9-9.9-2.9c-4.6,0-8.2,1.1-10.9,3.3s-4.1,5.2-4.1,8.9v21.3h-20.3v-45H1000.8z"/>
</g>
<g>
	<path d="M114.3,1901.9c-7.1,0-13.3-0.7-18.8-2.1s-9.8-3.2-13.1-5.3c-3.3-2.1-5.9-4.7-8-7.5s-3.5-5.6-4.2-8.3s-1.1-5.3-1.1-8.1v-2.3
		c0-2.7,0.3-5.4,1-7.9c0.6-2.5,2-5.2,4-8.1c2-2.9,4.7-5.4,7.9-7.5c3.2-2.1,7.7-3.8,13.4-5.2c5.7-1.4,12.3-2.1,19.8-2.1h3.9
		c7.2,0,13.6,0.6,19.2,1.7c5.5,1.1,9.9,2.5,13,4.1c3.1,1.6,5.7,3.6,7.7,5.9s3.3,4.3,4,6.2s1,3.8,1.1,5.7v0.1h-22.6
		c-2.3-5.9-10.3-8.9-24.2-8.9c-17.2,0-25.8,5.6-25.8,16.8v0.9c0,4.6,2.1,8.5,6.3,11.8c4.2,3.3,10.7,4.9,19.3,4.9
		c3.8,0,7.2-0.3,10.4-0.8s5.7-1.1,7.6-1.8s3.5-1.5,4.8-2.4s2.2-1.6,2.7-2.3c0.5-0.7,0.8-1.2,0.8-1.6v-0.2h-26.7v-11.8h47.8v34.9
		h-15.3c0,0-0.1-5.6-0.2-9.7c-6.8,7.2-17.7,10.8-32.7,10.8H114.3z"/>
	<path d="M246.7,1884.2c0,1.4-0.2,2.8-0.6,4.1s-1.4,2.9-2.8,4.5c-1.5,1.6-3.3,3-5.7,4.2c-2.3,1.2-5.6,2.2-9.8,3s-9.1,1.2-14.7,1.2
		h-5.2c-6.3,0-11.8-0.6-16.4-1.9c-4.6-1.3-8.2-3-10.8-5.2c-2.6-2.2-4.4-4.7-5.6-7.3c-1.2-2.6-1.8-5.5-1.8-8.6v-1.8
		c0-3.1,0.5-5.9,1.6-8.5c1.1-2.6,2.9-5,5.3-7.2c2.5-2.2,6-3.9,10.6-5.2c4.6-1.3,10.1-1.9,16.5-1.9h5.6c22.7,0,34.1,8.1,34.1,24.3
		v3.1h-53.7c1.3,5.9,7.1,8.8,17.3,8.8h0.1c2.6,0,4.8-0.2,6.8-0.5c2-0.3,3.5-0.7,4.6-1.2c1.1-0.5,2-1,2.7-1.6
		c0.7-0.6,1.2-1.1,1.4-1.4c0.2-0.4,0.4-0.7,0.5-1L246.7,1884.2L246.7,1884.2L246.7,1884.2z M210,1864.2c-9.2,0-14.7,2.5-16.3,7.6
		h32.8C225,1866.7,219.5,1864.2,210,1864.2L210,1864.2z"/>
	<path d="M276.3,1855.3v7.7c6.3-5.8,14.4-8.7,24.4-8.7h0.6c8,0,13.9,1.7,17.9,5.1c4,3.4,6,7.6,6,12.4v28.4h-20.5v-22.3
		c0-3.6-1.1-6.3-3.3-8.3s-5.5-2.9-9.9-2.9c-4.6,0-8.2,1.1-10.9,3.3c-2.7,2.2-4.1,5.2-4.1,8.9v21.3h-20.3v-45H276.3z"/>
	<path d="M407.7,1884.2c0,1.4-0.2,2.8-0.6,4.1s-1.4,2.9-2.8,4.5c-1.5,1.6-3.3,3-5.7,4.2c-2.3,1.2-5.6,2.2-9.8,3s-9.1,1.2-14.7,1.2
		h-5.2c-6.3,0-11.8-0.6-16.4-1.9c-4.6-1.3-8.2-3-10.8-5.2c-2.6-2.2-4.4-4.7-5.6-7.3c-1.2-2.6-1.8-5.5-1.8-8.6v-1.8
		c0-3.1,0.5-5.9,1.6-8.5c1.1-2.6,2.9-5,5.3-7.2c2.5-2.2,6-3.9,10.6-5.2c4.6-1.3,10.1-1.9,16.5-1.9h5.6c22.7,0,34.1,8.1,34.1,24.3
		v3.1h-53.7c1.3,5.9,7.1,8.8,17.3,8.8h0.1c2.6,0,4.8-0.2,6.8-0.5c2-0.3,3.5-0.7,4.6-1.2c1.1-0.5,2-1,2.7-1.6
		c0.7-0.6,1.2-1.1,1.4-1.4c0.2-0.4,0.4-0.7,0.5-1L407.7,1884.2L407.7,1884.2L407.7,1884.2z M370.9,1864.2c-9.2,0-14.7,2.5-16.3,7.6
		h32.8C386,1866.7,380.5,1864.2,370.9,1864.2L370.9,1864.2z"/>
	<path d="M476,1853.3v10.7c0,0-27.1,0-29.5,0.2s-5.8,2.3-7.6,4.5c-1.8,2.1-2.7,4.8-2.7,7.9v23.8h-19.2v-46.1h19v8.1
		c0.8-1.2,1.8-2.4,3-3.6c1.2-1.2,3.3-2.4,6.1-3.7c2.9-1.3,6.1-1.9,9.6-1.9H476z"/>
	<path d="M547.7,1888.7v12.6H532c-4.2,0-6.7-2.1-7.3-6.4c-1.4,1.8-3.9,3.4-7.3,4.9c-3.5,1.5-8.2,2.3-14.2,2.3H502
		c-7.3,0-12.7-1.4-16.3-4.3c-3.5-2.9-5.3-6.5-5.3-10.8v-0.6c0-4.2,1.5-7.5,4.5-9.6c3-2.2,8-3.6,15-4.2l21.3-2c2-0.2,2.9-1,2.9-2.4
		c0-0.7-0.2-1.3-0.6-1.8c-0.4-0.5-1.5-0.9-3.4-1.3c-1.9-0.4-4.6-0.6-8.1-0.6l-31.6,0.1v-10.7H514c5.2,0,9.6,0.3,13.3,0.9
		c3.7,0.6,6.5,1.4,8.5,2.3c2,0.9,3.5,2.1,4.6,3.6c1.1,1.5,1.8,2.8,2,3.9c0.2,1.1,0.3,2.6,0.3,4.2v17.7c0,1.5,0.8,2.3,2.4,2.3H547.7z
		 M524.2,1879.3l-18.4,2.8c-2.6,0.4-4.4,0.9-5.4,1.5c-1,0.6-1.6,1.5-1.6,2.8v0.1c0,1.4,0.7,2.7,2,3.7s3.5,1.5,6.5,1.5
		c5,0,9-1.1,12.2-3.4c3.2-2.2,4.8-4.8,4.8-7.7V1879.3z"/>
	<path d="M574.4,1900.6h-20.3v-62.2h20.3V1900.6z"/>
</g>
<g>
	<g>
		<path class="st1" d="M923.3,521.6c0.5-4.9-0.4-10.6,1.8-14.6c4.8-8.5,19.9-9.1,26.6-1.7c1.6,1.8,2.6,4.6,2.8,7
			c0.4,5.5,0.1,11,0.1,16.5c0,9.8-4.8,14.1-16,14c-10,0-14.9-4.8-14.9-14.4c0-2.3,0-4.6,0-6.9C923.6,521.6,923.5,521.6,923.3,521.6z
			 M931.7,532.9c2,4.6,7.3,5,11.4,3.2c7.2-3.2,4.3-10.1,4.3-16.7C941.8,524.2,936.9,528.4,931.7,532.9z M946.9,510.2
			c-3.3-3.9-8.1-5.2-12.8-2c-5.9,4-3,9.9-2.8,15.5C936.8,519,941.7,514.7,946.9,510.2z"/>
		<path class="st1" d="M1063,522c-1,6.6,1.9,14.7-6,18.1c-5.2,2.3-12,3.4-17.3,2.1c-4.4-1.1-8.9-5.6-8.2-12.4
			c0.6-5.2,0.1-10.5,0.1-15.8c0-8.6,4.8-13,13.5-13.5c6.5-0.4,12.9,0.2,15.7,6.3C1062.9,511.2,1062.4,516.9,1063,522z M1039.4,532.9
			c2.2,4.6,7.7,5.1,11.9,3c6.8-3.4,3.7-10.3,4.2-16.7C1049.7,524.2,1044.7,528.4,1039.4,532.9z M1038.8,523.9
			c5.9-5,10.9-9.2,15.9-13.4c-2.6-4.5-7.7-4.9-11.9-2.9C1036,510.9,1039,517.6,1038.8,523.9z"/>
		<path class="st1" d="M959.3,521.7c0.5-4.9-0.5-10.6,1.7-14.6c4.6-8.5,20-9.2,26.6-1.9c1.6,1.8,2.7,4.6,2.9,7
			c0.4,5.5,0.1,11,0.1,16.5c0,6.4-4.3,13.1-9,14.1c-8,1.7-19.8-1.8-21.4-7.4c-1.2-4.2-0.2-9.1-0.2-13.6
			C959.8,521.8,959.5,521.8,959.3,521.7z M967.6,532.8c2.3,4.5,7.4,5,11.6,3.2c7.2-3.2,4-10.2,4.5-16.8
			C978,524,973.1,528.2,967.6,532.8z M966.8,524c6-5,11.1-9.3,17.7-14.9c-5.2-0.6-10.2-2.8-13.7-1.3
			C964.2,510.5,967.1,517.4,966.8,524z"/>
		<path class="st1" d="M1097.9,520c-1,8.1,1.9,15.1-5.2,20.3c-6,4.5-12.6,3.3-18.1,1.7c-4.4-1.3-8.8-5.9-7.9-12.6
			c0.7-4.9,0.1-10,0.1-15.1c0-9.1,4.7-13.3,13.9-13.9c6.6-0.4,12.8,0.5,15.7,6.5C1098.5,511.2,1097.6,516.7,1097.9,520z
			 M1089.9,510.4c-2.3-4.3-7.4-4.9-11.7-2.8c-6.8,3.4-4,9.9-4,16.2C1079.8,519,1084.7,514.8,1089.9,510.4z M1090.7,519.4
			c-6,5-11,9.1-16,13.3c2.7,4.9,7.9,5.2,12,3.1C1093.1,532.7,1090.4,526.1,1090.7,519.4z"/>
		<path class="st1" d="M884,520.9c-0.6,5.7,0.3,11.4-2,15.3c-5.6,9.4-19.4,9.6-26.8,1.1c-1.3-1.5-2.3-3.8-2.4-5.7
			c-0.3-5.7-0.1-11.4-0.1-17.1c0-9.1,4.7-13.4,13.7-13.9c6.2-0.3,12.4,0.1,15.1,6C883.6,511,883.4,516.5,884,520.9z M876.5,519.2
			c-5.7,4.9-10.8,9.2-16.1,13.8c2.1,4.5,7.4,4.9,11.5,3.1C879.2,532.9,875.9,525.8,876.5,519.2z M875.6,510.3
			c-2.6-4.7-8-4.9-12.2-2.6c-6.4,3.6-3.3,10.1-3.3,16C865.5,519.1,870.4,514.8,875.6,510.3z"/>
		<path class="st1" d="M817,521.7c0.5-6.6-3.3-15.1,5.4-18.4c5.5-2.1,12.4-3.2,17.8-1.7c4,1.1,8.3,5.8,7.4,12.3
			c-0.7,5.2-0.1,10.5-0.1,15.8c0,5.7-4.6,12.4-9.1,13.3c-8.4,1.7-19.7-1.8-21.2-7.5C816.1,531,817,526.2,817,521.7z M840.9,519.1
			c-6.1,5.1-11.2,9.3-16.5,13.6c2.5,4.5,7.7,5.2,11.9,3.2C843.2,532.9,839.9,525.8,840.9,519.1z M839.7,510.4
			c-3-4.4-7.8-4.7-12.7-2.4c-4.1,1.9-4.7,9.3-2.1,15.1C829.6,519,834.4,514.9,839.7,510.4z"/>
		<path class="st1" d="M137.8,531.1c-5.9,0-10.9,0-17,0c0,2.8,0.4,5.5-0.2,8c-0.3,1.4-2.3,2.5-3.5,3.7c-1.1-1.2-3-2.3-3.1-3.5
			c-0.3-7.8-2-16.2,0.4-23.2c2-6,8.8-10.4,13.7-15.4c0.4-0.4,1.8-0.2,2.7,0c4.3,1.1,14,13.9,14,18.4c0,6.2,0.3,12.4-0.2,18.5
			c-0.1,1.8-2.3,3.4-3.6,5.1c-1.1-1.6-2.6-3.1-3.1-4.9C137.4,536,137.8,533.9,137.8,531.1z M137,523.9c3.1-7.6-2.9-9.9-6.3-13.4
			c-0.5-0.5-3.1,0.1-4,1c-3.6,3.2-8.2,6.1-5,12.4C126.8,523.9,132,523.9,137,523.9z"/>
		<path class="st1" d="M194.5,541c0-13.9,0-26.5,0-40.4c11.9,6.9,22.8,13.2,34.7,20.2C217.4,527.7,206.4,534.1,194.5,541z"/>
		<path class="st1" d="M42,500.7c7.8,0,14.6-0.2,21.4,0.1c4.9,0.2,9.6,6.9,9.5,12.6c-0.1,4.8-5.6,11.2-10.2,11.5
			c-4.3,0.2-8.6,0.1-13.8,0.1c0,5,0.3,9.3-0.2,13.6c-0.2,1.6-2.3,2.9-3.6,4.3c-1.1-1.4-3.1-2.7-3.1-4.1
			C41.9,526.4,42,514.1,42,500.7z M49.4,506.9c0,4.3,0,7.6,0,11.6c3.6,0,6.9,0.7,9.8-0.2c2.6-0.8,4.5-3.5,6.8-5.4
			c-2.1-2-3.9-4.9-6.4-5.8C56.7,506.2,53.3,506.9,49.4,506.9z"/>
		<path class="st1" d="M149.3,501.3c5.4-1.7,6.9,0.1,6.9,4.8c-0.1,7.8,4.1,15,8.2,15.2c4.2,0.3,8.4-7.5,8.6-15.5
			c0-1.4,0.1-2.7,0.3-4.6c2-0.1,3.9-0.3,6-0.4c1.5,9.5,2.1,18.2-6.8,24c-4.9,3.2-4.1,8-4.5,12.7c-0.1,1.9-2.2,3.6-3.3,5.3
			c-1.1-1.8-3.3-3.6-3.2-5.3c0.4-5.9-0.9-10.7-6-14C146.7,517.9,149.4,509.4,149.3,501.3z"/>
		<path class="st1" d="M77.9,501.1c2.8,0,4.5,0,6.9,0c0,11.7,0,23.1,0,35.4c6.8,0,12.9-0.2,19,0.1c1.7,0.1,3.3,1.9,4.9,2.9
			c-1.6,1.1-3.1,3.1-4.8,3.2c-7.1,0.4-14.2,0.4-21.3,0c-1.6-0.1-4.4-2.6-4.5-4C77.8,526.3,77.9,514,77.9,501.1z"/>
	</g>
</g>
</svg>
