<?xml version="1.0" encoding="utf-8"?>
<!-- Generator: Adobe Illustrator 26.3.0, SVG Export Plug-In . SVG Version: 6.00 Build 0)  -->
<svg version="1.1" id="Layer_1" xmlns="http://www.w3.org/2000/svg" xmlns:xlink="http://www.w3.org/1999/xlink" x="0px" y="0px"
	 viewBox="0 0 768 1024" style="enable-background:new 0 0 768 1024;" xml:space="preserve">
<style type="text/css">
	.st0{fill:#EFEFEF;}
	.st1{fill:#56CCC6;}
	.st2{fill:#CC58B3;}
	.st3{fill:#0F0F0F;}
	.st4{enable-background:new    ;}
</style>
<rect class="st0" width="769.2" height="1024"/>
<rect class="st1" width="768" height="66.7"/>
<rect y="66.7" class="st2" width="768" height="66.7"/>
<rect y="133.4" class="st3" width="768" height="66.7"/>
<rect y="708.2" class="st2" width="663.3" height="9.9"/>
<g class="st4">
	<path class="st1" d="M51.6,971.3c0.9,0,1.6,0.3,2.2,0.9c0.6,0.6,0.9,1.3,0.9,2.1c0,0.2,0,0.4-0.1,0.6l-1.5,8.5
		c-0.2,1-0.7,1.9-1.5,2.6c-0.8,0.7-1.8,1.1-2.8,1.1c-0.9,0-1.6-0.3-2.2-0.9s-0.9-1.3-0.9-2.1c0-0.2,0-0.4,0.1-0.6l0.5-2.8h-8.6
		l-0.5,2.8c-0.2,1-0.7,1.9-1.5,2.6c-0.8,0.7-1.8,1.1-2.8,1.1c-0.9,0-1.6-0.3-2.2-0.9s-0.9-1.3-0.9-2.1c0-0.2,0-0.4,0.1-0.6l1.5-8.5
		c0.2-1,0.7-1.9,1.5-2.6c0.8-0.7,1.8-1.1,2.8-1.1c0.9,0,1.6,0.3,2.2,0.9c0.6,0.6,0.9,1.3,0.9,2.1c0,0.2,0,0.4-0.1,0.6l-0.5,2.8h8.6
		l0.5-2.8c0.2-1,0.7-1.9,1.5-2.6C49.7,971.6,50.6,971.3,51.6,971.3z"/>
	<path class="st1" d="M74.3,974.5c2.1,0,3.8,0.3,5,0.9c1.4,0.6,2,1.5,2,2.6c0,0.2,0,0.3,0,0.5l-0.8,4.2c-0.2,1.3-1.1,2.3-2.8,3
		c-1.5,0.7-3.4,1-5.6,1h-7.7c-2.1,0-3.7-0.3-5-0.9c-1.4-0.6-2-1.5-2-2.6c0-0.2,0-0.3,0.1-0.5l0.7-4.2c0.2-1.3,1.2-2.3,2.8-3
		c1.5-0.7,3.4-1,5.6-1H74.3z M73.5,981.6l0.4-2c0-0.1,0-0.2,0-0.3c0-0.6-0.2-1.1-0.8-1.4c-0.5-0.4-1.1-0.6-1.9-0.6h-2.6
		c-0.8,0-1.6,0.2-2.2,0.7s-1.1,1-1.2,1.7l-0.3,2c0,0.1,0,0.2,0,0.3c0,0.6,0.2,1.1,0.8,1.4c0.5,0.4,1.1,0.6,1.9,0.6h2.6
		c0.8,0,1.6-0.2,2.2-0.7S73.4,982.2,73.5,981.6z"/>
	<path class="st1" d="M109.3,974.1c0.8,0,1.5,0.3,2,0.8c0.5,0.5,0.8,1.2,0.8,2c0,0.2,0,0.4-0.1,0.6l-1,5.5c-0.2,1.3-1.2,2.3-2.8,3
		c-1.5,0.7-3.4,1-5.6,1h-0.7c-1.7,0-3.1-0.2-4.3-0.6c-1.3,0.4-2.8,0.6-4.5,0.6h-0.7c-2.1,0-3.7-0.3-5-0.9c-1.4-0.6-2-1.5-2-2.6
		c0-0.2,0-0.4,0-0.5l1-5.5c0.2-0.9,0.6-1.7,1.4-2.3c0.8-0.6,1.6-1,2.5-1c0.8,0,1.5,0.3,2,0.8c0.5,0.5,0.8,1.2,0.8,2
		c0,0.2,0,0.4-0.1,0.6l-0.9,5c-0.1,0.4,0,0.7,0.2,1c0.2,0.3,0.5,0.4,0.9,0.4c0.4,0,0.7-0.1,1.1-0.4c0.3-0.3,0.5-0.6,0.6-1l0.9-5
		c0.1-0.8,0.5-1.5,1.1-2.1c0.6-0.6,1.3-1,2.1-1.1c0.1,0,0.4,0,0.7-0.1c0.8,0,1.5,0.3,2,0.8c0.5,0.5,0.8,1.2,0.8,2
		c0,0.2,0,0.4-0.1,0.6l-0.9,5c-0.1,0.4,0,0.7,0.2,1c0.2,0.3,0.5,0.4,0.9,0.4c0.4,0,0.7-0.1,1.1-0.4c0.3-0.3,0.5-0.6,0.6-1l0.9-5
		c0.2-0.9,0.6-1.7,1.4-2.3C107.5,974.4,108.3,974.1,109.3,974.1z"/>
	<path class="st1" d="M151.6,971.3c0.9,0,1.6,0.3,2.2,0.9c0.6,0.6,0.9,1.3,0.9,2.1c0,0.2,0,0.4-0.1,0.6l-1.8,10.1
		c-0.2,1.1-1.3,1.7-3.3,1.7h-12.4c-2.1,0-3.7-0.3-5-0.9c-1.4-0.6-2-1.5-2-2.6c0-0.2,0-0.3,0.1-0.5l0.7-4.2c0.2-1.3,1.2-2.3,2.8-3
		c1.5-0.7,3.4-1,5.6-1h8.2c0.3-0.9,0.8-1.6,1.6-2.2C149.8,971.6,150.7,971.3,151.6,971.3z M144.3,983.9c0.4,0,0.7-0.1,1.1-0.4
		c0.3-0.3,0.5-0.6,0.6-1l0.7-3.8c0.1-0.4,0-0.7-0.3-1c-0.2-0.3-0.5-0.4-0.9-0.4h-4.2c-2,0-3.1,0.6-3.3,1.7l-0.6,3.3
		c-0.2,1.1,0.7,1.7,2.7,1.7H144.3z"/>
	<path class="st1" d="M174.3,974.5c2.1,0,3.8,0.3,5,0.9c1.4,0.6,2,1.5,2,2.6c0,0.2,0,0.3,0,0.5l-0.8,4.2c-0.2,1.3-1.1,2.3-2.8,3
		c-1.5,0.7-3.4,1-5.6,1h-7.7c-2.1,0-3.7-0.3-5-0.9c-1.4-0.6-2-1.5-2-2.6c0-0.2,0-0.3,0.1-0.5l0.7-4.2c0.2-1.3,1.2-2.3,2.8-3
		c1.5-0.7,3.4-1,5.6-1H174.3z M173.5,981.6l0.4-2c0-0.1,0-0.2,0-0.3c0-0.6-0.2-1.1-0.8-1.4c-0.5-0.4-1.1-0.6-1.9-0.6h-2.6
		c-0.8,0-1.6,0.2-2.2,0.7s-1.1,1-1.2,1.7l-0.3,2c0,0.1,0,0.2,0,0.3c0,0.6,0.2,1.1,0.8,1.4c0.5,0.4,1.1,0.6,1.9,0.6h2.6
		c0.8,0,1.6-0.2,2.2-0.7S173.4,982.2,173.5,981.6z"/>
	<path class="st1" d="M223.5,977.3L223.5,977.3l-2,11.4c-0.2,1.3-1.2,2.3-2.8,3c-1.5,0.7-3.4,1-5.6,1h-11.8c-0.4,0-0.7-0.1-0.9-0.4
		c-0.2-0.3-0.3-0.6-0.2-1c0.1-0.4,0.3-0.7,0.6-1c0.3-0.3,0.7-0.4,1.1-0.4h9.2c0.8,0,1.6-0.2,2.3-0.7c0.7-0.5,1.1-1,1.2-1.6l0.2-0.9
		h-8.2c-2.1,0-3.8-0.3-5-0.9c-1.4-0.6-2-1.5-2-2.6c0-0.2,0-0.3,0-0.5l0.9-4.9c0.2-1,0.7-1.9,1.5-2.6c0.8-0.7,1.8-1.1,2.8-1.1
		c0.9,0,1.6,0.3,2.2,0.9s0.9,1.3,0.9,2.2c0,0.2,0,0.4-0.1,0.6l-0.8,4.4c-0.2,1.1,0.7,1.7,2.7,1.7h4.2c0.4,0,0.7-0.1,1.1-0.4
		c0.3-0.3,0.5-0.6,0.6-1l0.8-4.7c0.2-1,0.7-1.9,1.5-2.6c0.8-0.7,1.8-1.1,2.8-1.1c0.9,0,1.7,0.3,2.3,0.9
		C223.3,975.7,223.5,976.5,223.5,977.3z"/>
	<path class="st1" d="M244.5,974.5c2.1,0,3.8,0.3,5,0.9c1.4,0.6,2,1.5,2,2.6c0,0.2,0,0.3,0,0.5l-0.8,4.2c-0.2,1.3-1.1,2.3-2.8,3
		c-1.5,0.7-3.4,1-5.6,1h-7.7c-2.1,0-3.7-0.3-5-0.9c-1.4-0.6-2-1.5-2-2.6c0-0.2,0-0.3,0.1-0.5l0.7-4.2c0.2-1.3,1.2-2.3,2.8-3
		c1.5-0.7,3.4-1,5.6-1H244.5z M243.7,981.6l0.4-2c0-0.1,0-0.2,0-0.3c0-0.6-0.2-1.1-0.8-1.4c-0.5-0.4-1.1-0.6-1.9-0.6h-2.6
		c-0.8,0-1.6,0.2-2.2,0.7s-1.1,1-1.2,1.7l-0.3,2c0,0.1,0,0.2,0,0.3c0,0.6,0.2,1.1,0.8,1.4c0.5,0.4,1.1,0.6,1.9,0.6h2.6
		c0.8,0,1.6-0.2,2.2-0.7S243.6,982.2,243.7,981.6z"/>
	<path class="st1" d="M260.8,974.1c0.9,0,1.6,0.3,2.2,0.9c0.6,0.6,0.9,1.3,0.9,2.2c0,0.2,0,0.4-0.1,0.6l-0.7,3.8c0,0.1,0,0.2,0,0.3
		c0,0.6,0.2,1.1,0.8,1.4s1.1,0.6,1.9,0.6h4.2c0.4,0,0.7-0.1,1.1-0.4c0.3-0.3,0.5-0.6,0.6-1l0.8-4.7c0.2-1,0.7-1.9,1.5-2.6
		c0.8-0.7,1.8-1.1,2.8-1.1c0.9,0,1.6,0.3,2.2,0.9c0.6,0.6,0.9,1.3,0.9,2.1c0,0.2,0,0.4-0.1,0.6l-1.3,7.3c-0.2,1.1-1.3,1.7-3.3,1.7
		h-12.4c-2.1,0-3.7-0.3-5-0.9c-1.4-0.6-2-1.5-2-2.6c0-0.2,0-0.3,0-0.5l0.9-4.9c0.2-1,0.7-1.9,1.5-2.6
		C258.9,974.5,259.8,974.1,260.8,974.1z"/>
	<path class="st1" d="M314.5,983.9c0.4,0,0.7,0.1,0.9,0.4c0.2,0.3,0.3,0.6,0.2,1c-0.1,0.4-0.3,0.7-0.6,1c-0.3,0.3-0.7,0.4-1.1,0.4
		H307c-2.1,0-3.7-0.3-5-0.9c-1.4-0.6-2-1.5-2-2.6c0-0.2,0-0.4,0.1-0.5l1-5.7h-2.1c-0.4,0-0.7-0.1-0.9-0.4c-0.2-0.3-0.3-0.6-0.2-1
		c0.1-0.4,0.3-0.7,0.6-1c0.3-0.3,0.7-0.4,1.1-0.4h2.2c0.3-0.8,0.9-1.5,1.6-2.1c0.8-0.5,1.6-0.8,2.4-0.8c0.9,0,1.6,0.3,2.1,0.8
		c0.6,0.5,0.9,1.2,0.9,2.1h7.6c0.4,0,0.7,0.1,0.9,0.4c0.2,0.3,0.3,0.6,0.2,1c-0.1,0.4-0.2,0.7-0.6,1c-0.3,0.3-0.7,0.4-1.1,0.4h-7.5
		l-0.8,4.6c0,0.1,0,0.2,0,0.3c0,0.6,0.3,1,0.8,1.4c0.5,0.4,1.1,0.6,1.9,0.6H314.5z"/>
	<path class="st1" d="M325.6,974.1c0.9,0,1.6,0.3,2.2,0.9c0.6,0.6,0.9,1.3,0.9,2.2c0,0.2,0,0.4-0.1,0.6l-0.7,3.8c0,0.1,0,0.2,0,0.3
		c0,0.6,0.2,1.1,0.8,1.4s1.1,0.6,1.9,0.6h4.2c0.4,0,0.7-0.1,1.1-0.4c0.3-0.3,0.5-0.6,0.6-1l0.8-4.7c0.2-1,0.7-1.9,1.5-2.6
		c0.8-0.7,1.8-1.1,2.8-1.1c0.9,0,1.6,0.3,2.2,0.9c0.6,0.6,0.9,1.3,0.9,2.1c0,0.2,0,0.4-0.1,0.6l-1.3,7.3c-0.2,1.1-1.3,1.7-3.3,1.7
		h-12.4c-2.1,0-3.7-0.3-5-0.9c-1.4-0.6-2-1.5-2-2.6c0-0.2,0-0.3,0-0.5l0.9-4.9c0.2-1,0.7-1.9,1.5-2.6
		C323.7,974.5,324.6,974.1,325.6,974.1z"/>
	<path class="st1" d="M365.8,974.5c0.4,0,0.7,0.1,0.9,0.4c0.2,0.3,0.3,0.6,0.2,1s-0.3,0.7-0.6,1c-0.3,0.3-0.7,0.4-1.1,0.4h-5.7
		c-0.8,0-1.6,0.2-2.3,0.7c-0.7,0.4-1.1,1-1.2,1.6l-0.7,3.8c-0.2,1-0.7,1.9-1.5,2.6c-0.8,0.7-1.8,1.1-2.8,1.1c-0.9,0-1.6-0.3-2.2-0.9
		s-0.9-1.3-0.9-2.1c0-0.2,0-0.4,0.1-0.6l0.9-4.9c0.2-1.3,1.2-2.3,2.8-3c1.5-0.7,3.4-1,5.6-1H365.8z"/>
	<path class="st1" d="M387.4,974.5c2.1,0,3.7,0.3,5,0.9c1.4,0.6,2,1.5,2,2.6c0,0.2,0,0.3-0.1,0.5l-0.8,4.6c-0.2,1-0.7,1.9-1.5,2.6
		c-0.8,0.7-1.8,1.1-2.8,1.1c-0.9,0-1.6-0.3-2.2-0.9c-0.6-0.6-0.9-1.3-0.9-2.1c0-0.2,0-0.4,0.1-0.6l0.6-3.5c0-0.1,0-0.2,0-0.3
		c0-0.6-0.2-1.1-0.7-1.4c-0.5-0.4-1.1-0.6-1.9-0.6h-4.2c-0.4,0-0.7,0.1-1.1,0.4c-0.3,0.3-0.5,0.6-0.6,1l-0.8,4.4
		c-0.2,1-0.7,1.9-1.5,2.6c-0.8,0.7-1.8,1.1-2.8,1.1c-0.9,0-1.6-0.3-2.2-0.9c-0.6-0.6-0.9-1.3-0.9-2.1c0-0.2,0-0.4,0.1-0.6l1.2-7
		c0.2-1.1,1.3-1.7,3.3-1.7H387.4z"/>
	<path class="st1" d="M429.3,983.9c0.4,0,0.7,0.1,0.9,0.4s0.3,0.6,0.2,1c-0.1,0.4-0.3,0.7-0.6,1s-0.7,0.4-1.1,0.4h-7.1
		c-2.1,0-3.7-0.3-5-0.9c-1.4-0.6-2-1.5-2-2.6c0-0.2,0-0.4,0.1-0.5l1-5.7h-2.1c-0.4,0-0.7-0.1-0.9-0.4s-0.3-0.6-0.2-1
		c0.1-0.4,0.3-0.7,0.6-1c0.3-0.3,0.7-0.4,1.1-0.4h2.2c0.3-0.8,0.9-1.5,1.6-2.1c0.8-0.5,1.6-0.8,2.4-0.8c0.9,0,1.6,0.3,2.1,0.8
		c0.6,0.5,0.9,1.2,0.9,2.1h7.6c0.4,0,0.7,0.1,0.9,0.4c0.2,0.3,0.3,0.6,0.2,1c-0.1,0.4-0.2,0.7-0.6,1c-0.3,0.3-0.7,0.4-1.1,0.4H423
		l-0.8,4.6c0,0.1,0,0.2,0,0.3c0,0.6,0.3,1,0.8,1.4c0.5,0.4,1.1,0.6,1.9,0.6H429.3z"/>
	<path class="st1" d="M451.9,974.5c2.1,0,3.7,0.3,5,0.9c1.4,0.6,2,1.5,2,2.6c0,0.2,0,0.3-0.1,0.5l-0.9,4.9c-0.2,1-0.7,1.9-1.5,2.6
		c-0.8,0.7-1.8,1.1-2.8,1.1c-0.9,0-1.6-0.3-2.2-0.9c-0.6-0.6-0.9-1.3-0.9-2.1c0-0.2,0-0.4,0.1-0.6l0.7-3.8c0-0.1,0-0.2,0-0.3
		c0-0.6-0.2-1.1-0.8-1.4c-0.5-0.4-1.1-0.6-1.9-0.6h-5.6l-1.1,6.1c-0.2,1-0.7,1.9-1.5,2.6c-0.8,0.7-1.8,1.1-2.8,1.1
		c-0.9,0-1.6-0.3-2.2-0.9c-0.6-0.6-0.9-1.3-0.9-2.1c0-0.2,0-0.4,0.1-0.6l1.5-8.5c0.2-1,0.7-1.9,1.5-2.6c0.8-0.7,1.8-1.1,2.8-1.1
		c0.9,0,1.7,0.3,2.2,0.9c0.6,0.6,0.8,1.4,0.8,2.3H451.9z"/>
	<path class="st1" d="M467,977.8c0.9,0,1.6,0.3,2.2,0.8s0.9,1.3,0.9,2.1c0,0.2,0,0.4-0.1,0.6l-0.3,1.9c-0.2,1-0.7,1.9-1.5,2.6
		c-0.8,0.7-1.7,1.1-2.8,1.1c-0.9,0-1.6-0.3-2.2-0.9c-0.6-0.6-0.9-1.3-0.9-2.1c0-0.2,0-0.4,0.1-0.6l0.3-1.9c0.2-1,0.7-1.9,1.5-2.6
		S466,977.8,467,977.8z M467.2,976.3c-0.9,0-1.7-0.2-2.3-0.6c-0.6-0.4-0.9-0.9-0.9-1.6c0-0.8,0.5-1.5,1.5-2.1
		c0.8-0.5,1.7-0.7,2.6-0.7c0.9,0,1.7,0.2,2.3,0.6c0.6,0.4,0.9,0.9,0.9,1.6c0,0.8-0.5,1.5-1.5,2.1C469,976.1,468.1,976.3,467.2,976.3
		z"/>
	<path class="st1" d="M490.1,979.2c4.7,0,7.1,1,7.1,3.1c0,0.2,0,0.3,0,0.5c-0.2,1.3-1.2,2.3-2.8,3c-1.5,0.6-3.3,0.9-5.6,0.9h-14
		c-0.4,0-0.7-0.1-0.9-0.4c-0.2-0.3-0.3-0.6-0.2-1s0.3-0.7,0.6-1s0.7-0.4,1.1-0.4h12.6c0.4,0,0.8-0.1,1.3-0.3s0.6-0.5,0.7-0.8
		c0.1-0.5-0.5-0.8-1.6-0.8h-6.2c-4.7,0-7.1-1-7.1-3.1c0-0.2,0-0.3,0.1-0.5c0.2-1.3,1.2-2.3,2.8-3c1.5-0.6,3.4-0.9,5.6-0.9h14
		c0.4,0,0.7,0.1,0.9,0.4c0.2,0.3,0.3,0.6,0.2,1c-0.1,0.4-0.3,0.7-0.6,1c-0.3,0.3-0.7,0.4-1.1,0.4h-12.5c-0.4,0-0.8,0.1-1.3,0.3
		c-0.4,0.2-0.7,0.5-0.7,0.8c-0.1,0.5,0.4,0.8,1.6,0.8H490.1z"/>
	<path class="st1" d="M532.3,983.9c0.4,0,0.7,0.1,0.9,0.4c0.2,0.3,0.3,0.6,0.2,1c-0.1,0.4-0.3,0.7-0.6,1c-0.3,0.3-0.7,0.4-1.1,0.4
		h-7.1c-2.1,0-3.7-0.3-5-0.9c-1.4-0.6-2-1.5-2-2.6c0-0.2,0-0.4,0.1-0.5l1-5.7h-2.1c-0.4,0-0.7-0.1-0.9-0.4c-0.2-0.3-0.3-0.6-0.2-1
		c0.1-0.4,0.3-0.7,0.6-1s0.7-0.4,1.1-0.4h2.2c0.3-0.8,0.9-1.5,1.6-2.1c0.8-0.5,1.6-0.8,2.4-0.8s1.6,0.3,2.1,0.8
		c0.6,0.5,0.9,1.2,0.9,2.1h7.6c0.4,0,0.7,0.1,0.9,0.4s0.3,0.6,0.2,1c-0.1,0.4-0.2,0.7-0.6,1s-0.7,0.4-1.1,0.4H526l-0.8,4.6
		c0,0.1,0,0.2,0,0.3c0,0.6,0.2,1,0.8,1.4c0.5,0.4,1.1,0.6,1.9,0.6H532.3z"/>
	<path class="st1" d="M554.9,974.5c2.1,0,3.7,0.3,5,0.9c1.4,0.6,2,1.5,2,2.6c0,0.2,0,0.3-0.1,0.5l-0.9,4.9c-0.2,1-0.7,1.9-1.5,2.6
		c-0.8,0.7-1.8,1.1-2.8,1.1c-0.9,0-1.6-0.3-2.2-0.9c-0.6-0.6-0.9-1.3-0.9-2.1c0-0.2,0-0.4,0.1-0.6l0.7-3.8c0-0.1,0-0.2,0-0.3
		c0-0.6-0.2-1.1-0.8-1.4c-0.5-0.4-1.1-0.6-1.9-0.6h-5.6l-1.1,6.1c-0.2,1-0.7,1.9-1.5,2.6c-0.8,0.7-1.8,1.1-2.8,1.1
		c-0.9,0-1.6-0.3-2.2-0.9c-0.6-0.6-0.9-1.3-0.9-2.1c0-0.2,0-0.4,0.1-0.6l1.5-8.5c0.2-1,0.7-1.9,1.5-2.6c0.8-0.7,1.8-1.1,2.8-1.1
		c0.9,0,1.7,0.3,2.2,0.9c0.6,0.6,0.8,1.4,0.8,2.3H554.9z"/>
	<path class="st1" d="M569.9,977.8c0.9,0,1.6,0.3,2.2,0.8s0.9,1.3,0.9,2.1c0,0.2,0,0.4-0.1,0.6l-0.3,1.9c-0.2,1-0.7,1.9-1.5,2.6
		c-0.8,0.7-1.7,1.1-2.8,1.1c-0.9,0-1.6-0.3-2.2-0.9c-0.6-0.6-0.9-1.3-0.9-2.1c0-0.2,0-0.4,0.1-0.6l0.3-1.9c0.2-1,0.7-1.9,1.5-2.6
		S568.9,977.8,569.9,977.8z M570.2,976.3c-0.9,0-1.7-0.2-2.3-0.6c-0.6-0.4-0.9-0.9-0.9-1.6c0-0.8,0.5-1.5,1.5-2.1
		c0.8-0.5,1.7-0.7,2.6-0.7c0.9,0,1.7,0.2,2.3,0.6c0.6,0.4,0.9,0.9,0.9,1.6c0,0.8-0.5,1.5-1.5,2.1C572,976.1,571.1,976.3,570.2,976.3
		z"/>
	<path class="st1" d="M594.7,974.5c2.1,0,3.7,0.3,5,0.9c1.4,0.6,2,1.5,2,2.6c0,0.2,0,0.3-0.1,0.5l-0.8,4.6c-0.2,1-0.7,1.9-1.5,2.6
		s-1.8,1.1-2.8,1.1c-0.9,0-1.6-0.3-2.2-0.9c-0.6-0.6-0.9-1.3-0.9-2.1c0-0.2,0-0.4,0.1-0.6l0.6-3.5c0-0.1,0-0.2,0-0.3
		c0-0.6-0.2-1.1-0.7-1.4c-0.5-0.4-1.1-0.6-1.9-0.6h-4.2c-0.4,0-0.7,0.1-1.1,0.4c-0.3,0.3-0.5,0.6-0.6,1l-0.8,4.4
		c-0.2,1-0.7,1.9-1.5,2.6c-0.8,0.7-1.8,1.1-2.8,1.1c-0.9,0-1.6-0.3-2.2-0.9c-0.6-0.6-0.9-1.3-0.9-2.1c0-0.2,0-0.4,0.1-0.6l1.2-7
		c0.2-1.1,1.3-1.7,3.3-1.7H594.7z"/>
	<path class="st1" d="M627.7,973.7c2,0,2.9,0.6,2.7,1.7l-2.4,13.4c-0.2,1.3-1.1,2.3-2.8,3c-1.5,0.7-3.4,1-5.6,1h-11.8
		c-0.4,0-0.7-0.1-0.9-0.4c-0.2-0.3-0.3-0.6-0.2-1c0.1-0.4,0.3-0.7,0.6-1c0.3-0.3,0.7-0.4,1.1-0.4h9.2c0.8,0,1.6-0.2,2.2-0.7
		c0.7-0.5,1.1-1,1.2-1.6l0.2-0.9H613c-2.1,0-3.7-0.3-5-0.9c-1.4-0.6-2-1.5-2-2.6c0-0.2,0-0.3,0.1-0.5l0.8-4.9c0.2-1.3,1.2-2.3,2.8-3
		c1.5-0.7,3.4-1,5.6-1H627.7z M620.2,983.9c0.4,0,0.7-0.1,1.1-0.4c0.3-0.3,0.5-0.6,0.6-1l0.8-4.5c0.1-0.4,0-0.7-0.2-1
		s-0.5-0.4-0.9-0.4h-4.2c-2,0-3.1,0.6-3.3,1.7l-0.7,4c-0.2,1.1,0.7,1.7,2.7,1.7H620.2z"/>
	<path class="st1" d="M665.3,974.5c2.1,0,3.8,0.3,5,0.9c1.4,0.6,2,1.5,2,2.6c0,0.2,0,0.3,0,0.5l-0.8,4.2c-0.2,1.3-1.1,2.3-2.8,3
		c-1.5,0.7-3.4,1-5.6,1h-7.7c-2.1,0-3.7-0.3-5-0.9c-1.4-0.6-2-1.5-2-2.6c0-0.2,0-0.3,0.1-0.5l0.7-4.2c0.2-1.3,1.2-2.3,2.8-3
		c1.5-0.7,3.4-1,5.6-1H665.3z M664.5,981.6l0.4-2c0-0.1,0-0.2,0-0.3c0-0.6-0.2-1.1-0.8-1.4c-0.5-0.4-1.1-0.6-1.9-0.6h-2.6
		c-0.8,0-1.6,0.2-2.2,0.7c-0.7,0.4-1.1,1-1.2,1.7l-0.3,2c0,0.1,0,0.2,0,0.3c0,0.6,0.2,1.1,0.8,1.4c0.5,0.4,1.1,0.6,1.9,0.6h2.6
		c0.8,0,1.6-0.2,2.2-0.7C664,982.8,664.3,982.2,664.5,981.6z"/>
	<path class="st1" d="M693.4,974.5c2.1,0,3.7,0.3,5,0.9c1.4,0.6,2,1.5,2,2.6c0,0.2,0,0.3-0.1,0.5l-0.8,4.6c-0.2,1-0.7,1.9-1.5,2.6
		c-0.8,0.7-1.8,1.1-2.8,1.1c-0.9,0-1.6-0.3-2.2-0.9c-0.6-0.6-0.9-1.3-0.9-2.1c0-0.2,0-0.4,0.1-0.6l0.6-3.5c0-0.1,0-0.2,0-0.3
		c0-0.6-0.2-1.1-0.7-1.4c-0.5-0.4-1.1-0.6-1.9-0.6h-4.2c-0.4,0-0.7,0.1-1.1,0.4c-0.3,0.3-0.5,0.6-0.6,1l-0.8,4.4
		c-0.2,1-0.7,1.9-1.5,2.6c-0.8,0.7-1.8,1.1-2.8,1.1c-0.9,0-1.6-0.3-2.2-0.9c-0.6-0.6-0.9-1.3-0.9-2.1c0-0.2,0-0.4,0.1-0.6l1.2-7
		c0.2-1.1,1.3-1.7,3.3-1.7H693.4z"/>
	<path class="st1" d="M717,971.6c4.8,0,7.1,1,7.1,3c0,0.2,0,0.3-0.1,0.5c-0.2,1.2-1.1,2.1-2.7,2.6c-1.3,0.4-3.1,0.6-5.6,0.6
		c-1.2,0-1.8,0.3-1.9,0.8h-0.1c0,0.1,0,0.2,0,0.3c-0.1,0.5-0.5,0.9-1.3,1.3c-0.8,0.4-1.7,0.5-2.7,0.5s-1.8-0.2-2.5-0.5
		c-0.7-0.4-0.9-0.8-0.8-1.3c0-0.1,0.1-0.1,0.1-0.3h-0.1c0.4-2.4,3.2-3.6,8.2-3.6c1.4,0,1.8,0,1.2,0c0.4,0,0.6-0.2,0.7-0.4
		c0.1-0.4-0.5-0.6-1.7-0.6h-12.5c-0.4,0-0.7-0.1-0.9-0.4c-0.2-0.3-0.3-0.6-0.2-1s0.3-0.7,0.6-1s0.7-0.4,1.1-0.4H717z M709.8,982
		c0.9,0,1.7,0.2,2.3,0.6c0.6,0.4,0.9,0.9,0.9,1.6c0,0.8-0.5,1.5-1.5,2.1c-0.8,0.5-1.7,0.7-2.6,0.7c-0.9,0-1.7-0.2-2.3-0.6
		c-0.6-0.4-0.9-0.9-0.9-1.6c0-0.8,0.5-1.5,1.5-2.1C708,982.3,708.9,982,709.8,982z"/>
	<path class="st1" d="M744.1,971.6c4.8,0,7.1,1,7.1,3c0,0.2,0,0.3-0.1,0.5c-0.2,1.2-1.1,2.1-2.7,2.6c-1.3,0.4-3.1,0.6-5.6,0.6
		c-1.2,0-1.8,0.3-1.9,0.8h-0.1c0,0.1,0,0.2,0,0.3c-0.1,0.5-0.5,0.9-1.3,1.3c-0.8,0.4-1.7,0.5-2.7,0.5s-1.8-0.2-2.5-0.5
		c-0.7-0.4-0.9-0.8-0.8-1.3c0-0.1,0.1-0.1,0.1-0.3h-0.1c0.4-2.4,3.2-3.6,8.2-3.6c1.4,0,1.8,0,1.2,0c0.4,0,0.6-0.2,0.7-0.4
		c0.1-0.4-0.5-0.6-1.7-0.6h-12.5c-0.4,0-0.7-0.1-0.9-0.4s-0.3-0.6-0.2-1s0.3-0.7,0.6-1s0.7-0.4,1.1-0.4H744.1z M736.8,982
		c0.9,0,1.7,0.2,2.3,0.6c0.6,0.4,0.9,0.9,0.9,1.6c0,0.8-0.5,1.5-1.5,2.1c-0.8,0.5-1.7,0.7-2.6,0.7c-0.9,0-1.7-0.2-2.3-0.6
		c-0.6-0.4-0.9-0.9-0.9-1.6c0-0.8,0.5-1.5,1.5-2.1C735,982.3,735.9,982,736.8,982z"/>
</g>
<g class="st4">
	<path class="st2" d="M84.1,513.5V562h48.9v16H62v-64.5H84.1z"/>
	<path class="st2" d="M214,513.3V528h-52.5v9.6h51.3v14.8h-51.3v10.6h53.5v15h-75.2v-64.7H214z"/>
	<path class="st2" d="M250.3,528.8h-30.3v-15.3h82.8v15.3h-30.3V578h-22.2V528.8z"/>
	<path class="st2" d="M317.9,516l-8.5-11.2h18.4L335,516H317.9z"/>
	<path class="st2" d="M384.8,579.1c-7,0-13.1-0.5-18.3-1.6c-5.2-1.1-9.3-2.4-12.1-4c-2.8-1.6-5.1-3.5-6.8-5.7
		c-1.7-2.2-2.7-4.2-3.2-6c-0.5-1.8-0.7-3.7-0.7-5.7v-1h23c0.5,6.8,5.5,10.2,18.9,10.2h5.1c4.4,0,6.3-0.2,9.2-0.6s5-0.9,6.3-1.6
		s2.2-1.4,2.6-2.1c0.4-0.7,0.7-1.6,0.7-2.6c0-1.4-0.4-2.5-1.1-3.3c-0.8-0.8-2.5-1.5-5.3-2.1c-2.8-0.6-6.8-1-12-1.1l-6.9-0.1
		l-5.2-0.1c-22.9-0.6-34.3-6.9-34.3-18.9v-0.8c0-2.1,0.3-4,0.9-5.8c0.6-1.8,1.7-3.5,3.4-5.3c1.7-1.8,3.9-3.3,6.7-4.5
		c2.7-1.2,6.4-2.2,11.1-3c4.7-0.8,10.1-1.2,16.3-1.2h6.5c6.4,0,12.1,0.4,17,1.2c4.9,0.8,8.8,1.8,11.8,3.1c2.9,1.3,5.3,2.8,7.2,4.7
		c1.9,1.9,3.1,3.7,3.8,5.5c0.7,1.8,1,3.8,1,5.9v0.9h-22.9c-0.1-0.7-0.3-1.3-0.5-1.8c-0.2-0.5-0.7-1.1-1.6-2s-1.9-1.5-3.2-2
		c-1.3-0.5-3.3-1-5.9-1.4c-2.6-0.4-4.6-0.6-8.1-0.6h-3.3c-5.3,0-8.6,0.3-11.5,0.9s-4.6,1.2-5.2,1.9c-0.6,0.7-0.9,1.6-0.9,2.7
		c0,1.1,0.3,2,1,2.7c0.7,0.7,2.2,1.3,4.7,1.9c2.5,0.6,6,0.9,10.5,1l5.2,0.1l6.6,0.1c13.1,0.2,22.6,1.9,28.4,4.9s8.7,7.8,8.7,14.3
		v1.2c0,2.4-0.3,4.5-0.9,6.4c-0.6,1.9-1.7,3.8-3.5,5.8c-1.8,2-4.1,3.6-7,4.9c-2.9,1.3-6.9,2.4-12,3.3c-5.1,0.8-11,1.3-17.8,1.3
		L384.8,579.1L384.8,579.1z"/>
	<path class="st2" d="M534.4,579.1c-7.3,0-13.8-0.7-19.4-2.2c-5.7-1.4-10.2-3.3-13.5-5.5c-3.4-2.2-6.1-4.8-8.3-7.8s-3.6-5.8-4.4-8.6
		c-0.8-2.7-1.2-5.5-1.2-8.3v-2.4c0-2.8,0.3-5.6,1-8.2c0.7-2.6,2-5.4,4.2-8.4s4.8-5.5,8.2-7.7s7.9-4,13.8-5.4
		c5.9-1.4,12.7-2.2,20.4-2.2h4.1c7.5,0,14.1,0.6,19.8,1.7c5.7,1.2,10.2,2.6,13.4,4.3c3.2,1.7,5.9,3.7,8,6.1c2.1,2.3,3.5,4.5,4.2,6.4
		s1.1,3.9,1.1,5.9v0.1h-23.4c-2.3-6.1-10.7-9.2-25-9.2c-17.8,0-26.7,5.8-26.7,17.4v1c0,4.7,2.2,8.8,6.6,12.2c4.4,3.4,11,5.1,20,5.1
		c3.9,0,7.5-0.3,10.8-0.8c3.3-0.5,5.9-1.2,7.8-1.9c1.9-0.8,3.6-1.6,5-2.5c1.4-0.9,2.3-1.7,2.8-2.4c0.5-0.7,0.8-1.2,0.8-1.6v-0.2
		h-27.5v-12.2h49.4v36.1h-15.8c0,0-0.1-5.8-0.2-10c-7,7.4-18.3,11.2-33.8,11.2H534.4z"/>
	<path class="st2" d="M670.5,513.3V528H618v9.6h51.3v14.8H618v10.6h53.5v15h-75.2v-64.7H670.5z"/>
	<path class="st2" d="M706.8,528.8h-30.3v-15.3h82.8v15.3h-30.3V578h-22.2V528.8z"/>
</g>
<g class="st4">
	<path class="st1" d="M96.4,667c-7,0-13.1-0.5-18.3-1.6c-5.2-1.1-9.3-2.4-12.1-4c-2.8-1.6-5.1-3.5-6.8-5.7c-1.7-2.2-2.7-4.2-3.2-6
		c-0.5-1.8-0.7-3.7-0.7-5.7v-1h23c0.5,6.8,5.5,10.2,18.9,10.2h5.1c4.4,0,6.3-0.2,9.2-0.6s5-0.9,6.3-1.6c1.3-0.7,2.2-1.4,2.6-2.1
		c0.4-0.7,0.7-1.6,0.7-2.6c0-1.4-0.4-2.5-1.1-3.3s-2.5-1.5-5.3-2.1c-2.8-0.6-6.8-1-12-1.1l-6.9-0.1l-5.2-0.1
		c-22.9-0.6-34.3-6.9-34.3-18.9v-0.8c0-2.1,0.3-4,0.9-5.8c0.6-1.8,1.7-3.5,3.4-5.3c1.7-1.8,3.9-3.3,6.7-4.5c2.7-1.2,6.4-2.2,11.1-3
		c4.7-0.8,10.1-1.2,16.3-1.2h6.5c6.4,0,12.1,0.4,17,1.2c4.9,0.8,8.8,1.8,11.8,3.1c2.9,1.3,5.3,2.8,7.2,4.7c1.9,1.9,3.1,3.7,3.8,5.5
		c0.7,1.8,1,3.8,1,5.9v0.9H119c-0.1-0.7-0.3-1.3-0.5-1.8c-0.2-0.5-0.7-1.1-1.6-2s-1.9-1.5-3.2-2c-1.3-0.5-3.3-1-5.9-1.4
		c-2.6-0.4-4.6-0.6-8.1-0.6h-3.3c-5.3,0-8.6,0.3-11.5,0.9s-4.6,1.2-5.2,1.9c-0.6,0.7-0.9,1.6-0.9,2.7c0,1.1,0.3,2,1,2.7
		c0.7,0.7,2.2,1.3,4.7,1.9c2.5,0.6,6,0.9,10.5,1l5.2,0.1l6.6,0.1c13.1,0.2,22.6,1.9,28.4,4.9c5.8,3,8.7,7.8,8.7,14.3v1.2
		c0,2.4-0.3,4.5-0.9,6.4c-0.6,1.9-1.7,3.8-3.5,5.8c-1.8,2-4.1,3.6-7,4.9c-2.9,1.3-6.9,2.4-12,3.3c-5.1,0.8-11,1.3-17.8,1.3L96.4,667
		L96.4,667z"/>
	<path class="st1" d="M178.3,616.6h-30.3v-15.3h82.8v15.3h-30.3v49.3h-22.2V616.6z"/>
	<path class="st1" d="M322,665.7h-21.6l-6-11.7h-46l-6,11.7h-21.6l34.3-63.8h32.7L322,665.7z M287,639.7l-12.1-23.4h-6.9l-12.1,23.4
		H287z"/>
	<path class="st1" d="M406.8,648.3v17.5h-20v-11.3c0-3.9-1-6.8-3-8.5c-2-1.8-5.4-2.6-10.3-2.6h-26v22.5h-20v-63.5h51.4
		c18.4,0,27.7,5.5,27.7,16.5v1c0,6.7-3.9,11.3-11.8,13.9c3.6,1,6.5,2.7,8.7,5.2C405.7,641.3,406.8,644.5,406.8,648.3z M385.7,622.9
		c0-1.8-0.7-3.3-2-4.4c-1.3-1.1-3.3-1.7-6.1-1.7h-30.2v12.5h30.2c2.7,0,4.8-0.6,6.1-1.7C385,626.4,385.7,624.9,385.7,622.9
		L385.7,622.9z"/>
	<path class="st1" d="M442.2,616.6H412v-15.3h82.8v15.3h-30.3v49.3h-22.2V616.6z"/>
</g>
<g class="st4">
	<path d="M586.6,601.1v14.7h-52.5v9.6h51.3v14.8h-51.3v10.6h53.5v15h-75.2v-64.7H586.6z"/>
	<path d="M644.1,601.1c6.6,0,12.5,0.4,17.8,1.2c5.3,0.8,9.7,2,13.3,3.5s6.6,3.2,9.1,5.1c2.5,1.9,4.5,4,5.8,6.4
		c1.3,2.4,2.3,4.7,2.9,7s0.9,4.7,0.9,7.3v2.6c0,3.1-0.4,6-1.1,8.6c-0.8,2.7-2.3,5.5-4.5,8.4c-2.2,2.9-5.1,5.4-8.7,7.4
		c-3.5,2-8.3,3.7-14.4,5s-13,2-20.9,2h-46.8v-64.7H644.1z M619.4,650.2h22.9c18.9,0,28.3-5.6,28.3-16.7V633
		c0-11.1-9.4-16.6-28.3-16.6h-22.9V650.2z"/>
	<path d="M722.1,609.5l-5.5,37.7H706l-5.5-37.7H722.1z M720.9,663.6h-19.2v-12.7h19.2V663.6z"/>
</g>
<rect x="105.9" y="465.5" class="st1" width="663.3" height="9.9"/>
<g class="st4">
	<path d="M606.5,342.5c-3.4,0-6.5-0.3-9.2-1s-4.8-1.5-6.4-2.6c-1.6-1-2.9-2.3-3.9-3.7c-1-1.4-1.7-2.8-2.1-4
		c-0.4-1.3-0.6-2.6-0.6-3.9v-1.1c0-1.3,0.2-2.6,0.5-3.9c0.3-1.2,1-2.6,2-4c1-1.4,2.3-2.6,3.9-3.6c1.6-1,3.8-1.9,6.5-2.6
		c2.8-0.7,6-1,9.7-1h1.9c3.5,0,6.7,0.3,9.4,0.8c2.7,0.5,4.8,1.2,6.4,2c1.5,0.8,2.8,1.8,3.8,2.9c1,1.1,1.6,2.1,2,3
		c0.3,0.9,0.5,1.8,0.5,2.8v0h-11.1c-1.1-2.9-5-4.3-11.8-4.3c-8.4,0-12.6,2.7-12.6,8.2v0.4c0,2.2,1,4.2,3.1,5.8
		c2.1,1.6,5.2,2.4,9.4,2.4c1.8,0,3.5-0.1,5.1-0.4c1.5-0.2,2.8-0.5,3.7-0.9c0.9-0.4,1.7-0.7,2.3-1.2s1.1-0.8,1.3-1.1
		c0.3-0.3,0.4-0.6,0.4-0.8v-0.1h-13v-5.8H631V342h-7.5c0,0-0.1-2.7-0.1-4.7c-3.3,3.5-8.6,5.3-16,5.3H606.5z"/>
	<path d="M646,342h-10.4v-30.4H646V342z"/>
	<path d="M685.5,311.5v6.9h-23.9v4.5h23.4v7h-23.4V342h-10.3v-30.4H685.5z"/>
	<path d="M703.5,342.5c-10.3,0-15.4-2.6-15.4-7.8v-0.2h10.2c0,2,2,3,6.1,3h0.1c1.7,0,3.1-0.1,4-0.3c1-0.2,1.6-0.5,1.8-0.7
		c0.2-0.3,0.4-0.6,0.4-1v-0.1c0-0.6-0.3-1.1-1-1.4s-2.1-0.5-4.3-0.5l-4.3-0.1c-2.5-0.1-4.6-0.3-6.4-0.7c-1.8-0.4-3.1-1-4-1.6
		c-0.9-0.7-1.6-1.4-1.9-2.1c-0.4-0.7-0.6-1.5-0.6-2.4v-0.2c0-0.8,0.1-1.4,0.3-2c0.2-0.6,0.6-1.2,1.2-1.8c0.6-0.6,1.5-1.1,2.6-1.6
		c1.1-0.4,2.5-0.7,4.4-1c1.9-0.3,4.1-0.4,6.6-0.4h1.8c10,0,15,2.3,15,6.9v0.3h-10.1c-0.1-0.3-0.1-0.5-0.3-0.7
		c-0.1-0.2-0.4-0.4-0.7-0.7c-0.4-0.3-1-0.5-1.8-0.6s-1.9-0.2-3.1-0.2h0c-2.3,0-3.8,0.1-4.5,0.4c-0.8,0.2-1.2,0.7-1.2,1.3v0.1
		c0,0.5,0.4,1,1.1,1.2c0.7,0.3,2,0.5,4,0.5l4.3,0.1c3.6,0.1,6.4,0.4,8.4,0.9c2,0.6,3.3,1.3,4,2.2c0.7,0.9,1,2.2,1,3.7v0.2
		c0,1.1-0.2,2.1-0.6,2.9c-0.4,0.8-1.2,1.6-2.3,2.4c-1.1,0.7-2.7,1.3-4.9,1.7s-4.8,0.6-8,0.6L703.5,342.5L703.5,342.5z"/>
</g>
<g class="st4">
	<path d="M329.1,410.2v10.2h-10.4v-30.5h24.9c10.3,0,15.5,3.3,15.5,9.9v0.4c0,6.7-5.2,10-15.5,10H329.1z M329.1,403.4h14.3
		c3.2,0,4.8-1.1,4.8-3.2v-0.1c0-2.2-1.6-3.2-4.8-3.2h-14.3V403.4z"/>
	<path d="M362.2,389.9h9.9V402c3-2.8,7-4.2,11.8-4.2h0.3c3.9,0,6.8,0.8,8.7,2.5c2,1.7,2.9,3.7,2.9,6.1v13.9h-10v-10.9
		c0-1.7-0.5-3.1-1.6-4c-1.1-1-2.7-1.4-4.8-1.4c-2.2,0-4,0.5-5.3,1.6s-2,2.5-2,4.3v10.4h-9.9V389.9z"/>
	<path d="M416.7,420.5c-2.7,0-5-0.2-7.1-0.7s-3.7-1.1-5-1.8c-1.2-0.7-2.3-1.6-3.1-2.7c-0.8-1-1.4-2-1.6-3c-0.3-1-0.4-2-0.4-3.1v-0.7
		c0-1.1,0.1-2.1,0.4-3.1c0.3-1,0.8-2,1.6-3c0.8-1,1.8-1.9,3.1-2.6c1.2-0.7,2.9-1.3,5-1.8c2.1-0.4,4.4-0.7,7.1-0.7h3.2
		c11.4,0,17.2,3.7,17.2,11.1v0.7c0,7.6-5.7,11.4-17.2,11.4H416.7z M424.9,412.9c1.3-1.1,2-2.5,2-4v-0.2c0-1.6-0.7-2.9-2-4
		c-1.3-1.1-3.5-1.6-6.6-1.6h0c-3.1,0-5.3,0.5-6.7,1.6s-2,2.4-2,4v0.2c0,1.6,0.7,2.9,2,4c1.3,1.1,3.5,1.7,6.6,1.7
		S423.6,414,424.9,412.9z"/>
	<path d="M445.3,413.9v-9.7h-4.7v-6h4.7v-6.4h9.8v6.4h4.7v6h-4.7v8c0,0.7,0.1,1.1,0.4,1.5c0.3,0.3,0.8,0.5,1.6,0.5h2.7v6h-8.6
		C447.3,420.2,445.3,418.1,445.3,413.9z"/>
	<path d="M480.6,420.5c-2.7,0-5-0.2-7.1-0.7s-3.7-1.1-5-1.8c-1.2-0.7-2.3-1.6-3.1-2.7c-0.8-1-1.4-2-1.6-3c-0.3-1-0.4-2-0.4-3.1v-0.7
		c0-1.1,0.1-2.1,0.4-3.1c0.3-1,0.8-2,1.6-3c0.8-1,1.8-1.9,3.1-2.6c1.2-0.7,2.9-1.3,5-1.8c2.1-0.4,4.4-0.7,7.1-0.7h3.2
		c11.4,0,17.2,3.7,17.2,11.1v0.7c0,7.6-5.7,11.4-17.2,11.4H480.6z M488.8,412.9c1.3-1.1,2-2.5,2-4v-0.2c0-1.6-0.7-2.9-2-4
		c-1.3-1.1-3.5-1.6-6.6-1.6h0c-3.1,0-5.3,0.5-6.7,1.6s-2,2.4-2,4v0.2c0,1.6,0.7,2.9,2,4c1.3,1.1,3.5,1.7,6.6,1.7
		S487.5,414,488.8,412.9z"/>
	<path d="M540.9,397.2v19.6c0,1-0.1,2-0.3,3c-0.2,1-0.7,2.1-1.4,3.4c-0.7,1.3-1.7,2.4-2.8,3.3c-1.2,0.9-2.8,1.7-5,2.4s-4.6,1-7.4,1
		h-21.1v-6.5h20.6c4.9-0.3,7.4-2.6,7.4-6.9c-2.7,2.4-6.6,3.6-11.8,3.6h-0.5c-5.3,0-9.3-1.1-11.9-3.2c-2.6-2.1-3.9-4.9-3.9-8.3v-0.9
		c0-3.2,1.2-5.9,3.5-8c2.3-2.1,6-3.2,11-3.2h0.9c5.6,0,9.8,1.3,12.6,3.8v-3.2H540.9z M530.7,408.3c0-1.5-0.8-2.8-2.3-3.9
		c-1.5-1-3.8-1.6-6.8-1.6h-0.3c-3,0-5.1,0.5-6.3,1.5c-1.3,1-1.9,2.3-1.9,3.8v0.2c0,1.5,0.7,2.9,2,4c1.3,1.1,3.4,1.6,6.3,1.6h0.3
		c3,0,5.2-0.5,6.8-1.6c1.6-1.1,2.3-2.4,2.3-3.9V408.3z"/>
	<path d="M574.2,397.2v5.2c0,0-13.2,0-14.4,0.1s-2.9,1.1-3.7,2.2c-0.9,1-1.3,2.3-1.3,3.9v11.6h-9.4v-22.5h9.3v4
		c0.4-0.6,0.9-1.2,1.5-1.8c0.6-0.6,1.6-1.2,3-1.8c1.4-0.6,3-0.9,4.7-0.9H574.2z"/>
	<path d="M609.2,414.5v6.1h-7.6c-2.1,0-3.2-1-3.6-3.1c-0.7,0.9-1.9,1.7-3.6,2.4c-1.7,0.7-4,1.1-6.9,1.1h-0.5c-3.6,0-6.2-0.7-8-2.1
		c-1.7-1.4-2.6-3.2-2.6-5.3v-0.3c0-2.1,0.7-3.6,2.2-4.7c1.5-1.1,3.9-1.8,7.3-2.1l10.4-1c1-0.1,1.4-0.5,1.4-1.2
		c0-0.4-0.1-0.7-0.3-0.9c-0.2-0.2-0.7-0.4-1.7-0.7c-0.9-0.2-2.2-0.3-4-0.3l-15.4,0v-5.2h16.4c2.5,0,4.7,0.2,6.5,0.5s3.2,0.7,4.1,1.1
		c1,0.4,1.7,1,2.2,1.7c0.5,0.7,0.9,1.4,1,1.9c0.1,0.6,0.2,1.2,0.2,2.1v8.7c0,0.8,0.4,1.1,1.2,1.1H609.2z M597.7,409.9l-9,1.4
		c-1.3,0.2-2.2,0.4-2.7,0.7c-0.5,0.3-0.8,0.8-0.8,1.4v0c0,0.7,0.3,1.3,1,1.8c0.6,0.5,1.7,0.8,3.2,0.8c2.4,0,4.4-0.5,5.9-1.6
		s2.3-2.3,2.3-3.7V409.9z"/>
	<path d="M622.2,397.8v3.1c3.1-2.5,7.1-3.7,12.2-3.7h0.8c2.6,0,4.9,0.3,6.8,0.9c1.9,0.6,3.4,1.4,4.5,2.4s1.9,2.2,2.4,3.5
		c0.5,1.3,0.8,2.7,0.8,4.3v0.8c0,1.5-0.3,2.9-0.8,4.2c-0.5,1.3-1.3,2.5-2.5,3.6s-2.7,1.9-4.6,2.6c-2,0.6-4.3,0.9-6.9,0.9h-0.7
		c-3.1,0-5.6-0.4-7.7-1.3c-2.1-0.8-3.5-1.6-4.2-2.4v10.8h-9.9v-29.7H622.2z M622.2,408.8c0,1.5,0.8,2.9,2.3,4
		c1.5,1.1,3.7,1.7,6.5,1.7h0.2c2.9,0,5-0.6,6.3-1.7c1.3-1.1,1.9-2.5,1.9-4v-0.2c0-1.6-0.6-3-1.9-4.1c-1.3-1.1-3.4-1.6-6.3-1.6h-0.2
		c-2.9,0-5.1,0.6-6.6,1.7c-1.5,1.1-2.2,2.5-2.2,4V408.8z"/>
	<path d="M654.1,389.9h9.9V402c3-2.8,7-4.2,11.8-4.2h0.3c3.9,0,6.8,0.8,8.7,2.5c2,1.7,2.9,3.7,2.9,6.1v13.9h-10v-10.9
		c0-1.7-0.5-3.1-1.6-4c-1.1-1-2.7-1.4-4.8-1.4c-2.2,0-4,0.5-5.3,1.6s-2,2.5-2,4.3v10.4h-9.9V389.9z"/>
	<path d="M725.4,398.9l-12.3,24.9c-1.2,2.3-2.4,4-3.7,5c-1.3,1-2.9,1.6-5,1.6h-14.2v-7l11.2,0c0.8,0,1.1-0.2,1.1-0.7
		c0-0.3-0.4-1.1-1.1-2.5l-11.2-21.4h10.5l7.5,15.8l7.3-15.8H725.4z"/>
</g>
<g class="st4">
	<path d="M55.2,806.5c-3.4,0-6.5-0.3-9.2-1s-4.8-1.5-6.4-2.6c-1.6-1-2.9-2.3-3.9-3.7c-1-1.4-1.7-2.8-2.1-4s-0.6-2.6-0.6-3.9v-1.1
		c0-1.3,0.2-2.6,0.5-3.9s1-2.6,2-4c1-1.4,2.3-2.6,3.9-3.6c1.6-1,3.8-1.9,6.5-2.6c2.8-0.7,6-1,9.7-1h1.9c3.5,0,6.7,0.3,9.4,0.8
		c2.7,0.5,4.8,1.2,6.4,2c1.5,0.8,2.8,1.8,3.8,2.9c1,1.1,1.6,2.1,2,3c0.3,0.9,0.5,1.8,0.5,2.8v0H68.4c-1.1-2.9-5-4.3-11.8-4.3
		c-8.4,0-12.6,2.7-12.6,8.2v0.4c0,2.2,1,4.2,3.1,5.8c2.1,1.6,5.2,2.4,9.4,2.4c1.8,0,3.5-0.1,5.1-0.4c1.5-0.2,2.8-0.5,3.7-0.9
		c0.9-0.4,1.7-0.7,2.3-1.2c0.6-0.4,1.1-0.8,1.3-1.1c0.3-0.3,0.4-0.6,0.4-0.8v-0.1h-13v-5.8h23.4V806h-7.5c0,0-0.1-2.7-0.1-4.7
		c-3.3,3.5-8.6,5.3-16,5.3H55.2z"/>
	<path d="M112.8,782.8v5.2c0,0-13.2,0-14.4,0.1s-2.9,1.1-3.7,2.2c-0.9,1-1.3,2.3-1.3,3.9v11.6H84v-22.5h9.3v4
		c0.4-0.6,0.9-1.2,1.5-1.8c0.6-0.6,1.6-1.2,3-1.8c1.4-0.6,3-0.9,4.7-0.9H112.8z"/>
	<path d="M147.8,800.1v6.1h-7.6c-2.1,0-3.2-1-3.6-3.1c-0.7,0.9-1.9,1.7-3.6,2.4c-1.7,0.7-4,1.1-6.9,1.1h-0.5c-3.6,0-6.2-0.7-8-2.1
		c-1.7-1.4-2.6-3.2-2.6-5.3V799c0-2.1,0.7-3.6,2.2-4.7c1.5-1.1,3.9-1.8,7.3-2.1l10.4-1c1-0.1,1.4-0.5,1.4-1.2c0-0.4-0.1-0.7-0.3-0.9
		c-0.2-0.2-0.7-0.4-1.7-0.7c-0.9-0.2-2.2-0.3-4-0.3l-15.4,0V783h16.4c2.5,0,4.7,0.2,6.5,0.5s3.2,0.7,4.1,1.1c1,0.4,1.7,1,2.2,1.7
		c0.5,0.7,0.9,1.4,1,1.9c0.1,0.6,0.2,1.2,0.2,2.1v8.7c0,0.8,0.4,1.1,1.2,1.1H147.8z M136.3,795.5l-9,1.4c-1.3,0.2-2.2,0.4-2.7,0.7
		s-0.8,0.8-0.8,1.4v0c0,0.7,0.3,1.3,1,1.8c0.6,0.5,1.7,0.8,3.2,0.8c2.4,0,4.4-0.5,5.9-1.6c1.5-1.1,2.3-2.3,2.3-3.7V795.5z"/>
	<path d="M160.9,783.5v3.1c3.1-2.5,7.1-3.7,12.2-3.7h0.8c2.6,0,4.9,0.3,6.8,0.9s3.4,1.4,4.5,2.4s1.9,2.2,2.4,3.5
		c0.5,1.3,0.8,2.7,0.8,4.3v0.8c0,1.5-0.3,2.9-0.8,4.2c-0.5,1.3-1.3,2.5-2.5,3.6c-1.1,1.1-2.7,1.9-4.6,2.6c-2,0.6-4.3,0.9-6.9,0.9
		h-0.7c-3.1,0-5.6-0.4-7.7-1.3c-2.1-0.8-3.5-1.6-4.2-2.4v10.8h-9.9v-29.7H160.9z M160.9,794.5c0,1.5,0.8,2.9,2.3,4
		c1.5,1.1,3.7,1.7,6.5,1.7h0.2c2.9,0,5-0.6,6.3-1.7c1.3-1.1,1.9-2.5,1.9-4v-0.2c0-1.6-0.6-3-1.9-4.1c-1.3-1.1-3.4-1.6-6.3-1.6h-0.2
		c-2.9,0-5.1,0.6-6.6,1.7c-1.5,1.1-2.2,2.5-2.2,4V794.5z"/>
	<path d="M192.8,775.5h9.9v12.1c3-2.8,7-4.2,11.8-4.2h0.3c3.9,0,6.8,0.8,8.7,2.5c2,1.7,2.9,3.7,2.9,6.1v13.9h-10V795
		c0-1.7-0.5-3.1-1.6-4c-1.1-1-2.7-1.4-4.8-1.4c-2.2,0-4,0.5-5.3,1.6s-2,2.5-2,4.3v10.4h-9.9V775.5z"/>
	<path d="M240.9,781.8H231v-6.3h9.9V781.8z M240.9,805.9H231v-22h9.9V805.9z"/>
	<path d="M262,806.2c-2.6,0-4.9-0.2-7-0.7c-2-0.5-3.6-1.1-4.8-1.8c-1.2-0.7-2.2-1.6-2.9-2.7s-1.3-2-1.6-3c-0.3-1-0.4-2-0.4-3.1V794
		c0-1.1,0.1-2.1,0.4-3c0.3-1,0.8-2,1.5-3c0.8-1,1.7-1.9,2.9-2.6c1.2-0.7,2.8-1.3,4.8-1.8c2-0.5,4.3-0.7,6.9-0.7h2.5
		c2.9,0,5.3,0.2,7.5,0.7s3.8,1.1,4.9,1.8c1.1,0.7,2.1,1.5,2.8,2.5c0.7,0.9,1.2,1.8,1.4,2.5c0.2,0.7,0.3,1.4,0.3,2.1v0.1h-10.2
		c-0.7-2.6-3.3-4-7.9-4h-0.1c-2.7,0-4.6,0.5-5.8,1.5s-1.8,2.3-1.8,3.9v0.3c0,1.7,0.6,3.1,1.8,4.2c1.2,1.1,3.1,1.7,5.8,1.7h0.1
		c4.6,0,7.2-1.3,7.9-4h10.2v0.1c0,0.8-0.1,1.5-0.3,2.2c-0.2,0.7-0.6,1.6-1.3,2.5c-0.7,1-1.6,1.8-2.7,2.5s-2.8,1.3-5,1.8
		c-2.2,0.5-4.7,0.8-7.6,0.8L262,806.2L262,806.2z"/>
	<path d="M346.6,775.2v30.4h-9.9v-3.3c-0.2,0.3-0.6,0.6-1.1,1c-0.5,0.4-1.2,0.8-2.1,1.2c-0.9,0.5-2.1,0.9-3.7,1.2
		c-1.5,0.3-3.2,0.5-4.9,0.5h-0.6c-5,0-8.8-1.1-11.3-3.2c-2.5-2.1-3.8-4.8-3.8-8.2v-0.8c0-3.2,1.2-5.8,3.6-7.9
		c2.4-2,6.1-3.1,11.1-3.1h0.7c5.1,0,9.1,1.2,12,3.5v-11.4H346.6z M336.6,794.5c0-1.5-0.8-2.8-2.5-4s-3.8-1.7-6.6-1.7h-0.2
		c-2.9,0-4.9,0.5-6.1,1.6c-1.2,1.1-1.8,2.4-1.8,4v0.2c0,1.5,0.7,2.9,2,4c1.3,1.1,3.4,1.7,6.1,1.7h0.2c2.8,0,5-0.6,6.6-1.7
		c1.6-1.1,2.4-2.5,2.4-4L336.6,794.5L336.6,794.5z"/>
	<path d="M386.6,799.9c-0.2,0.7-0.7,1.4-1.4,2.2c-0.7,0.8-1.6,1.5-2.8,2.1s-2.7,1.1-4.8,1.5c-2.1,0.4-4.5,0.6-7.2,0.6h-2.5
		c-3.1,0-5.8-0.3-8-0.9c-2.3-0.6-4-1.5-5.3-2.6c-1.2-1.1-2.2-2.3-2.7-3.6c-0.6-1.3-0.9-2.7-0.9-4.2v-0.9c0-1.5,0.3-2.9,0.8-4.1
		c0.5-1.3,1.4-2.4,2.6-3.5s2.9-1.9,5.2-2.5c2.2-0.6,4.9-0.9,8-0.9h2.7c11.1,0,16.7,4,16.7,11.8v1.5h-26.2c0.7,2.9,3.5,4.3,8.5,4.3h0
		c1.2,0,2.4-0.1,3.3-0.2c1-0.2,1.7-0.4,2.2-0.6s1-0.5,1.3-0.8s0.6-0.5,0.7-0.7c0.1-0.2,0.2-0.3,0.2-0.5h9.8v0
		C386.9,798.6,386.8,799.2,386.6,799.9z M369,788.1c-4.5,0-7.2,1.2-8,3.7h16C376.3,789.4,373.6,788.1,369,788.1L369,788.1z"/>
	<path d="M405.9,806.5c-10.3,0-15.4-2.6-15.4-7.8v-0.2h10.2c0,2,2,3,6.1,3h0.1c1.7,0,3.1-0.1,4-0.3c1-0.2,1.6-0.5,1.8-0.7
		c0.2-0.3,0.4-0.6,0.4-1v-0.1c0-0.6-0.3-1.1-1-1.4s-2.1-0.5-4.3-0.5l-4.3-0.1c-2.5-0.1-4.6-0.3-6.4-0.7c-1.8-0.4-3.1-1-4-1.6
		c-0.9-0.7-1.6-1.4-1.9-2.1c-0.4-0.7-0.6-1.5-0.6-2.4v-0.2c0-0.8,0.1-1.4,0.3-2c0.2-0.6,0.6-1.2,1.2-1.8c0.6-0.6,1.5-1.1,2.6-1.6
		c1.1-0.4,2.5-0.7,4.4-1c1.9-0.3,4.1-0.4,6.6-0.4h1.8c10,0,15,2.3,15,6.9v0.3h-10.1c-0.1-0.3-0.1-0.5-0.3-0.7
		c-0.1-0.2-0.4-0.4-0.7-0.7c-0.4-0.3-1-0.5-1.8-0.6s-1.9-0.2-3.1-0.2h0c-2.3,0-3.8,0.1-4.5,0.4c-0.8,0.2-1.2,0.7-1.2,1.3v0.1
		c0,0.5,0.4,1,1.1,1.2c0.7,0.3,2,0.5,4,0.5l4.3,0.1c3.6,0.1,6.4,0.4,8.4,0.9c2,0.6,3.3,1.3,4,2.2c0.7,0.9,1,2.2,1,3.7v0.2
		c0,1.1-0.2,2.1-0.6,2.9c-0.4,0.8-1.2,1.6-2.3,2.4c-1.1,0.7-2.7,1.3-4.9,1.7s-4.8,0.6-8,0.6L405.9,806.5L405.9,806.5z"/>
	<path d="M436.9,781.8H427v-6.3h9.9V781.8z M436.9,805.9H427v-22h9.9V805.9z"/>
	<path d="M477.8,782.9v19.6c0,1-0.1,2-0.3,3c-0.2,1-0.7,2.1-1.4,3.4c-0.7,1.3-1.7,2.4-2.8,3.3c-1.2,0.9-2.8,1.7-5,2.4
		c-2.1,0.6-4.6,1-7.4,1h-21.1v-6.5h20.6c4.9-0.3,7.4-2.6,7.4-6.9c-2.7,2.4-6.6,3.6-11.8,3.6h-0.5c-5.3,0-9.3-1.1-11.9-3.2
		c-2.6-2.1-3.9-4.9-3.9-8.3v-0.9c0-3.2,1.2-5.9,3.5-8c2.3-2.1,6-3.2,11-3.2h0.9c5.6,0,9.8,1.3,12.6,3.8v-3.2H477.8z M467.5,794
		c0-1.5-0.8-2.8-2.3-3.9c-1.5-1-3.8-1.6-6.8-1.6h-0.3c-3,0-5.1,0.5-6.3,1.5c-1.3,1-1.9,2.3-1.9,3.8v0.2c0,1.5,0.7,2.9,2,4
		c1.3,1.1,3.4,1.6,6.3,1.6h0.3c3,0,5.2-0.5,6.8-1.6c1.6-1.1,2.3-2.4,2.3-3.9V794z"/>
	<path d="M492.1,783.8v3.8c3.1-2.8,7.1-4.2,11.9-4.2h0.3c3.9,0,6.8,0.8,8.8,2.5c1.9,1.7,2.9,3.7,2.9,6.1v13.9h-10v-10.9
		c0-1.7-0.5-3.1-1.6-4c-1.1-1-2.7-1.4-4.8-1.4c-2.2,0-4,0.5-5.3,1.6s-2,2.5-2,4.3v10.4h-9.9v-22H492.1z"/>
</g>
<g class="st4">
	<path d="M56.5,890.9c-3.4,0-6.5-0.3-9.2-1s-4.8-1.5-6.4-2.6c-1.6-1-2.9-2.3-3.9-3.7c-1-1.4-1.7-2.8-2.1-4s-0.6-2.6-0.6-3.9v-1.1
		c0-1.3,0.2-2.6,0.5-3.9s1-2.6,2-4c1-1.4,2.3-2.6,3.9-3.6c1.6-1,3.8-1.9,6.5-2.6c2.8-0.7,6-1,9.7-1h1.9c3.5,0,6.7,0.3,9.4,0.8
		c2.7,0.5,4.8,1.2,6.4,2c1.5,0.8,2.8,1.8,3.8,2.9c1,1.1,1.6,2.1,2,3c0.3,0.9,0.5,1.8,0.5,2.8v0H69.7c-1.1-2.9-5-4.3-11.8-4.3
		c-8.4,0-12.6,2.7-12.6,8.2v0.4c0,2.2,1,4.2,3.1,5.8c2.1,1.6,5.2,2.4,9.4,2.4c1.8,0,3.5-0.1,5.1-0.4c1.5-0.2,2.8-0.5,3.7-0.9
		c0.9-0.4,1.7-0.7,2.3-1.2c0.6-0.4,1.1-0.8,1.3-1.1c0.3-0.3,0.4-0.6,0.4-0.8v-0.1h-13v-5.8H81v17.1h-7.5c0,0-0.1-2.7-0.1-4.7
		c-3.3,3.5-8.6,5.3-16,5.3H56.5z"/>
	<path d="M121.2,882.3c0,0.7-0.1,1.4-0.3,2c-0.2,0.7-0.7,1.4-1.4,2.2c-0.7,0.8-1.6,1.5-2.8,2.1s-2.7,1.1-4.8,1.5
		c-2.1,0.4-4.5,0.6-7.2,0.6h-2.5c-3.1,0-5.8-0.3-8-0.9c-2.3-0.6-4-1.5-5.3-2.6c-1.2-1.1-2.2-2.3-2.7-3.6c-0.6-1.3-0.9-2.7-0.9-4.2
		v-0.9c0-1.5,0.3-2.9,0.8-4.1c0.5-1.3,1.4-2.4,2.6-3.5s2.9-1.9,5.2-2.5c2.2-0.6,4.9-0.9,8-0.9h2.7c11.1,0,16.7,4,16.7,11.8v1.5H95.1
		c0.7,2.9,3.5,4.3,8.5,4.3h0c1.2,0,2.4-0.1,3.3-0.2c1-0.2,1.7-0.4,2.2-0.6s1-0.5,1.3-0.8s0.6-0.5,0.7-0.7c0.1-0.2,0.2-0.3,0.2-0.5
		L121.2,882.3L121.2,882.3L121.2,882.3z M103.2,872.5c-4.5,0-7.2,1.2-8,3.7h16C110.6,873.8,107.9,872.5,103.2,872.5L103.2,872.5z"/>
	<path d="M135.6,868.2v3.8c3.1-2.8,7.1-4.2,11.9-4.2h0.3c3.9,0,6.8,0.8,8.8,2.5c1.9,1.7,2.9,3.7,2.9,6.1v13.9h-10v-10.9
		c0-1.7-0.5-3.1-1.6-4c-1.1-1-2.7-1.4-4.8-1.4c-2.2,0-4,0.5-5.3,1.6c-1.3,1.1-2,2.5-2,4.3v10.4h-9.9v-22H135.6z"/>
	<path d="M199.8,882.3c0,0.7-0.1,1.4-0.3,2c-0.2,0.7-0.7,1.4-1.4,2.2c-0.7,0.8-1.6,1.5-2.8,2.1s-2.7,1.1-4.8,1.5
		c-2.1,0.4-4.5,0.6-7.2,0.6h-2.5c-3.1,0-5.8-0.3-8-0.9c-2.3-0.6-4-1.5-5.3-2.6c-1.2-1.1-2.2-2.3-2.7-3.6c-0.6-1.3-0.9-2.7-0.9-4.2
		v-0.9c0-1.5,0.3-2.9,0.8-4.1c0.5-1.3,1.4-2.4,2.6-3.5s2.9-1.9,5.2-2.5c2.2-0.6,4.9-0.9,8-0.9h2.7c11.1,0,16.7,4,16.7,11.8v1.5
		h-26.2c0.7,2.9,3.5,4.3,8.5,4.3h0c1.2,0,2.4-0.1,3.3-0.2c1-0.2,1.7-0.4,2.2-0.6s1-0.5,1.3-0.8s0.6-0.5,0.7-0.7
		c0.1-0.2,0.2-0.3,0.2-0.5L199.8,882.3L199.8,882.3L199.8,882.3z M181.8,872.5c-4.5,0-7.2,1.2-8,3.7h16
		C189.2,873.8,186.5,872.5,181.8,872.5L181.8,872.5z"/>
	<path d="M233.2,867.2v5.2c0,0-13.2,0-14.4,0.1s-2.9,1.1-3.7,2.2c-0.9,1-1.3,2.3-1.3,3.9v11.6h-9.4v-22.5h9.3v4
		c0.4-0.6,0.9-1.2,1.5-1.8c0.6-0.6,1.6-1.2,3-1.8c1.4-0.6,3-0.9,4.7-0.9H233.2z"/>
	<path d="M268.1,884.5v6.1h-7.6c-2.1,0-3.2-1-3.6-3.1c-0.7,0.9-1.9,1.7-3.6,2.4c-1.7,0.7-4,1.1-6.9,1.1h-0.5c-3.6,0-6.2-0.7-8-2.1
		c-1.7-1.4-2.6-3.2-2.6-5.3v-0.3c0-2.1,0.7-3.6,2.2-4.7c1.5-1.1,3.9-1.8,7.3-2.1l10.4-1c1-0.1,1.4-0.5,1.4-1.2
		c0-0.4-0.1-0.7-0.3-0.9c-0.2-0.2-0.7-0.4-1.7-0.7c-0.9-0.2-2.2-0.3-4-0.3l-15.4,0v-5.2h16.4c2.5,0,4.7,0.2,6.5,0.5s3.2,0.7,4.1,1.1
		c1,0.4,1.7,1,2.2,1.7c0.5,0.7,0.9,1.4,1,1.9c0.1,0.6,0.2,1.2,0.2,2.1v8.7c0,0.8,0.4,1.1,1.2,1.1H268.1z M256.7,879.9l-9,1.4
		c-1.3,0.2-2.2,0.4-2.7,0.7s-0.8,0.8-0.8,1.4v0c0,0.7,0.3,1.3,1,1.8c0.6,0.5,1.7,0.8,3.2,0.8c2.4,0,4.4-0.5,5.9-1.6
		c1.5-1.1,2.3-2.3,2.3-3.7V879.9z"/>
	<path d="M281.2,890.3h-9.9v-30.4h9.9V890.3z"/>
</g>
<g>
	<g>
		<path class="st1" d="M637,240.6c0.3-3.4-0.3-7.3,1.2-10c3.3-5.9,13.7-6.3,18.3-1.2c1.1,1.2,1.8,3.2,1.9,4.8
			c0.3,3.7,0.1,7.5,0.1,11.3c0,6.7-3.3,9.6-11,9.6c-6.9,0-10.2-3.3-10.3-9.9c0-1.6,0-3.1,0-4.7C637.2,240.6,637.1,240.6,637,240.6z
			 M642.8,248.3c1.4,3.2,5,3.4,7.9,2.2c4.9-2.2,2.9-6.9,3-11.4C649.7,242.4,646.3,245.2,642.8,248.3z M653.2,232.8
			c-2.3-2.7-5.5-3.5-8.8-1.4c-4,2.7-2.1,6.8-1.9,10.7C646.3,238.8,649.6,235.9,653.2,232.8z"/>
		<path class="st1" d="M732.9,240.8c-0.7,4.5,1.3,10.1-4.1,12.4c-3.6,1.5-8.2,2.4-11.9,1.4c-3-0.8-6.1-3.9-5.6-8.5
			c0.4-3.6,0.1-7.2,0.1-10.8c0-5.9,3.3-8.9,9.2-9.2c4.5-0.3,8.8,0.1,10.8,4.3C732.8,233.5,732.4,237.3,732.9,240.8z M716.7,248.3
			c1.5,3.1,5.3,3.5,8.2,2.1c4.7-2.3,2.5-7.1,2.9-11.5C723.7,242.3,720.3,245.2,716.7,248.3z M716.2,242.1c4-3.4,7.4-6.3,10.9-9.2
			c-1.8-3.1-5.3-3.4-8.2-2C714.3,233.2,716.4,237.8,716.2,242.1z"/>
		<path class="st1" d="M661.7,240.7c0.3-3.4-0.3-7.3,1.1-10c3.2-5.8,13.7-6.3,18.3-1.3c1.1,1.2,1.9,3.1,2,4.8
			c0.3,3.7,0.1,7.5,0.1,11.3c0,4.4-2.9,9-6.2,9.7c-5.5,1.2-13.6-1.2-14.7-5.1c-0.8-2.9-0.2-6.2-0.2-9.4
			C662,240.7,661.9,240.7,661.7,240.7z M667.4,248.3c1.6,3.1,5.1,3.5,7.9,2.2c5-2.2,2.8-7,3.1-11.6
			C674.5,242.2,671.1,245.1,667.4,248.3z M666.9,242.2c4.1-3.4,7.6-6.4,12.2-10.2c-3.6-0.4-7-1.9-9.4-0.9
			C665.1,233,667,237.7,666.9,242.2z"/>
		<path class="st1" d="M756.8,239.5c-0.7,5.6,1.3,10.4-3.6,13.9c-4.1,3.1-8.7,2.3-12.4,1.2c-3-0.9-6-4-5.4-8.7
			c0.5-3.4,0.1-6.9,0.1-10.3c0-6.2,3.2-9.1,9.5-9.5c4.5-0.3,8.8,0.4,10.8,4.4C757.2,233.4,756.6,237.2,756.8,239.5z M751.3,232.9
			c-1.6-3-5.1-3.3-8-1.9c-4.7,2.3-2.8,6.8-2.7,11.1C744.4,238.8,747.8,235.9,751.3,232.9z M751.8,239.1c-4.1,3.4-7.5,6.3-11,9.1
			c1.8,3.3,5.4,3.6,8.2,2.1C753.5,248.1,751.7,243.6,751.8,239.1z"/>
		<path class="st1" d="M610,240.1c-0.4,3.9,0.2,7.9-1.4,10.5c-3.9,6.5-13.3,6.6-18.4,0.8c-0.9-1-1.6-2.6-1.7-3.9
			c-0.2-3.9-0.1-7.8-0.1-11.8c0-6.2,3.2-9.2,9.4-9.5c4.3-0.2,8.5,0,10.4,4.1C609.8,233.3,609.6,237.1,610,240.1z M604.9,238.9
			c-3.9,3.4-7.4,6.3-11,9.5c1.4,3.1,5.1,3.4,7.9,2.1C606.7,248.3,604.5,243.4,604.9,238.9z M604.2,232.8c-1.8-3.2-5.5-3.4-8.4-1.8
			c-4.4,2.4-2.3,6.9-2.3,11C597.3,238.8,600.7,235.9,604.2,232.8z"/>
		<path class="st1" d="M564.1,240.6c0.3-4.5-2.3-10.4,3.7-12.7c3.8-1.4,8.5-2.2,12.2-1.2c2.8,0.7,5.7,4,5.1,8.4
			c-0.5,3.5-0.1,7.2-0.1,10.8c0,3.9-3.2,8.5-6.2,9.1c-5.7,1.2-13.5-1.3-14.5-5.2C563.4,247,564.1,243.7,564.1,240.6z M580.4,238.9
			c-4.2,3.5-7.7,6.4-11.3,9.4c1.7,3.1,5.3,3.5,8.2,2.2C582,248.3,579.8,243.5,580.4,238.9z M579.7,232.9c-2.1-3-5.4-3.2-8.7-1.7
			c-2.8,1.3-3.2,6.4-1.5,10.4C572.7,238.8,576,236,579.7,232.9z"/>
		<path class="st1" d="M98,247.1c-4.1,0-7.5,0-11.7,0c0,1.9,0.3,3.8-0.1,5.5c-0.2,1-1.6,1.7-2.4,2.6c-0.7-0.8-2.1-1.6-2.1-2.4
			c-0.2-5.3-1.4-11.1,0.3-15.9c1.4-4.1,6.1-7.1,9.4-10.6c0.3-0.3,1.2-0.1,1.8,0c2.9,0.8,9.6,9.5,9.6,12.6c0,4.2,0.2,8.5-0.1,12.7
			c-0.1,1.2-1.6,2.3-2.5,3.5c-0.7-1.1-1.8-2.1-2.1-3.4C97.7,250.5,98,249,98,247.1z M97.4,242.2c2.2-5.2-2-6.8-4.3-9.2
			c-0.4-0.4-2.1,0.1-2.8,0.7c-2.4,2.2-5.6,4.2-3.4,8.5C90.5,242.2,94,242.2,97.4,242.2z"/>
		<path class="st1" d="M136.9,253.9c0-9.5,0-18.2,0-27.7c8.2,4.7,15.7,9.1,23.8,13.8C152.6,244.7,145.1,249.1,136.9,253.9z"/>
		<path class="st1" d="M32.2,226.2c5.3,0,10-0.2,14.7,0.1c3.3,0.2,6.6,4.7,6.5,8.7c-0.1,3.3-3.8,7.7-7,7.9c-2.9,0.2-5.9,0-9.4,0
			c0,3.4,0.2,6.4-0.1,9.3c-0.1,1.1-1.6,2-2.4,3c-0.7-0.9-2.1-1.9-2.1-2.8C32.2,243.8,32.2,235.4,32.2,226.2z M37.3,230.5
			c0,3,0,5.2,0,8c2.4,0,4.8,0.5,6.7-0.1c1.8-0.6,3.1-2.4,4.6-3.7c-1.4-1.4-2.7-3.4-4.4-4C42.4,230,40,230.5,37.3,230.5z"/>
		<path class="st1" d="M105.9,226.6c3.7-1.1,4.8,0.1,4.7,3.3c-0.1,5.3,2.8,10.3,5.6,10.4c2.9,0.2,5.8-5.1,5.9-10.6
			c0-0.9,0.1-1.9,0.2-3.2c1.4-0.1,2.7-0.2,4.1-0.3c1,6.5,1.5,12.5-4.7,16.5c-3.4,2.2-2.8,5.5-3.1,8.7c-0.1,1.3-1.5,2.4-2.3,3.7
			c-0.8-1.2-2.3-2.5-2.2-3.7c0.3-4.1-0.6-7.3-4.1-9.6C104.1,238,106,232.2,105.9,226.6z"/>
		<path class="st1" d="M56.9,226.5c1.9,0,3.1,0,4.7,0c0,8.1,0,15.9,0,24.3c4.6,0,8.8-0.1,13,0.1c1.2,0.1,2.3,1.3,3.4,2
			c-1.1,0.8-2.2,2.1-3.3,2.2c-4.9,0.2-9.8,0.3-14.6,0c-1.1-0.1-3-1.8-3.1-2.8C56.8,243.8,56.9,235.3,56.9,226.5z"/>
	</g>
</g>
</svg>
